<?xml version="1.0" encoding="UTF-8"?>
<svg id="Layer_1" data-name="Layer 1" xmlns="http://www.w3.org/2000/svg" viewBox="0 0 708.89 1000.002">
  <defs>
    <style>
      .cls-1 {
        fill: #e8b31f;
      }
    </style>
  </defs>
  <path class="cls-1" d="M101.48.001c1.111,5.484,4.807,10.552,11.046,8.569,5.201-1.654,5.56-9.713,14.455-3.57,9.913,6.846,11.986,20.928.644,27.645-4.394,2.603-11.251,2.055-10.151,8.352,2.156-.967,5.415,1.003,6.506,1.003h16l1.5,1.5v40.5l-3.996.005-2.019-35-3.04.44c-3.571,2.619,2.385,29.954-.955,35.55-2.873.372-3.591-3.451-3.896-5.589-1.269-8.899.544-20.205-1.557-29.445-.797-1.606-4.311-.381-4.577.713l1.035,34.322c-3.927.828-4.276-2.779-4.725-5.766-.609-4.049.157-29.905-3.756-30.181-.318-.022-3.514,2.156-3.514,2.451v33c-2.742,3.502-4.196-.149-4.756-3.244-.839-4.634,1.151-29.536-1.918-30.292l-4.186.178c-3.742,10.919-1.138,22.597-2.62,33.879-.519,1.103-2.927,1.35-3.506.975-2.98-1.934.7-24.653.03-29.544-.494-3.607-2.333-5.425-6.049-3.979l-1.797,2.225-2.203,30.297c-1.72.347-2.036-.427-2.777-1.713-2.415-4.187-1.03-19.916-1.177-25.824-.105-4.207-2.426-8.442-.129-12.818,2.171-3.058,22.552.268,17.615-7.667-.722-1.161-7.977-4.189-10.523-7.477-8.25-10.655-.03-22.853,8.996-29.496h6,0ZM99.229,10.249c-1.47-1.272-4.387-1.046-6.078-.142-8.161,4.363-3.72,16.477,3.599,19.125,6.341,2.294,24.38,3.599,29.228-1.233,8.433-8.405.725-25.811-6.554-18.547-4.72,4.71,2.063,13.721-7.425,14.548-17.1,1.49-8.723-10.249-12.77-13.749v-.002Z"/>
  <path class="cls-1" d="M192.48,1000.001c.537-2.554-2.442-5.057-1.873-7.29.667-2.619,5.266-2.999,4.978-8.209-.282-5.087-8.082-6.483-5.417-17.319.845-3.438,7.425-15.497,9.782-18.212,5.277-6.078,14.435-7.065,21.966-5.905,2.644.407,14.802,8.757,17.054,10.946,3.104,3.016,12.483,19.567,10.39,22.866-3.26,1.124-6.65,2.136-7.761,5.773-.327,3.753,6.914.414,7.712,6.087.375,2.664-3.594,8.031-3.831,11.264h-3c1.268-8.754-2.727-6.515-7.375-9.125-4.407-2.475-7.979-11.075-12.603-1.402l4.978,10.527h-14c2.256-3.723,5.734-14.38-1.508-13.544-4.47.516-3.092,5.159-5.528,7.007-2.989,2.268-9.286-.205-7.964,6.536h-6ZM215.26,949.233c-8.806.928-18.691,8.092-19.7,17.366-1.146,10.527,5.869,5.456,9.941,7.881,1.655.986,3.468,10.178,8.492,5.536,5.175-4.781-5.362-10.403-6.319-14.74-3.287-14.891,23.962-10.55,20.36.766-.631,1.983-9.347,11.414-4.025,12.954,2.698.781,6.281-4.813,8.553-6.413,4.512-3.178,8.414-.633,4.458-9.625s-11.676-14.786-21.759-13.724h-.001Z"/>
  <path class="cls-1" d="M605.48,1000.001c-3.902-6.584,4.017-7.738,4.081-12.475.063-4.628-5.387-6.461-5.87-12.317-.565-6.854,6.415-19.41,11.262-24.235,11.281-11.232,24.41-5.54,35.027,3.028,5.26,4.245,13.233,15.889,13.491,22.615.184,4.8-7.746,3.6-7.87,8.031-.103,3.696,6.534,1.194,7.48,5.302.867,3.764-1.993,6.5-2.6,10.052h-4c1.093-6.385-3.925-4.769-6.928-6.572-2.65-1.592-4.829-5.488-8.573-5.523-7.834-.073-3.173,8.617-.499,12.095h-12c2.171-4.228,4.01-10.552-2.453-11.049-3.52.331-3.59,4.849-5.57,6.526-2.511,2.127-8.126.72-7.977,4.523h-7.001ZM652.341,972.868c2.683-4.17-6.756-16.522-10.511-18.717-11.559-6.757-31.617,1.587-32.388,15.385-.5,8.942,4.825,5.116,9.818,7.122,2.428.975,2.584,8.681,8.214,5.865l1.872-2.227c1.032-4.139-8.215-8.86-7.824-15.661.467-8.121,9.914-7.434,15.629-4.805,14.026,6.451-5.339,16.67.292,20.725,4.726,1.908,6.188-3.726,8.654-5.433,1.418-.981,5.93-1.764,6.244-2.254h0Z"/>
  <path class="cls-1" d="M83.48,1000.001c-5.086-12.362-6.178-20.704,4.53-29.97,6.106-5.284,13.541-9.586,20.978-4.038,3.924,2.927,3.89,8.853,8.889,7.93,4.826-4.411-.644-14.037-5.448-16.37-7.184-3.489-14.678.036-21.948.438,8.831-13.159,21.998-10.672,32.506-.996l.498-5.996c4.604-.435,9.222,4.143,11.971,7.527,11.134,13.707,8.105,35.992-9.976,41.476h-10c-4.959-1.091-7.687-10.624-11.491-10.646-5.769-.034-2.515,7.404-1.509,10.646h-9c-2.684-6.009-2.603-13.376,1.98-18.52,1.946-2.183,4.131-2.171,5.484-3.513,2.871-2.848.826-5.911-2.923-6.026-11.891-.362-14.083,20.118-9.541,28.058h-5ZM118.596,991.885c1.244,2.015,8.64-.297,10.418-1.849,1.47-1.284,5.785-10.046,6.044-11.991.72-5.415-6.576-13.366-9.083-18.039-.287,4.896,1.92,7.834,1.254,13.226-.284,2.299-1.383,5.447-2.538,7.479-1.702,2.993-8.532,7.227-6.095,11.174Z"/>
  <path class="cls-1" d="M496.48,1000.001c-4.74-14.182-2.86-22.786,9.672-30.828,4.325-2.775,6.147-3.981,11.765-3.105,7.808,1.218,9.185,9.155,11.209,9.826,8.117,2.69,4.681-12.924-3.073-15.967-6.503-2.553-15.105-.45-21.569,1.068-1.418-1.32,6.428-7.237,7.64-7.85,5.666-2.865,10.816-2.464,16.418.292,4.915,2.418,10.251,11.138,8.942-.433,20.278,5.426,25.134,34.645,7.995,46.997h-20c-2.989-2.697-3.137-7.755-7.542-7.976-4.086.975-3.148,4.966-2.458,7.976h-9c-1.183-5.187-.915-12.404,2.976-16.524,1.036-1.097,11.88-6.248,5.365-8.31-13.012-4.119-17.023,16.068-13.342,24.834h-5,.002ZM538.48,962.011c3.172,5.387,3.672,13.963,1.247,19.737-1.622,3.862-9.213,6.61-6.822,12.314,7.476,4.756,16.315-8.484,16.537-14.661.09-2.51-5.96-12.413-7.765-15.097-.87-1.294-1.121-2.738-3.197-2.293h0Z"/>
  <path class="cls-1" d="M394.48,1000.001c-.49-2.141-3.77-1.811-4.549-2.955-.921-1.355-.236-4.375-.672-6.319-.385-1.715-2.013-3.052-1.813-5.181.383-4.091,9.387-6.574,9.9-9.176-.547-4.858-8.606-7.253-4.297-12.292,1.014-1.186,2.883-1.56,3.701-3.307,1.583-3.381-.587-7.313,2.225-9.746,5.453,5.58,9.276,1.417,15.375,1.11l4.797,10.732c5.546,1.82,6.636-5.316,10.781-4.917,2.733.263,6.683,7.424,11.553,6.061.612,2.454-1.928,4.459-1.939,6.484-.015,2.705,3.897,5.572,2.833,8.833l-7.631,4.932-1.008,2.38,5.644,9.063-1.9,4.299h-9c5.482-6.112-.735-8.583-2.793-12.767-3.338-6.784,5.737-6.673,9.312-10.243,1.636-6.708-4.686-10.655-10.822-8.784-2.305.703-3.182,4.715-7.084,3.866-.982-.214-5.514-16.362-14.577-8.534-6.518,5.63,4.179,10.357,2.569,15.487-1.546,4.927-15.538,6.059-7.125,15.993,8.676,10.245,14.954-14.234,20.519,4.982h-24,0Z"/>
  <path class="cls-1" d="M310.48,1000.001c-3.583-7.393-18.955-11.726-12.5-20.98l13.02,12.965c1.776.236,1.498.047,1.516-1.504.083-6.85-16.729-16.662-16.79-20.745-.01-.663.34-5.518,2.24-4.728l14.02,12.967c1.752-1.241,1.722-2.31,1.315-4.267-1.499-7.216-20.493-12.785-17.816-22.703,2.727-2.873,13.148,14.142,17.99,11.99.995-5.521-6.343-7.489-5.99-12.99,4.118-1.193,5.172,4.166,8.336,3.76.709-.091,12.257-9.278,9.508-2.417-1.55,3.868-9.496,6.166-6.842,11.648,2.331,1.748,11.278-10.281,14.988-8.99,1.892,12.205-18.103,11.575-14.99,23.99,2.241,2.32,10.565-9.44,13.515-9.981,2.35-.797,1.709,4.238,1.454,5.46-1.043,4.994-16.779,11.614-15.976,16.005.323,1.767,2.296,1.444,3.734.759,3.235-1.541,7.85-6.794,10.782-9.23,2.077-.335,1.196.302,1.616,1.408,3.453,9.082-11.375,11.479-15.13,17.584h-8,0Z"/>
  <path class="cls-1" d="M20.48,1000.001h-11c13.174-6.854,3.431-9.579,1.512-19.035,1.196-3.244,17.157-5.831,8.01-13.986-7.313-6.52-13.191,5.23-16.427,2.936-2.816-5.494-2.567-11.938-1.595-17.926,5.087,18.232,11.715,2.53,14.854,3.093l11.586,7.529c-2.219,5.474.368,8.535.932,13.682l-8.663,8.364,5.635,9.698-4.846,5.644h.002Z"/>
  <path class="cls-1" d="M7.48,1000.001H.48l.5-10.01c2.107,3.615,2.464,7.832,6.5,10.01Z"/>
  <polygon class="cls-1" points="303.48 1000.001 296.48 1000.001 296.99 993.991 303.48 1000.001"/>
  <path class="cls-1" d="M444.208,625.238c7.156-1.321,13.171,1.413,17.683,6.852,9.523,11.48,1.3,20.225,3.801,31.201.923,4.05,7.712,7.793,8.727,14.271,3.819,24.373-15.656,32.2-35.432,22.785-8.97,9.671-28.31,13.703-36.342.988-3.066-4.854-4.85-15.136-4.074-20.75.49-3.546,3.207-6.557,3.002-10.081-.155-2.663-4.061-7.355-5.267-10.83-5.836-16.81,5.748-33.678,24.435-30.432,3.542.615,7.864,4.467,10.255,4.368,2.662-.109,7.591-7.336,13.213-8.373h-.001ZM457.467,658.994c3.975-8.179,4.927-19.639-1.954-26.527-6.866-6.874-18.563-1.846-18.031,7.532,6.273.504,10.922-6.302,17.078-.578,4.05,3.766,2.025,9.395,1.883,14.05-.037,1.222-.725,5.509,1.024,5.522h0ZM415.224,635.246c-15.94.957-20.314,20.246-9.076,29.611,7.438-.322.387-9.082.277-13.399-.177-6.924,4.258-9.477,10.564-9.537,3.961-.038,8.487,2.834,11.484-.434.732-3.379-10.521-6.403-13.251-6.24h.002ZM448.387,644.09c-6.413-1.462-13.814,7.274-10.401,12.906.669,1.103,8.575,6.188,10.055,4.113,2.512-1.877,1.652-16.127.346-17.019ZM417.191,648.219c-8.423,1.903-2.669,14.82-.052,15.684,3.396,1.121,12.798-7.153,12.394-11.39-.389-4.083-8.993-5.05-12.342-4.294ZM432.217,661.176c-9.026,1.85-5.942,14.568,3.526,12.649,7.99-1.619,6.1-14.621-3.526-12.649ZM460.244,690.769c-2.743,3.135-26.547.18-18.306,7.277,3.39,2.919,13.975,3.113,17.94.847.889-.508,4.994-5.38,5.6-6.394,5.528-9.258,3.35-17.657-4.519-24.489l-2.445,1.574c2.173,6.967,4.174,14.118,1.73,21.185h0ZM448.196,671.145c-1.188.332-7.367,6.754-7.955,8.108-4.25,9.784,12.076,9.718,14.512,4.496,1.733-3.714-1.243-14.089-6.556-12.605h-.001ZM407.994,675.005c-2.843.59-5.534,11.812-5.515,14.51.089,12.963,21.384,20.064,29.06,10.029,4.7-6.145-8.117-2.578-10.517-2.499-6.286.208-9.474-.676-10.45-7.636-.406-2.891,1.366-15.223-2.577-14.405h0ZM420.222,675.158c-7.845,1.439-6.307,18.496,3.52,16.69,1.945-.357,8.957-6.54,8.666-8.21-3.191-3.092-7.122-9.409-12.186-8.48h0Z"/>
  <path class="cls-1" d="M406.83,291.653c-5.094-5.498-6.889-18.814-5.065-25.875.635-2.458,2.966-4.693,2.724-7.218-.19-1.981-3.456-5.203-4.505-7.562-7.975-17.929,2.794-37.389,23.757-33.754,3.46.6,6.709,3.851,9.242,3.861,3.27.013,6.505-4.987,9.602-6.498,13.431-6.555,27.495,6.381,26.937,19.924-.217,5.273-3.058,10.39-1.829,15.762.943,4.119,8.721,9.715,9.724,16.27.472,3.082-.346,9.633-1.198,12.678-4.177,14.928-23.478,15.303-35.096,8.917-7.542,9.343-25.652,12.823-34.293,3.496h0ZM460.466,245.999c4.505-8.128,3.19-26.575-7.72-28.829-9.335-1.929-18.33,11.691-9.836,10.84,4.548-.456,7.578-6.798,14.106-.045,4.849,5.017,1.821,10.659,1.457,16.548-.123,1.986.214,1.567,1.994,1.486h0ZM416.242,223.216c-14.776,2.024-19.337,21.236-7.245,29.779,6.583-4.141-2.782-12.442,1.417-19.56,4.355-7.382,19.205.067,20.062-3.95-1.764-5.292-9.445-6.924-14.234-6.268h0ZM451.395,232.094c-14.466-.861-15.274,18.453-.019,16.793,1.598-5.575,1.543-11.212.019-16.793ZM429.134,246.657c1.431-1.658,2.467-4.054,3.01-6.179-3.129-5.449-11.382-6.07-16.172-2.49-2.319,11.393,4.087,19.19,13.162,8.67h0ZM442.307,259.834l-.801-9.358c-17.093-6.95-14.96,17.803.801,9.358ZM443.702,285.763c1.65,1.539,10.253,3.12,12.793,2.835,7.367-.827,15.451-11.864,14.948-18.979-.231-3.27-5.133-13.219-8.614-13.498-4.786-.384.224,7.074.588,9.443.332,2.162.46,10.944-.426,12.447-1.672,2.837-15.787,2.916-19.407,3.084-.627,1.366-1.089,3.541.118,4.667h0ZM450.193,259.184c-1.777.529-8.312,8.776-8.586,10.543-.987,6.372,13.921,7.335,15.683,1.577,1.352-4.418-.936-13.955-7.096-12.12h-.001ZM412.462,263.002c-3.053-2.547-6.401,7.645-6.735,9.738-2.074,12.965,8.61,21.657,21.027,19.034,2.448-.517,10.438-4.891,7.731-7.767-9.08-.185-20.321,5.55-21.928-7.6-.348-2.846,1.585-12.003-.094-13.404h-.001ZM422.222,263.179c-5.614,1.15-6.446,11.187-2.103,14.676,6.417,5.155,11.93-.938,15.183-6.365-3.344-3.413-7.647-9.425-13.079-8.312h-.001Z"/>
  <path class="cls-1" d="M333.775,358.316c.634-.527,1.627-1.111,2.417-1.169,4.267-.312,11.033,11.766,11.844,15.794,3.51,17.427-18.144,19.294-28.074,10.081-6.95-6.448,4.437-10.461,3.404-14.313-.64-2.386-6.342-8.264-9.386-8.264-3.096,0-12.328,8.761-13.102,11.526-.922,3.296,4.229,6.74,5.463,9.717-.868,7.542-19.916,5.239-22.833,2.783-3.142-2.646-3.972-24.062,2.662-26.352,4.82-1.262,6.678,7.235,10.4,6.431,2.387-.515,10.03-10.145,9.99-13.076-.025-1.829-3.623-6.557-5.08-7.969-5.676-5.5-8.042,1.769-12.948,3.101-2.879.782-5.634-13.648-5.685-16.264-.374-18.945,21.086-13.097,27.667-1.842l-5.896,7.828c1.055,2.243,5.652,9.774,8.188,9.532l11.539-9.568c1.02-3.966-7.834-10.036-3.896-13.822,4.604-2.296,20.692-5.672,24.053-1.993,3.968,4.343.15,27.247-4.514,27.33-5.892-2.74-8.26-11.633-15.065-5.86-7.001,5.938-7.018,20.798,3.845,21.915,2.419-.622,3.66-4.43,5.005-5.547h.002Z"/>
  <path class="cls-1" d="M306.12,737.357c5.739,6.47-4.459,6.174-3.47,11.923.306,1.781,5.455,8.667,7.302,8.707,2.131.046,12.016-7.812,12.365-9.629-.547-4.286-5.559-7.403-4.886-11.827.713-4.69,17.92-6.357,22.098-5.079,6.647,2.034,4.12,17.807,1.987,23.083-4.636,11.469-6.799.637-12.296-1.783-7.513-3.307-14.344,10.359-11.22,17.23.235.517,5.031,5.33,5.516,5.55,5.131,2.33,6.591-6.489,11.32-6.376,9.245,5.962,17.033,23.717,4.568,30.268-6.106,3.209-18.431.029-22.482-5.361-4.209-5.6,1.561-6.865,3.071-10.09,2.409-5.144-6.329-13.904-12.82-10.028-.556.332-8.334,9.149-8.519,9.77-1.619,5.41,3.835,6.07,4.674,8.993,2.366,8.245-20.232,7.542-23.294,2.239-3.052-5.286-3-24.071,5.742-24.837l5.69,6.43c3.175,2.039,12.934-9.411,12.94-13.044.006-3.392-6.142-8.078-8.572-10.346l-11.399,5.424c-1.279-.896-3.951-14.88-3.984-17.125-.235-16.002,18.137-12.584,25.67-4.092h-.001Z"/>
  <path class="cls-1" d="M16.48,228.001c-.104-6.526-10.932-7.325-16.005-6.995v-6.011c3.392.164,6.895-.371,10.272.238,3.304.596,6.225,4.046,9.008,3.614,2.758-.429,5.656-4.853,8.665-6.407,14.811-7.652,28.479,7.203,26.953,21.956-.277,2.68-1.669,5.29-1.889,8.12-.894,11.497,10.751,13.06,9.985,26.963-.933,16.922-13.773,22.912-29.255,19.281-2.421-.568-4.357-3.013-7.009-2.604-3.128.482-6.075,5.763-9.988,7.081-2.513.847-14.814,2.958-16.3.827l-.426-6.063c4.02,4.706,21.675.251,19.984-5.474-.982-3.327-10.714.966-14.414.441-1.455-.206-5.58-2.395-5.58-3.467v-51.5h16-.001ZM46.47,244.003c3.443-8.986,3.752-26.735-7.995-29.586-3.961-.961-14.257,5.327-12.951,9.986,1.068,3.809,7.926-1.488,11.454-1.495,11.929-.025,7.936,12.48,7.494,19.606-.123,1.99.219,1.562,1.998,1.49h0ZM35.186,229.145c-6.348.365-12.524,9.363-7.672,14.329.803.822,6.221,3.697,7.437,3.597,5.693-.469,3.993-18.142.236-17.926h0ZM7.247,233.195c-10.825,1.535-4.431,16.862-.285,16.819,3.042-.032,11.958-9.231,11.369-12.379-2.137-3.315-7.269-4.981-11.084-4.44ZM21.097,246.277c-11.354,1.33-3.415,20.5,7.914,10.782-.031-5.62-.668-11.63-7.914-10.782h0ZM49.168,283.683c2.382-2.001,7.536-10.408,8.132-13.43.916-4.646-4.414-17.808-10.815-16.247,1.598,6.761,5.793,13.892,2.501,21-2.886,6.233-17.478-.5-20.502,6.481,4.144,5.179,15.751,6.339,20.684,2.196ZM37.179,256.111c-2.977,2.619-10.709,8.996-9.567,13.173,1.038,3.799,13.331,4.811,15.379.735,1.853-3.688-1.176-15.131-5.812-13.908ZM9.218,260.128c-13.518,6.36-.968,25.274,9.267,13.385,5.259-6.109-4.357-11.408-9.267-13.385Z"/>
  <path class="cls-1" d="M504.48,468.501c-.846-3.013-5.14-2.924-6.778.226-1.979,3.807-1.77,21.146-2.174,26.823-.127,1.792.264,3.236-1.548,4.431l-2.473-3.507c.275-5.393-2.938-36.471.12-38.33,3.548-1.021,16.736-.167,17.788-3.773-.694-5.422-7.912-5.778-11.379-10.426-3.823-5.126-4.339-11.057-2.044-16.932,1.718-4.396,11.385-15.707,16.505-12.53,2.654,4.291,4.116,10.73,10.667,8.787,6.677-1.98,6.853-11.22,17.278-2.732,9.139,7.44,8.317,21.633-2.624,27.301-2.363,1.224-9.413,1.938-9.129,5.679.335,4.404,17.558,1.766,21.304,2.47,3.161.594,3.312,4.86,3.526,7.474.537,6.552,1.006,26.217-.039,32.039-.444,2.475-1.596,2.777-3.996,2.501-1.98-9.467.101-20.026-1.275-29.23-.228-1.524-.876-6.271-3.215-5.766-3.997.863-1.514,5.599-1.514,6.495v29l-2.005,1.015c-3.767-2.581-2.504-23.803-3.01-28.999-.36-3.698-1.098-9.807-5.03-5.85l.577,34.366-2.561.5c-3.636-2.319-2.361-29.887-3.974-35.538-3.778-.53-5.362.907-5.929,4.574-1.182,7.649,1.582,17.488.98,25.978-.209,2.95-.464,7.324-4.137,4.869-2.29-3.113-.913-26.424-1.913-31.912-.553-3.036-3.995-3.536-5.508-1.509-2.834,3.798-1.372,27.705-2.495,34.002-1.116.418-3.995-.429-3.995-1.495,0-6.286,1.245-25.566,0-30h0ZM527.284,437.798c-3.688.229-9.546,1.902-12.722-.373-5.147-3.688-1.381-12.171-4.721-13.29-9.58-3.208-12.917,12.426-4.094,18.099,3.849,2.475,20.609,4.466,25.185,3.71,14.199-2.345,12.949-26.257,1.254-22.749-4.645,1.394-1.31,10.936-4.902,14.604h0Z"/>
  <path class="cls-1" d="M514.48,879.501c-.782-2.765-5.654-3.612-6.794.207-1.875,8.766.269,21.692-1.206,29.793-.398,2.185-2.179,3.637-4.065,1.913-3.004-4.143,2.191-24.035-.095-30.746-.936-2.748-4.544-2.859-6.304-.636-4.468,5.642-1.066,29.358-3.594,30.931l-2.924.039c-1.78-8.99-.872-18.325-1.026-27.489-.062-3.69-2.387-7.756.17-11.851,2.717-4.352,18.113.37,18.684-6.345.244-2.869-5.757-4.378-7.782-5.878-12.267-9.088-7.285-24.668,3.983-31.884,9.209-5.897,7.33,7.979,15.456,8.002,7.855.022,7.6-11.309,18.009-3.566,10.049,7.475,10.081,21.585-1.17,27.851-3.638,2.026-9.952,1.595-9.327,7.143.957-.246,2.132,1.017,2.487,1.017h20.5c.251,1.519.847,2.925,1.005,4.485.719,7.096,1.666,24.29,1.034,31.053-.246,2.629-.467,5.531-2.552,7.454-1.742.907-2.249-2.561-2.389-3.582-.762-5.56.398-27.662-2.045-30.962-1.737-2.346-3.537-1.749-4.046,1.058-.278,10.154,2.174,20.899,1.04,31.042-.825,7.374-4.314,1.889-4.929-3.165-1.096-9.008-.165-20.116-1.123-29.385l-4.059.441c-2.492,1.712.015,9.191.104,12.022.184,5.837.444,13.391.012,19.094-.134,1.764.2,3.27-1.567,4.438-1.753.863-1.855-1.776-2.157-2.796-2.767-9.355-.721-21.632-2.486-31.536l-2.343-1.698c-1.025-.078-3.499,2.099-3.499,2.54v33.5l-3.917-.088c.438-1.494-1.083-3.68-1.083-4.412,0-5.884,1.17-23.866,0-28l-.002-.004ZM530.184,835.164c-7.627,2.302,2.354,18.485-14.151,15.775-10.269-1.686-4.207-14.074-10.07-14.998-10.438-1.644-11.515,18.117,3.254,20.824,4.549.834,18.136,2.049,22.008.481,11.196-4.535,8.731-25.031-1.041-22.082h0Z"/>
  <path class="cls-1" d="M90.48,465.001l-4.3-.868c-6.2,1.48-2.86,25.981-5.443,31.628.176,1.431-1.71,1.728-2.243,1.237-1.75-1.612-2.599-35.345-1.552-40.034,2.07-3.145,17.263-1.045,18.467-4.558,1.551-4.526-4.253-4.985-6.866-6.967-12.597-9.551-9.175-22.959,2.44-31.434,10.724-7.825,7.46,5.737,15.048,7.008,8.59,1.439,9.947-12.237,20.495-2.557,8.132,7.462,8.464,19.623-1.113,25.979-4.459,2.959-10.968,1.832-9.927,8.551,1.56-.626,3.733,1.016,4.494,1.016h18.5l.995,39.495-1.512,2.489c-.996.519-3.483-.666-3.483-1.484v-30c0-1.486-3.069-4.474-5-3.5v36l-3.087-.588c-2.621-3.553-1.216-24.194-2.009-29.816-.545-3.866-2.127-8.034-5.442-3.559l1.534,33.968-3.847-.154-3.63-33.866c-4.217-2.765-5.153-.507-5.519,3.505-.902,9.871,2.709,20.501.522,30.531-.519,1.103-2.927,1.35-3.506.975-1.368-.888-1.086-27.297-2.027-32.484-.576-3.175-3.382-3.335-5.512-1.53-2.81,2.825-1.133,28.083-2.481,34.013-1.116.419-3.995-.428-3.995-1.495v-31.5h0ZM119.204,420.148c-6.09,1.652-2.085,14.065-7.419,15.658-2.416.722-8.676.558-10.871-.739-5.997-3.542-.404-14.002-7.94-13.986-9.507.019-7.885,17.136,1.463,20.463,4.42,1.573,20.789,2.337,25.097,1.012,11.799-3.63,8.656-24.844-.33-22.407h0Z"/>
  <path class="cls-1" d="M135.48,866.001c1.709,1.09.887,24.412.959,28.542.086,4.904,3.901,12.48-2.945,14.459.037-.979-.577-1.827-.738-2.758-1.58-9.118.389-21.022-1.276-30.741-.658-3.841-4.528-3.664-5.049.951-.632,5.601,2.952,29.943.059,32.059-1.254.917-1.632.538-2.54-.481l-2.473-32.527-2.483-2.497c-1.813,1.276-2.27,2.275-2.563,4.444-.648,4.797,2.585,29.936,1.043,31.547-1.848.134-3.043.364-3.781-1.71-3.16-8.878.234-23.143-3.108-32.706-1.027-1.427-4.55-.713-4.964,1.062-.219,7.957-.197,15.935-.186,23.899.002,1.754.83,3.387.843,4.959.075,8.661-4.691,7.01-5.681-1.118-.925-7.6.575-16.246-.118-23.891-.41-4.523-1.148-5.28-5.856-4.344-3.277,10.961-1.382,22.587-2.624,33.874l-3.514.984c-3.001-9.761,1.785-20.978-.035-30.477-.902-4.708-6.653-5.071-7.753.189-1.01,4.823-1.063,27.97-2.223,29.278-1.917.383-3.058-1.428-3.542-2.948-1.559-4.9-.361-18.522-.41-24.588-.036-4.346-1.994-8.47.096-13.32l17.909-2.684c1.107-6.054-4.718-6.191-8.523-9.479-10.088-8.718-5.653-22.924,4.138-29.812,10.873-7.649,7.485,5.11,15.075,6.661,8.516,1.74,8.42-10.56,19.194-3.255,9.133,6.192,11.18,18.603,2.089,25.951-5.153,4.165-12.452,2.33-11.977,9.428,1.224-.344,2.921,1.052,3.457,1.052h19.5v-.003ZM117.208,832.163c-7.747,1.172-2.357,13.983-7.393,15.674-1.713.576-9.675.458-11.337-.333-5.544-2.64.297-13.182-7.503-13.599-8.488-.453-8.053,12.435-3.015,17.117,4.656,4.326,24.72,5.461,30.264,3.223,9.725-3.926,7.698-23.4-1.016-22.082h0Z"/>
  <path class="cls-1" d="M519.48,55.501c-.493-3.151-3.275-3.228-5.597-1.591-3.968,4.374-1.056,32.552-3.464,34.051l-2.933.045c-3.391-9.504,1.649-21.652-.035-30.476-.671-3.518-4.469-4.616-6.732-2.282-3.736,3.855-1.109,25.668-3.247,31.757l-2.99.003-1.555-38.061c1.818-6.415,17.967-1.182,18.618-7.47.405-3.914-4.503-4.134-7.005-6.039-10.497-7.992-9.12-21.187.46-29.416,13.216-11.353,10.087,5.508,18.979,5.533,5.61.016,8.16-6.788,11.914-6.577,13.096,4.639,19.358,20.234,6.496,29.433-4.284,3.064-11.154,2.702-10.899,8.574.96-.251,2.132,1.015,2.488,1.015h20.5c1.917,8.252.757,17.053.959,25.541.121,5.067,4.512,17.959-3.954,16.464l-1.031-31.478-2.488-3.522c-1.54-.319-2.243,1.172-2.48,2.501-1.429,8.011,3.022,28.43-.487,33.514-2.141,3.102-3.242-5.167-3.39-6.648-.372-3.719-.408-28.151-2.139-29.367-7.291,1.285-3.052,12.306-2.948,17.454.064,3.173.485,16.954-.533,18.549-.626.98-1.386,1.175-2.497.988-2.849-4.523-1.831-35.448-4.609-36.055l-3.472.494-.936,35.571c-2.522,1.129-4.994-2.732-4.994-4.505,0-7.958,1.129-20.78,0-28h0ZM536.98,10.46c-8.979.008-2.919,13.616-8.164,15.377-2.22.745-9.817.467-11.897-.774-5.058-3.02.524-11.992-5.991-13.063-10.663-1.754-10,15.226-1.178,19.232,3.189,1.448,20.558,3.254,24.003,2.538,13.181-2.74,12.169-23.317,3.227-23.309h0Z"/>
  <path class="cls-1" d="M.48,659.001c1.601-.221.666,1.615,2.218,2.341,4.19,1.957,12.068-6.559,12.76-10.871-2.585-5.802-9.79-6.73-14.969-3.47l-.015-7.005,14.015-.505c-.063-3.807-10.633-7.134-14.005-6.495l-.009-6c2.735.106,5.558-.33,8.278.233,2.893.599,5.52,4.017,8.153,3.802,3.415-.28,6.933-5.94,9.841-7.264,8.374-3.812,17.187.182,22.17,7.297,7.666,10.944.605,19.095,2.587,29.416.686,3.574,8.194,8.507,9.023,16.968,2.289,23.357-17.191,29.295-35.575,20.573-4.142,1.951-5.72,5.94-10.455,7.497-1.876.617-13.31,2.197-14.021,1.488l.014-6.004c3.642,3.54,18.007-1.424,18.031-5.481.036-6.226-15.228,3.17-18.04-2.019v-34.5h-.001ZM41.484,655.995c2.023,2.16,4.591-6.687,4.752-7.732,2.769-17.954-14.17-31.929-23.759-11.784,3.858,4.069,7.537-1.752,12.481-1.549,10.421.427,7.89,13.988,6.526,21.065ZM33.002,641.331c-5.838.893-11.759,6.623-9.006,12.655,1.121,2.455,9.103,6.917,11.039,4.065.856-1.261,1.703-15.922-2.033-16.72h0ZM18.183,658.156c-7.576,1.802-6.479,14.987,2.555,13.674,10.691-1.553,5.149-15.507-2.555-13.674ZM52.136,689.669c4.933-7.738,1.978-21.785-7.651-23.663-.328,4.287,2.651,7.253,3.008,11.504,1.459,17.385-9.085,10.855-21.016,13.501-.762,7.993,12.991,8.853,18.367,5.853.812-.453,6.849-6.501,7.292-7.195ZM25.597,682.886c9.776,4.86,20.548.28,13.731-11.23-5.919-9.993-15.767,8.334-13.731,11.23ZM2.717,674.242c-1.957,1.951-1.648,9.792-.139,12.161,4,6.276,12.923,1.614,15.18-3.702,1.731-4.077-10.56-12.927-15.041-8.459Z"/>
  <path class="cls-1" d="M667.243,164.232c2.843,3.74-.6,6.183-1.492,9.54-2.129,8.012-2.072,12.389-7.759,19.241-17.524,21.116-42.313,1.501-48.075-18.995-1.692-6.017,4.577-5.661,4.644-10.492.057-4.142-5.199-7.204-5.886-12.296-.959-7.111,8.508-24.26,14.667-27.868,11.254-6.592,22.782-.747,31.617,6.66,4.819,4.041,13.772,16.314,13.47,22.526-.178,3.66-8.075,3.724-7.944,8.919l6.758,2.764h0ZM633.229,157.743c4.788-4.681-9.258-10.851-6.309-19.799,2.567-7.792,23.222-3.674,20.113,6.099-.631,1.983-9.348,11.413-4.025,12.953,2.578.746,5.522-3.917,7.535-5.432,4.043-3.042,8.443-1.446,6.158-8.281-1.5-4.488-7.082-12.723-11.675-14.327-11.518-4.022-25.361.673-29.595,12.494-4.921,13.737,5.085,8.561,9.476,11.625,1.998,1.394,1.573,4.868,4.267,5.793,1.138.279,3.225-.314,4.055-1.125ZM645.126,163.17c-9.001,5.006,2.388,11.473,2.412,17.328.039,9.65-17.686,9.962-16.903,2.268.386-3.791,9.059-15.662,2.132-17.623-5.07-1.435-5.001,4.412-7.311,6.334-2.689,2.237-7.11.499-8.728,4.012,7.489,17.578,23.783,28.567,38.723,10.983,2.952-3.475,8.994-11.294,4.538-15.483-1.445-1.359-3.779-.897-5.236-1.76-3.167-1.876-5.455-5.666-9.627-6.058h0Z"/>
  <path class="cls-1" d="M199.183,164.723c4.922-5.91-3.974-10.006-4.639-16.331-.767-7.294,8.806-23.975,15.225-27.603,5.824-3.292,12.458-3.565,18.683-1.262,5.687,2.104,16.858,10.672,20.058,15.943,1.803,2.969,7.119,14.65,5.076,17.107-1.458,1.754-6.807,2.09-7.059,5.811,1.121,2.847,4.784,2.171,6.527,3.532,3.661,2.859-.924,7.876-1.891,11.263-2.284,8.001-1.685,11.249-7.705,18.295-14.945,17.49-36.286,4.788-44.464-12.492-.721-1.523-3.664-9.362-3.553-10.448.294-2.868,2.755-2.631,3.742-3.816h0ZM218.218,125.247c-8.962,1.367-19.591,11.771-17.742,21.253.996,5.109,6.236,2.086,8.723,3.196,2.856,1.275,4.479,9.697,8.82,6.403,7.769-5.897-11.123-12.9-4.023-22.084,3.312-4.283,16.685-2.022,19.001,3.011,2.444,5.313-9.499,15.125-3.898,16.899,3.745,1.186,5.449-3.199,7.871-4.935,4.101-2.939,8.492-.843,5.741-8.726-3.718-10.656-13.221-16.736-24.492-15.017h0ZM212.251,168.764c-3.394,4.106-16.809-1.562-3.187,15.153,7.321,8.984,17.026,12.187,27.371,5.538,2.985-1.918,10.56-11.607,11.025-15.035.989-7.289-3.852-5.583-7.907-7.991-3.639-2.161-4.138-7.201-9.839-4.766-6.044,2.581,2.344,11.257,3.322,14.294,3.452,10.72-16.085,12.963-16.502,4.592-.249-4.994,11.982-18.744-1.037-18.1-2.588,1.23-2.304,5.175-3.246,6.315h0Z"/>
  <path class="cls-1" d="M626.213,533.233c10.731-1.964,16.169,1.257,24.18,7.355,6.629,5.046,13.847,13.38,15.047,21.994,1.036,7.443-6.97,5.16-7.006,9.919-.027,3.586,6.442,1.279,7.074,6.062.126.949-4.118,16.2-4.842,18.124-4.725,12.562-15.65,19.763-29.241,16.87-9.243-1.968-22.643-18.93-23.909-28.139-.892-6.494,4.069-4.095,4.071-9.921.002-4.812-3.967-5.354-4.866-10.229-1.848-10.02,9.083-30.129,19.491-32.035h.001ZM644.214,550.254c4.025,4.108-4.142,11.52-5.588,15.418l1.874,2.886c3.03,1.514,6.362-4.126,8.445-5.592,2.36-1.661,6.859-.623,6.372-5.203-.337-3.172-5.828-11.548-8.293-13.805-11.545-10.572-33.855-1.576-35.339,13.835-.82,8.521,5.646,4.745,9.804,6.699,2.967,1.395,1.971,8.084,8.338,6.562,6.681-8.206-12.094-13.827-4.395-22.606,3.886-4.431,15.318-1.728,18.781,1.806h0ZM614.498,586.029c4.633,19.982,25.727,30.235,39.811,11.3,1.43-1.922,5.067-7.825,5.187-9.921.298-5.191-5.536-4.946-8.39-6.532-2.749-1.529-5.994-7.737-10.689-4.435-4.809,3.381,5.271,12.914,4.909,16.835-1.171,7.579-15.824,9.295-16.879,3.198-.77-4.446,7.483-15.942,3.103-19.04-5.65-3.995-6.516,4.739-8.086,6.05-1.514,1.264-8.55,1.959-8.966,2.545h0Z"/>
  <path class="cls-1" d="M230.176,533.327c.469.293.735,1.66,1.373,2.063,11.664,7.362,18.454,14.267,19.997,28.948-.326,1.393-16.011,4.94-.963,10.056,2.889,3.744-.901,6.679-1.625,9.585-2.15,8.635-2.262,13.943-8.959,21.042-15.102,16.01-35.491,2.299-43.412-13.626-.553-1.112-4.058-10.187-3.95-10.749.498-2.605,6.205-3.051,4.833-10.113-.936-4.814-6.377-3.94-4.897-14.946.8-5.943,9.769-19.801,15.198-22.793,6.121-3.374,16.475-3.17,22.404.534h.001ZM240.23,558.76c4.141-3.363-7.056-18.206-11.016-19.992-12.273-5.535-31.941,3.841-31.796,17.773.066,6.332,6.935,4.459,10.062,5.958,2.463,1.18,2.844,8.593,7.984,6.054,6.713-3.315-3.283-10.955-4.755-14.318-5.219-11.923,10.994-12.709,18.129-7.098,6.728,5.292-3.452,10.815-3.433,16.382.028,8.186,8.167-1.603,10.718-3.398,1.215-.855,3.314-.716,4.108-1.361h0ZM233.193,574.309c-2.415-2.029-5.979-1.338-7.584,1.368-2.132,6.426,10.821,13.828,2.845,19.804-5.206,3.901-15.401,3.542-13.773-4.725.79-4.011,7.911-13.016,1.812-16.314-4.569-2.471-5.72,5.676-8.04,7.033-4.51,2.638-10.909-.623-6.165,8.225,7.307,13.628,21.69,21.876,34.73,9.34,1.931-1.856,8.457-11.151,8.438-13.413-.057-6.808-5.309-5.052-9.342-7.765-1.839-1.237-2.033-2.806-2.921-3.553Z"/>
  <path class="cls-1" d="M412.634,861.843l3.829,1.159c2.767-5.862,1.142-16.557,7.746-19.772,17.057-8.303,29.616,20.368,14.546,27.547-6.413,3.055-12.225-1.429-11.266,10.223,15.261-5.17,22.275,6.349,16.49,20-4.274,10.086-21.117,11.106-25.015,1.016-.96-2.484-1.067-11.389-2.994-12.007-4.341-1.393-4.769,10.125-7.467,13.514-8.819,11.079-27.322.596-26.733-10.867.072-1.408,3.76-9.736,4.687-10.912,4.145-5.26,16.045-.086,16.051-6.244.003-3.907-8.734-3.698-12.382-6.646-23.88-19.297,25.383-46.024,22.509-7.012h-.001ZM393.75,851.286c-5.142,4.217-3.066,15.526,5.132,14.704,14.987-1.502,6.11-23.924-5.132-14.704ZM426.739,866.728c5.776,5.285,15.714-8.343,10.804-14.29-10.304-4.902-17.911,7.786-10.804,14.29ZM411.23,868.247c-11.614,3.062-2.884,19.39,7.994,14.99,9.121-3.689,2.741-17.82-7.994-14.99ZM388.735,898.754c.502.44,6.213,2.234,7.253,2.313,11.276.858,12.648-17.549.087-16.04-6.308.758-12.345,9.339-7.34,13.727ZM432.252,885.169c-14.916,1.866-10.397,18.117,1.28,14.386,7.622-2.435,6.626-15.376-1.28-14.386Z"/>
  <path class="cls-1" d="M417.485,38.004l4.512-.986c1.796-5.65,1.305-16.382,8.43-18.569,17.188-5.275,27.79,20.925,13.069,28.152-5.2,2.553-12.18-1.204-11.019,9.4,12.739-1.205,19.869,1.225,17.914,15.416-1.603,11.631-14.858,18.656-23.958,10.133-4.399-4.12-3.347-14.896-5.463-15.542-5.196-1.587-3.724,11.947-10.139,15.843-15.532,9.434-31.558-11.601-19.374-24.374,5.8-6.081,18.774,1.583,14.039-8.993-15.392-.288-23.669-21.775-8.907-28.874,14.613-7.027,22.92,4.34,20.897,18.395h0ZM412.09,33.566c0-4.552-3.69-8.242-8.242-8.242s-8.242,3.69-8.242,8.242,3.69,8.242,8.242,8.242,8.242-3.69,8.242-8.242ZM431.743,42.731c5.377,5.083,15.892-8.862,10.798-14.294-6.673-1.355-13.2-1.391-13.159,7.067.009,1.841,1.11,6.045,2.361,7.227ZM418.98,43.447c-13.429.002-8.609,19.102,3.777,16.361,10.28-2.275,5.319-16.362-3.777-16.361ZM400.235,61.221c-20.846,3.051,2.148,27.731,9.489,9.471,2.4-5.97-3.376-10.366-9.489-9.471ZM436.242,61.204c-9.759,1.37-12.077,13.489-2.175,14.777,12.294,1.599,12.858-16.277,2.175-14.777Z"/>
  <path class="cls-1" d="M419.392,449.908c2.782-10.27,1.044-21.823,15.503-19.818,12.301,1.705,18.875,23.41,5.841,28.669-6.288,2.537-10.602-.651-11.253,9.236,8.436-.66,18.958-.391,19.084,10.494.14,12.1-8.078,21.535-20.633,17.547-9.964-3.165-5.992-19.08-10.936-18.028-3.041.647-2.953,11.791-7.773,15.345-13.313,9.815-31.205-6.506-21.602-21.706,4.953-7.839,12.3-2.673,16.269-5.534,1.538-1.109.858-4.801-1.069-5.956-4.498-2.695-10.107-.851-14.193-7.806-8.94-15.216,10.957-29.478,22.403-19.402,7.44,6.549-1.351,17.472,8.359,16.961v-.002ZM409.582,445.634c0-4.509-3.655-8.163-8.163-8.163s-8.163,3.655-8.163,8.163,3.655,8.163,8.163,8.163,8.163-3.655,8.163-8.163ZM438.143,452.665c2.972-3.104,5.783-11.461-.187-12.63-17.575-3.442-11.241,24.566.187,12.63ZM413.184,456.211c-9.194,2.73-4.033,18.456,7.547,15.538,9.334-2.352,5.182-19.319-7.547-15.538ZM397.209,473.232c-7.46,1.557-11.883,11.118-3.015,14.553,15.803,6.122,18.007-17.682,3.015-14.553ZM439.225,474.271c-4.632-4.381-19.151,3.629-12.211,11.697,6.23,7.243,20.47-3.885,12.211-11.697Z"/>
  <path class="cls-1" d="M251.475,241.006l-.897,6.592c-6.586,5.15-14.35-2.656-14.911-9.352-.286-3.415,4.751-11.517,8.334-12.219,14.351-2.812,21.769,15.146,18.792,26.793-.528,2.064-2.941,5.384-2.945,6.679-.005,1.719,2.935,4.959,3.406,7.227,2.742,13.189-4.129,24.009-18.301,22.293-7.177-.869-12.53-10.375-5.461-14.518l-2.004-1.987c5.035-5.532,15.26-4.043,13.987,4.483-3.488-.12-5.03-2.293-8.054.469-6.592,6.02,7.899,13.616,12.556,2.533,4.004-9.528,1.39-18.073-10.01-18.004-15.554.095-9.549,19.087-19.138,24.857-3.136,1.887-11.174,3.421-14.868,3.228-10.841-.567-16.906-15.153-13.531-24.627.859-2.411,3.871-4.954,4.061-7.012.281-3.025-4.218-9.476-4.092-14.938.367-15.908,24.113-24.388,30.593-10.513,3.895,8.342,4.502,19.407,13.192,25.882,12.707.019,19.62-9.816,13.491-21.565-6.14-11.771-22.766,1.785-11.229,5.276,3.838,1.162,3.789-1.006,7.028-1.576h0ZM221.198,239.301c1.75,1.461,4.914,8.989,4.958,11.372.085,4.519-4.323,6.691-4.415,7.813-.059.72,3.116,5.882,3.504,8.257,2.588,15.816-17.319,14.396-16.547,5.92.795-8.741,6.48,1.105,7.39,1.293,3.635.752,6.248-6.872,1.945-11.004-7.553-7.252-13.898,6.171-14.345,12.821-.438,6.531,9.713,12.463,16.167,9.097,6.152-3.209,14.179-21.928,13.577-28.248-.459-4.822-8.535-20.588-12.601-23.466-10.268-7.269-19.334,6.267-14.227,16.218,4.102,7.993,15.811,8.243,13.737-2.716l-2.295-1.64-6.562,1.978c-2.024-6.001,4.783-11.811,9.712-7.696h.002Z"/>
  <path class="cls-1" d="M669.158,256.686c4.291-5.087,3.09-19.855-4.405-21.488-12.617-2.748-13.327,14.683.722,8.808.983,7.313-5.532,10.4-11.036,5.535-11.895-10.514,2.515-29.511,16.556-17.555,4.185,3.564,6.572,13.25,6.561,18.511-.009,4.303-3.239,9.194-3.071,11.924.192,3.141,3.8,7.262,3.617,12.922-.346,10.687-10.548,19.589-21.097,15.629-6.055-2.274-10.187-11.13-3.526-14.475l-1.994-.991c4.426-6.847,15.287-4.167,13.991,4.49l-4.551-2.046c-8.414,1.433-6.092,10.451,2.033,10.116,8.775-.362,13.866-20.97.963-22.995-21.281-3.341-12.079,19.224-24.877,24.994-14.901,6.718-29.449-1.769-27.484-18.465.531-4.509,5.502-9.908,5.574-11.103.161-2.655-5.521-8.007-4.391-16.737,1.608-12.423,18.954-20.647,28.259-11.781,2.726,2.597,4.242,12.553,6.622,17.378,4.447,9.018,12.449,18.099,21.535,7.328h0ZM628.59,275.876l4.408-.855c2.323-2.281,1.423-7.178-.486-9.547-6.989-8.673-20.642,11.013-11.554,19.548,7.101,6.669,15.53,1.899,19.932-5.111.967-1.54,7.212-18.382,7.176-19.416-.088-2.557-7.263-17.817-9.151-20.43-8.684-12.017-22.249-5.536-19.204,9.209,2.234,10.817,17.609,11.346,14.682-1.183l-8.91.912c-1.28-11.623,12.19-9.941,13.938.546,1.447,8.684-3.452,8.79-3.851,11.09-.351,2.024,7.579,8.652,2.133,17.084-2.426,3.755-10.285,4.746-12.986,2.04-2.229-2.233-1.709-10.615,1.792-8.296l2.08,4.409h0Z"/>
  <path class="cls-1" d="M237.76,669.703c3.131,2.648,10.868.186,13.652-2.271,5.91-5.215,4.837-21.02-3.495-22.368-13.912-2.25-11.474,15.268.07,7.959,4.547,6.294-2.437,9.995-8.486,7.453-10.362-4.355-6.42-26.497,9.701-21.693,9.922,2.957,12.486,16.579,11.191,25.63-.379,2.648-2.827,6.285-2.688,7.923.156,1.842,2.768,4.594,3.305,6.634,3.889,14.778-11.292,29.521-23.896,19.899-3.869-2.954-6.308-11.646.377-12.368l-3.005-.995c4.619-5.927,15.472-5.407,14.989,3.49-.694.75-9.609-4.328-10.082,3.501-.461,7.633,11.771,7.155,14.32-.764.596-1.853,1.896-10.335,1.305-11.688-1.339-3.065-7.775-5.864-11.038-5.859-17.097.023-9.413,20.465-21.767,26.048-13.197,5.965-27.05-1.057-27.357-15.894-.142-6.852,5.56-11.993,5.608-13.81.048-1.848-3.233-6.287-3.746-9.268-2.112-12.268,5.002-23.564,18.17-23.164,12.789.388,11.917,11.514,15.882,20.112.847,1.837,5.922,10.591,6.989,11.493h0ZM210.378,681.1l2.732,4.838c5.511,1.621,6.63-11.514-.372-12.781-8.236-1.49-14.915,15.045-8.303,21.387,8.1,7.769,16.385,1.709,20.584-6.504,1.214-2.375,6.317-15.656,6.404-17.624.156-3.515-6.742-17.616-9.124-20.735-10.901-14.274-24.461-1.042-18.029,12.03,2.528,5.138,10.725,7.949,13.466,2.054,5.088-10.944-8.7-4.193-9.251-4.77,1.155-17.822,18.019-4.533,14.785,6.294-.519,1.737-3.377,3.156-3.584,5.365-.192,2.052,4.027,7.62,3.749,11.793-.787,11.833-21.356,11.918-15.877-1.383l2.819.035h0Z"/>
  <path class="cls-1" d="M669.141,644.341c5.082,4.906,6.61,18.083,4.837,24.66-.485,1.799-2.521,3.683-2.461,5.514.049,1.476,3.184,5.142,3.718,8.224,1.755,10.111-4.163,21.348-15.258,21.341-9.324-.006-17.989-9.475-8.501-16.071l-2.989-.494c2.735-4.18,11.06-5.201,13.874-.899,1.279,1.955,1.807,3.921-.377,5.363-2.422-2.195-4.878-2.522-7.524-.495-1.52,1.688-1.602,5.418-.003,7.044,13.148,8.287,21.493-17.512,8.053-21.053-20.664-5.444-14.59,18.301-24.1,23.957-11.928,7.096-27.949,2.132-28.972-12.89-.642-9.434,4.906-12.979,4.997-16.03.065-2.19-2.909-5.253-3.486-7.482-3.755-14.513,5.986-26.332,20.968-23.962,9.992,1.581,9.187,11.208,12.384,18.61,1.302,3.014,6.86,12.768,9.665,13.325,7.747,1.538,15.676-4.448,15.539-12.452-.082-4.811-2.132-12.699-7.607-13.507-13.327-1.966-11.6,15.325.059,8.951,4.755,4.977-3.001,9.999-8.035,7.057-8.414-4.918-7.994-15.061-.961-21.068,4.096-3.499,12.657-1.045,16.179,2.355v.002ZM630.243,677.239c-8.211-8.203-22.551,14.186-9.129,21.627,7.828,4.34,13.51-.286,17.399-7.332,1.128-2.044,6.481-15.427,6.789-17.293.582-3.536-6.894-19.924-9.379-23.183-8.802-11.538-23.973-2.098-17.938,11.944,5.509,12.817,18.387,4.093,14.065-2.063-1.721-2.452-6.989.52-9.564.057,1.515-16.664,18.35-4.576,14.548,7.066-.683,2.092-3.573,3.594-3.562,5.416.026,4.611,7.705,8.361,1.438,16.453-5.883,7.596-20.218,1.228-11.929-6.91l2.643,4.82,4.712.013c1.346-2.481,1.906-8.619-.091-10.615h-.002Z"/>
  <path class="cls-1" d="M125.47,545.001l.015-6.002c9.118-.322,18.236,13.301,18.998,21.499,1.353,14.568-7.636,28.896-23.492,27.511-9.427-.824-10.536-10.885-14.166-10.823-5.517.093-3.129,8.705-.882,11.854,7.219,10.117,22.316,5.369,31.529.962-1.099,7.703-13.844,11.724-20.464,12.045-14.512.704-24.656-12.379-22.283-26.308,1.484-8.712,8.464-8.642,9.611-11.398,1.377-3.308-1.313-4.414-4.345-4.357-13.064.247-12.853,21.225-8.89,29.949-1.542,5.641-5.798-2.893-6.681-5.369-3.392-9.522-3.263-17.729,4.029-25.094,5.963-6.023,14.887-11.305,22.998-5.934,3.363,2.227,5.194,11.274,9.615,7.558,4.061-3.413-1.835-13.329-5.871-15.302-7.908-3.865-14.807.294-22.705-.285,9.559-12.34,22.45-10.286,32.985-.505h0ZM127.49,547.001c1.747,7.559,4.14,14.888-.578,21.932-2.069,3.089-6.704,5.044-6.383,9.462,7.065,6.554,16.266-5.503,16.904-12.015.606-6.186-6.287-14.559-9.943-19.379h0Z"/>
  <path class="cls-1" d="M542.475,134.996l.01-5.991c26.179,6.41,24.19,53.284-6.417,48.902-8.775-1.256-7.41-10.201-15.493-9.81-3.963,19.889,20.664,20.172,32.895,11.904-1.703,10.799-18.711,13.673-27.809,11.319-11.714-3.031-19.186-20.643-12.191-30.829,1.263-1.839,13.72-7.932,5.509-9.48-6.915-1.304-10.048,1.435-12.383,7.606-3.414,9.023-.012,14.513.879,23.379-7.788-1.098-8.793-16.187-8.017-22.518,1.265-10.325,18.728-22.49,28.521-15.475,2.982,2.136,3.853,6.669,5.474,7.53,7.822,4.153,6.342-11.564-2.261-15.744-7.921-3.849-12.963-.631-20.269,1.165-4.681,1.15,3.768-6.96,5.207-7.803,4.998-2.93,11.016-2.742,16.249-.548,1.605.673,9.401,7.202,10.097,6.394h-.001ZM545.461,138.009l-1.98.002c3.58,6.688,3.769,15.459-.569,21.921-1.808,2.694-7.941,5.95-4.996,10.134,4.286,6.09,18.722-9.16,15.81-17.788-1.514-4.485-7.077-9.234-8.264-14.269h-.001Z"/>
  <path class="cls-1" d="M128.47,133.001l.02-6.999c24.139,7.201,25.081,48.647-2.547,50.003-11.005.54-11.32-8.56-15.124-9.86-8.57-2.929-5.078,9.099-.849,12.866,7.944,7.078,20.653,3.424,29.021-.999,1.663,3.736-5.668,8.291-8.511,9.489-9.948,4.192-20.793,3.68-28.024-4.976-5.257-6.294-8.302-17.892-2.847-24.895,1.784-2.291,6.401-3.235,7.412-5.665,2.51-6.035-9.936-6.165-14.049,3.029-3.877,8.666-.204,14.747.516,22.512.137,1.483.603,2.914-1.494,2.487-10.682-13.086-9.994-26.803,4.16-36.817,11.991-8.484,17.072-2.77,24.993,6.682l2.857-.828c1.855-4.813-1.48-12.817-5.821-15.231-7.596-4.224-15.02-.133-22.698-.292,9.724-13.01,22.011-9.81,32.985-.505h0ZM123.476,168c5.971.742,9.501-.782,12.835-5.668,7.884-11.556.611-16.382-5.335-26.326-.45,4.626,1.786,8.401,1.272,13.21-.946,8.847-9.361,10.205-8.771,18.784h-.001Z"/>
  <path class="cls-1" d="M540.475,546.996l-.521-4.999c2.176-3.653,10.583,5.233,12.038,6.992,13.845,16.744,4.798,44.304-19.066,41.063-6.447-.876-8.779-11.633-13.832-9.976-4.277,1.402-.375,10.919,2.338,13.473,9.456,8.903,18.68,1.677,27.749-.355,5.955-1.334-1.691,5.545-3.368,6.64-8.499,5.547-21.332,6.288-29.355-.31-7.446-6.123-11.114-19.661-5.008-27.787,2.562-3.409,9.828-2.398,6.453-8.757-16.473-2.675-17.65,17.731-12.81,28.941l-2.098,2.075c-6.867-8.195-9.596-20.68-2.541-29.523,5.139-6.441,14.962-13.665,23.4-9.347,3.596,1.84,6.172,8.348,7.264,8.74,7.61,2.737,5.265-7.382,2.576-11.579-6.894-10.762-26.01-2.373-27.213-3.298,5.156-8.701,13.979-12.417,23.687-8.177,1.852.809,9.216,7.38,10.308,6.182v.002ZM541.49,550.001c5.37,12.975.643,19.651-7.016,29.515,5.527,10.139,16.867-4.87,17.059-12.057.134-4.999-6.561-13.956-10.044-17.458h0Z"/>
  <path class="cls-1" d="M343.48,42.501c1.266,11.921,11.935,26.372.901,36.901-14.023,13.38-42.163-1.863-29.753-19.753,6.924-9.982,26.263-5.56,24.662,6.623-1.892,14.399-25.48,8.052-14.309-4.251l2.726,6.749c7.892,3.25,9.098-8.436,2.067-10.564-12.603-3.814-18.639,16.533-4.326,20.32,22.32,5.906,23.224-25.46,6.059-30.059-17.405-4.664-27.002,22.492-34.805,32.254-.942,1.179-1.133,2.739-3.215,2.275-1.041-1.211,3.98-17.872,3.984-21.496.012-11.022-9.046-25.165-6.299-36.318,4.817-19.56,39.579-15.161,36.08,5.075-.956,5.531-8.42,11.987-14.238,11.788-16.841-.576-11.622-24.036.455-18.524,3.681,1.68,5.36,8.275.491,9.29-9.333-12.99-14.122,5.08-1.975,5.049,15.163-.039,9.609-26.481-8.205-19.053-13.589,5.667-8.257,26.809,3.437,28.955,18.047,3.312,25.416-12.292,34.132-24.432,1.154-1.608.491-3.914,2.622-3.335,1.414.167-.49,1.273-.49,1.505,0,6.534-.664,14.745,0,21h-.001Z"/>
  <path class="cls-1" d="M338.48,865.501c.992,9.976,8.385,22.227,5.047,32.049-5.104,15.022-36.999,15.806-36.096-6.083.674-16.322,25.614-17.266,26.837-2.728,1.076,12.795-22.046,14.071-15.726-1.695l2.931-.049c.596,14.886,14.533,1.86,4.395-3.876-14.172-8.019-20.838,21.206-.242,20.302,22.34-.981,13.226-38.09-8.869-29.64-13.435,5.139-16.402,20.247-23.844,30.154-1.042,1.387-2.431,3.323-4.429,3.06-.848-.967,3.98-18.069,3.984-21.495.014-12.615-13.879-34.135-1.501-44.511,10.86-9.103,34.149-3.342,31.463,13.455-2.326,14.548-28.242,16.418-24.715-.716,2.337-11.349,16.055-6.086,14.356.296-2.021,7.589-6.526-2.354-8.949-1.943-6.983,3.419-1.85,9.989,3.858,9.976,13.908-.03,11.643-24.662-7.533-19.583-13.997,3.707-9.55,27.529,3.622,29.435,8.24,1.192,14.481-.777,20.403-6.415l15.007-21.493c.497,6.931-.678,14.68,0,21.5h.001Z"/>
  <path class="cls-1" d="M340.48,451.501c1.069,9.608,6.889,20.105,6.046,30.054-1.729,20.411-37.613,19.748-37.125-2.052.277-12.388,18.463-18.759,25.532-7.456,5.281,8.444-3.362,17.645-10.806,13.829-4.574-2.344-7.387-8.849-1.162-10.87,1.809.414,1.198,7.17,4.838,6.843,8.542-.767,3.444-15.565-7.902-10.92-4.265,1.746-6.045,7.893-4.97,12.088,3.798,14.831,35.501,8.664,23.949-13.916-9.573-18.712-27.415-4.388-35.202,7.598-2.919,4.493-6.089,13.079-9.195,16.805-.88,1.056-1.465,1.811-2.997,1.493-.086-9.123,3.878-15.99,2.983-25.487-1.132-12.01-11.069-26.491-3.22-38.24,5.686-8.511,23.776-8.606,30.245-.781,9.113,11.023-2.563,27.768-15.59,22.585-10.104-4.02-6.91-18.653,2.057-18.133,9.028.523,6.98,11.02,3.047,10.055l-3.535-4.558c-9.328-1.101-5.478,9.596,2.506,9.621,10.73.034,12.579-18.757-2.006-20.061-20.06-1.794-17.432,26.741-3.783,29.795,19.383,4.336,27.281-14.394,36.284-27.301,2.495-1.333.006,2.819.006,3.011,0,4.983-.528,11.249,0,16v-.002Z"/>
  <path class="cls-1" d="M500.48,325.501c.129-.61,1.858-3.041,2.471-3.529,2.491-1.984,14.059-2.809,17.988-3.012,5.196-.269,20.507-.864,24.07,2.01,1.344,1.084,3.439,4.132,1.499,5.533-3.541,3.237-14.559-.303-19.486-.543-2.718-.132-18.31-.326-19.33.265-2.259,1.31-5.276,8.522-.512,9.568l37.781-1.763c7.518,1.497,3.797,16.836,1.378,21.831l-39.188-1.899c-1.607,1.347-2.273,4.027-.702,5.553.798.775,8.478,2.487,9.531,2.487h30.5c.309,7.599,5.175,25.332-4.988,26.999l-2.577-7.975c-5.402.17-3.335,6.985-8.096,7.791-3.844-.089-3.385-9.33-10.304-6.779l-1.088,6.915c-7.301,1.909-4.614-12.459-13.043-6.541l-2.39,5.58c-3.743-2.815-4.049-7.034-3.373-11.357.719-2.112,5.254-2.503,7.32-2.673,5.822-.479,29.371,1.336,32.077-.953,3.478-2.943-.43-5.622-4.022-6.007-11.457-1.226-23.035,2.974-34.297-.209-2.206-1.575-2.344-22.235,5.267-19.887,8.968.148,21.386,3.195,29.889,2.746,4.307-.227,3.266-6.717.959-7.485-12.11-4.029-25.319,2.984-37.334-.166.685-4.839-.944-12.036,0-16.5h0Z"/>
  <path class="cls-1" d="M84.48,760.501c.104-.497,1.537-2.718,2.001-2.999,11.656-1.637,23.605,1.951,35.357,1.354,7.509-9.469-12.191-8.227-17.846-7.842-13.616.926-23.074,8.318-20.537-12.536,1.049-8.623,6.999-8.982,14.484-9.516,5.841-.417,22.78-.859,27.826.253,3.232.713,6.581,4.179,3.729,7.303-2.52,2.761-11.627-.391-15.474-.558-5.111-.222-16.551-.768-21.015.067-4.999.934-7.808,10.053-.043,9.984,6.616-.059,15.274-1.844,21.975-2.051,2.917-.09,13.854-.474,15.553.53,3.67,2.169,2.051,16.808-.479,20.544-3.776,3.86-33.604-4.768-40.4-.907l.774,5.474,2.622,1.372,37.472,1.028v23.5c0,2.942-3.729,2.812-5.995,2.498-1.88-14.346-4.595-3.665-7.492-.991-4.812,4.442-5.849-3.515-7.491-4.524-6.802-4.18-5.673,7.37-9.506,6.514-2.402-.536-1.47-8.06-7.015-8.088-4.171-.021-3.605,2.725-3.505,6.1l-3.857-.148c-1.159-4.063-4.145-9.585.526-12.695l35.191.167c3.042-.129,3.026-3.215,3.211-5.755-.424-3.06-33.272-.791-37.567-1.577-1.12-.205-1.871-.508-2.501-1.499.622-4.433-.855-10.909,0-15l.002-.002Z"/>
  <path class="cls-1" d="M86.48,322.501c.298-1.387,2.456-3.576,3.936-4.064,5.298-1.745,35.182-2.502,39.663-.535,4.409,1.936,4.09,6.54-.558,7.671-2.706.658-9.144-1.494-12.5-1.613-5.399-.191-17.353-.829-22.02.061-3.157.602-4.897,4.375-4.441,7.345.54,1.667,1.996,1.522,3.373,1.683,11.459,1.34,26.458-3.063,37.022-1.021,6.645,1.284,4.169,20.439-.162,21.779-7.301,1.306-32.242-5.379-37.319-2.32-1.809,1.091-2.324,4.752-.748,6.27,2.581,2.487,23.945.86,29.297,1.203,3.484.223,6.834,1.605,10.453,1.047.583,6.119,1.558,12.334,1.045,18.532-.248,2.995-1.523,10.406-6.118,7.038-1.717-1.259.221-6.62-3.43-6.62-3.785.009-3.738,6.762-5.126,7.1-6.651,1.512-4.546-6.459-10.76-6.98l-4.12,7.919c-5.931-2.12-2.586-10.409-11.347-7.855l-1.144,5.865c-5.851.699-5.795-7.978-4.412-12.118,3.481-2.476,29.604.133,36.694-1.157,4.3-.783,2.483-2.924,2.724-6.73h-37.5c-4.066-2.268-2.738-18.025-.558-19.558,4.003-.703,8.528-.62,12.599-.484,5.532.185,17.341,2.932,21.955,2.05,2.925-.559,3.142-3.866,2.546-6.345-.56-2.328-15.645-1.867-18.584-1.705-6.491.357-15.303,4.394-20.458-.458.675-4.684-.925-11.695,0-16h-.002Z"/>
  <path class="cls-1" d="M536.98,786.001c1.877-.565,2.486-4.951-.18-5.82-6.513-2.124-36.435-.035-37.883-2.116-.606-3.238-1.089-15.945.796-17.832,3.128-3.132,29.295,1.6,35.073,1.614,2.77-.641,3.851-5.942,1.752-7.407l-36.393.396c-4.067-1.368-5.448-20.728,5.072-22.598,6.766-1.202,21.908-1.827,28.8-1.272,4.605.371,11.749,1.141,10.544,7.4-.736,3.824-15.724-.183-18.596-.349-3.844-.222-17.885-.653-20.467.502-3.006,1.345-5.379,7.966-1.35,9.321,9.631-.412,19.226-.579,28.875-.798,5.293-.12,10.917-3.972,13.39,3.546,1.85,5.624-.873,11.8-2.031,17.311l-38.445-2.494c-6.152,3.924-.06,8.596,5.044,8.596h32l1.5,1.5v15c0,.304.849,1.049.835,1.957-.049,3.218-.846,7.705-4.495,8.417-3.44.257-1.543-7.431-4.823-7.671-4.175-.306-3.111,7.173-7.167,7.494-5.127.406-2.687-9.161-11.349-6.702,1.045,4.019-1.191,10.143-5.049,5.555-2.301-2.736-.727-7.55-7.325-6.482l-4.115,6.925c-3.068-3.491-4.617-8.603-2.367-12.853,2.017.609,5.352-1.14,6.355-1.14h32-.001Z"/>
  <path class="cls-1" d="M222.731,462.234c-.503.461-.604,1.681-1.172,2.284,5.942,5.375,13.889-.6,19.937,6.249,3.162,3.582,6.366,18.164,1.996,20.745-1.393.823-12.382.822-14.464.441-9.6-1.759-7.833-13.112-10.257-18.732-.443-1.026-.242-1.519-1.786-1.297-6.227.214-5,13.546-9.495,18.586-5.136,5.759-20.849,7.622-22.073-1.967-1.024-8.021,3.135-15.446,10.541-18.564,2.356-.992,13.551-2.683,13.532-3.488-.094-3.819-7.037-3.249-9.737-4.263-5.206-1.956-10.275-5.237-12.47-10.53-4.637-11.182-1.833-14.398,9.679-14.758,11.361-.355,13.463,10.113,14.527,19.417.218,1.514,3.679.931,4.832-1.015,2.427-4.097,1.593-14.807,6.195-18.805,2.746-2.386,15.133-4.438,17.975-2.04,1.526,1.288,1.485,17.235.472,19.487-2.294,5.101-15.114,5.388-18.233,8.249h0ZM237.332,438.159c-7.209-3.286-16.987,5.175-15.847,12.838,1.555,1.782,9.128-9.635,12.474-8.998,5.114.973-5.421,10.553-5.459,11.504,1.479,2.373,2.848.648,4.471-.513,5.906-4.226,5.442-8.301,4.361-14.831h0ZM196.158,440.326c-10.607.16-7.474,11.671-.632,16.13,1.424.928,9.844,4.467,6.959.046-1.42-2.176-9.022-7.904-8.98-10.006.119-6,10.442,6.384,11.494,6.277l2.056-2.814c-2.053-4.807-4.863-9.724-10.897-9.633ZM223.485,477.006c-1.609,12.953,22.684,18.217,17.787,1.697-.463-1.56-4.52-5.052-6.088-5.906-1.064-.58-9.143-3.808-7.695-.31.915,2.243,12.553,9.042,9.986,11.508-5.953.937-7.965-7.301-13.99-6.99h0ZM204.48,473.011c-9.23-1.466-16.155,8.31-14.861,16.846,8.422,2.575,19.046-1.911,18.856-11.852-1.142-1.328-11.349,10.476-14.99,7.99-2.799-2.698,10.521-10.159,10.995-12.985h0Z"/>
  <path class="cls-1" d="M654.19,457.72c-3.229,3.732-19.265,4.7-17.704,9.77.875,2.841,13.522-.506,19.002,6.004,2.896,3.44,4.824,12.652,3.967,16.986-1.188,6.012-14.54,5.361-18.893,2.94-7.604-4.229-5.101-12.111-7.801-18.187-.447-1.005-.174-1.542-1.777-1.306-6.105.211-4.957,11.175-7.305,15.773-4.279,8.378-22.408,12.413-24.133,1.739-1.172-7.253,2.672-15.27,9.236-18.637,2.946-1.511,13.401-2.231,13.752-3.368.176-.57.111-2.781-.197-3.294-9.07-1.576-18.12-3.347-21.347-13.149-4.163-12.645.902-14.207,13.001-13.444,10.877.686,10.522,19.932,13.062,20.424,1.214-.215,2.811-.56,3.432-1.719,2.573-4.805.376-14.536,6.474-19.274,3.296-2.561,17.204-5.062,18.376-1.331,1.327,4.223,1.915,16.537-1.144,20.072h-.001ZM642.48,456.991c7.556-.653,13.523-10.967,7.366-16.85-6.715-2.322-16.702,6.807-13.871,13.855,3.367-2.123,7.058-7.043,10.192-8.815,1.074-.607,2.881-1.788,3.312.337.593,2.921-6.334,8.318-6.999,11.472h0ZM608.485,447.006c3.891-.739,8.069,8.516,10.479,7.991,4.105-.895-.153-10.108-5.455-11.517-18.138-4.819-9.286,19.677,3.966,17.516,1.982-1.722-11.637-10.066-8.99-13.99ZM654.313,490.828c3.69-5.355,1.362-11.91-4.124-15.035-1.888-1.076-10.449-4.448-7.713-.291,1.601,2.432,11.626,8.741,8.999,11.495-2.043,2.142-10.179-7.299-12.515-7.98-1.765-.235-1.507-.052-1.516,1.502-.048,8.798,9.365,11.835,16.868,10.31h.001ZM618.48,475.011c-13.488-1.519-24.319,24.216-3.763,16.727,4.583-1.67,7.486-5.838,7.758-10.732-1.389-1.428-9.555,6.915-11.931,7.579-1.819.509-1.879.359-3.067-1.105-.614-3.195,9.748-8.906,11.002-12.469h.001Z"/>
  <path class="cls-1" d="M638.484,55.986c4.696,1.902,9.886.088,14.57,1.941,8.99,3.556,10.085,15.729,7.486,23.634-8.029,1.958-18.982,2.887-22.797-6.323-1.34-3.235-1.296-13.29-4.763-13.289-4.976,0-4.882,16.243-10.522,20.529-1.946,1.479-9.176,3.382-11.593,3.428-14.568.274-10.641-23.223,4.352-26.668,3.348-.769,9.061.968,10.26-3.725-3.163-3.237-7.681-2.276-11.993-4.017-9.4-3.796-12.36-12.854-10.894-22.39,17.567-5.224,23.641,1.134,25.888,18.252,3.645,6.531,7.06-14.075,7.528-15.334,2.107-5.676,5.158-7.209,11.084-7.912,5.986-.711,10.62-1.571,11.409,5.37.898,7.902,1.526,14.255-5.81,18.225-2.906,1.573-16.915,4.154-14.204,8.277v.002ZM653.238,28.215c-3.673-3.936-17.238,6.205-15.75,12.26l1.993,1.036c1.394-1.273,10.334-11.33,11.995-9.506,1.667,5.262-5.393,8.069-6.011,11.484-.601,3.322,3.371.371,4.5-.505,4.009-3.11,6.883-10.903,3.274-14.77h0ZM618.784,41.676c4.771,4.08,5.489-1.27,2.525-6.004-3.587-5.729-8.613-5.915-14.58-3.422-3.775,8.378,4.41,16.767,12.747,16.746.149-5.4-7.368-6.53-8.584-10.926-2.407-8.706,7.362,3.153,7.892,3.607h0ZM655.14,65.341c-1.951-1.933-9.486-6.121-11.64-2.84.048,1.616,9.367,7.254,10.5,9.485.691,1.361.049,2.8-1.041,3.018-2.769.555-11.355-10.143-13.474-7.998-.452,8.068,9.389,14.485,16.77,11.326,4.371-1.871,1.691-10.211-1.115-12.992h0ZM620.475,63.006c-8.855-.297-15.333,8.474-14.908,16.894,8.912,2.765,18.236-1.093,19.908-10.894-2.155-2.018-11.327,9.209-14.99,7.99-1.108-7.147,8.712-8.118,9.99-13.99Z"/>
  <path class="cls-1" d="M598.742,907.746c-3.41-3.626-1.096-14.874,2.3-18.683,5.741-6.441,9.705-4.971,16.706-6.336,1.417-.276,3.067-.325,2.764-2.245-.685-4.328-7.076-3.056-10.064-3.949-10.318-3.083-14.084-13.39-12.855-23.424,1.141-1.342,15.643-1.596,17.872-.593,4.613,2.077,6.461,13.037,7.745,17.303.409,1.359-.339,2.603,1.785,2.206,5.385-.736,3.787-16.149,8.793-20.714,2.76-2.516,14.604-4.647,17.705-2.822,3.038,1.788,2.554,16.947.876,19.898-3.07,5.398-12.891,5.222-17.191,7.809-8.356,5.028,10.771,5.294,13.322,6.285,8.605,3.343,9.079,14.781,7.493,22.53-7.529,4.125-19.644,3.222-23.212-5.811-1.15-2.911-2.19-19.505-7.743-11.142-3.374,5.081-1.188,13.617-7.619,18.38-4.24,3.14-14.803,5.426-18.675,1.308h-.002ZM648.342,852.142c-8.038-1.426-16.01,5.793-15.852,13.859,5.319-1.961,7.903-8.825,13.985-8.995,1.212,4.608-4.689,7.169-5.983,10.512-.946,2.442,2.176,1.448,3.535.529,5.42-3.668,6.991-9.987,4.316-15.904h0ZM605.485,860.006c5.414-2.157,7.817,8.045,11.482,6.988,4.045-1.167-1.472-9.497-4.115-10.865-3.244-1.679-8.484-1.942-11.412.537-1.747,9.732,3.502,15.718,13.035,16.329,2.554-2.383-10.801-8.926-8.99-12.989h0ZM634.485,891.006c-.013,7.981,7.689,13.461,15.469,11.963,5.651-1.087,3.852-9.569.948-12.89-1.607-1.838-12.526-7.116-12.402-3.578.993,2.44,13.491,9.989,10.975,12.495-3.832,1.673-12.941-10.104-14.99-7.99ZM615.475,887.006c-8.353.031-16.925,9.206-13.59,17.063,9.039,3.512,16.718-2.145,18.59-11.063-3.783-.606-12.265,10.111-14.995,7.994-4.363-3.384,10.495-9.715,9.995-13.994Z"/>
  <path class="cls-1" d="M243.231,22.248c2.165,1.864,1.624,16.221.121,19.125-3.316,6.408-17.76,7.181-18.722,8.772-.31.513-.365,2.813-.185,3.337.527,1.536,11.177,1.315,13.31,1.744,9.62,1.935,11.597,15.592,8.822,23.372-7.295,2.768-18.162,3.146-22.298-4.896-1.246-2.423-3.445-20.819-8.632-12.033-3.156,5.347-.321,13.541-8.216,18.782-4.651,3.087-17.635,4.783-18.93-1.971-2.447-12.77,3.733-19.628,15.563-22.395,2.44-.571,8.399,1.293,7.425-3.569-14.521-2.556-25.902-8.613-22.576-25.582,19.866-6.109,20.165.188,25.312,15.871.436,1.329-.408,2.624,1.77,2.221,5.792-.79,2.85-16.296,9.983-21.027,2.901-1.925,14.648-3.994,17.253-1.75h0ZM237.133,39.651c2.954-2.863,3.954-6.069,3.393-10.196-1.502-11.045-18.814,1.426-17.041,9.541,2.73,2.667,10.045-10.543,13.99-8.99,2.703,2.813-7.809,9.951-5.501,12.989,1.433-1.416,3.764-1.992,5.159-3.344ZM196.485,33.006c5.214-1.682,7.32,8.061,11.477,6.994,3.597-.924-1.312-8.928-3.747-10.234-6.632-3.556-14.552-1.454-12.282,7.255,1.507,5.782,8.057,9.011,13.541,9.976,2.609-2.823-10.521-9.997-8.989-13.991h0ZM243.23,75.757c6.357-5.5-5.995-19.563-13.75-16.746l10.995,12.474c-1.463,1.89-1.155,1.226-2.661.706-4.482-1.551-6.664-6.066-10.841-8.166-3.611,2.79,1.405,9.142,4.157,10.825,2.844,1.739,9.437,3.209,12.099.906h.001ZM206.475,61.006c-8.515-1.166-16.73,8.597-14.011,16.518,8.646,3.438,17.936-2.054,19.01-11.519-1.828-1.934-11.272,10.116-14.99,7.99-2.669-4.06,12.015-11.279,9.99-12.989h.001Z"/>
  <path class="cls-1" d="M238.338,846.14c1.321,8.248,4.365,19.217-4.63,23.589-2.584,1.256-17.047,3.947-14.224,8.257,6.678,2.304,13.485-1.07,18.998,4.513,5.118,5.183,4.419,13.876,3.562,20.565-1.365,1.961-15.91,1.201-18.738-.389-7.136-4.012-4.725-18.71-9.316-18.731-4.696-.022-5.332,15.894-10.266,20.08-5.442,4.618-20.608,5.497-20.89-4.327-.219-7.646,3.775-14.924,10.949-17.892,3.999-1.654,13.618-.733,12.705-5.289-14.523-2.557-25.9-8.612-22.577-25.583,4.608-1.51,14.495-3.452,18.515-.378,3.189,2.439,6.445,14.173,7.148,18.346l3.291.148c4.433-16.389,4.698-26.01,25.472-22.907v-.002ZM226.485,866.996c10.289-1.344,14.615-21.616.275-16.21-4.528,1.707-8.294,7.325-8.276,12.209,2.572,2.472,9.972-9.974,13.99-8.99,1.364,6.208-6.014,7.617-5.989,12.99h0ZM201.167,855.308c-2.336-2.592-10.975-3.549-13.209-1.334-4.878,7.1,3.995,16.174,11.055,17.011,1.475.175,1.776.101,1.484-1.496-.659-3.594-7.887-6.965-9.012-10.973.317-1.61,1.45-1.226,2.667-.706,3.384,1.446,5.197,6.077,8.813,7.186,3.254-.693-.56-8.316-1.798-9.688ZM238.242,899.764c5.993-6.008-5.323-18.329-12.757-16.758-2.92,2.825,11.821,9.449,9.99,13.99-5.517-.01-8.879-7.384-13.494-8.01-1.677-.227-1.607-.02-1.533,1.529.347,7.332,12.711,14.344,17.795,9.248h-.001ZM201.48,885.011c-13.448-1.394-23.555,24.501-2.982,16.509,4.032-1.566,7.934-7.082,7.972-11.519-4.056,1.364-6.88,5.218-10.299,7.189-1.182.682-4.169,2.731-4.69.293-.876-4.1,9.116-8.584,9.999-12.473h0Z"/>
  <path class="cls-1" d="M394.787,375.714c-.786-.921-1.164-2.012-1.235-3.216,1.126-6.117,16.16-15.409,16.676-20.131.944-8.632-21.981-14.384-18.255-22.345.375-.802,7.288-7.572,8.495-8.532,9.361-7.447,19.173-6.949,30-2.976,2.478.909,14.95,7.394,16.093,8.912,5.884,7.812-21.229,19.061-14.09,27.091,2.769,3.115,19.674,7.682,19.06,13.934-.397,4.036-22.789,20.024-27.709,20.265-3.281.161-26.912-10.512-29.035-13.001h0ZM415.219,320.226c-4.69.808-11.843,6.318-11.853,11.275-.011,5.857,11.284,13.241,16.651,13.541,5.255.294,20.825-8.89,18.742-13.74-2.227-5.185-17.893-12.048-23.54-11.075h0ZM419.216,357.23c-4.677.813-16.246,10.427-15.766,15.236.402,4.028,16.849,9.729,20.476,9.492,2.164-.141,16.264-9.407,17.107-10.949,1.833-3.356-5.101-7.818-7.634-9.426-4.385-2.785-8.832-5.282-14.183-4.353Z"/>
  <path class="cls-1" d="M444.212,739.255c.509.519,1.056,1.765,1.109,2.467.463,6.031-17.513,15.379-16.867,21.74.67,6.604,24.764,9.682,19.092,20.114-9.998,6.879-19.222,19.799-32.614,15.463-4.421-1.432-22.885-9.415-23.491-13.592-.396-6.628,15.234-14.917,16.054-19.995,1.561-9.665-15.925-12.642-18.883-21.139,12.227-18.001,25.98-20.628,45.249-11.194,1.223.599,9.929,5.706,10.351,6.135h0ZM412.205,732.232c-6.44,1.344-15.121,9.562-9.741,16.29,3.896,4.872,12.976,9.563,19.291,8.247,4.026-.839,15.67-9.498,14.33-13.792-.829-2.657-13.712-9.757-16.574-10.5-2.515-.653-4.752-.778-7.307-.245h.001ZM417.235,769.222c-6.592.968-15.726,9.38-16.669,16.121,1.008,3.348,18.346,9.269,22.177,8.491,3.127-.635,16.116-9.818,15.788-13.278-2.961-5.544-15.269-12.218-21.295-11.334h0Z"/>
  <path class="cls-1" d="M328.475,537.006c.333,5.427-9.045,7.451-7.997,12.475.354,1.698,1.463,1.181,2.655.693,4.114-1.683,7.53-7.076,10.997-8.046,1.986-.556,2.284,2.634,1.942,3.899-1.986,7.352-18.675,9.496-15.586,19.969,1.708,1.767,11.835-8.248,13.509-9.986,2.508-1.045,1.536,5.433,1.282,6.288-1.22,4.102-13.254,9.817-15.778,14.203l3.024,2.069,12.469-9.559c4.437,10.14-8.28,12.402-13.865,18.135-1.979,2.032-2.647,5.352,1.021,4.047,4.898-1.743,8.315-6.798,13.327-8.187,3.975,9.412-11.53,7.752-8.328,15.024,3.196.68,8.098,1.807,7.331,5.966-5.138,2.456-13.265-3.891-16.324-3.747-4.021.188-11.072,7.481-17.016,5.64l-1.652-2.374,7.973-5.073c-1.832-7.166-12.485-7.074-7.967-16.437,2.167-1.527,7.527,8.384,9.992,9.497,1.995.9,4.043.423,4.016-1.977-.079-7.238-19.964-12.987-14.008-22.522l13.527,12.977c5.294-1.284.445-6.158-1.515-8.504-4.168-4.989-14.834-10.082-12.892-16.841l1.904-1.202,13.464,12.546c1.392-.989,1.606-1.834,1.588-3.496-.067-6.315-18.015-13.902-18.072-21.927l2.332-1.435c3.884.331,13.238,15.134,16.647,11.873,1.402-3.284-8.817-11.322-6.99-12.989,3.959-1.602,6.051,4.031,8.495,4.03,2.7,0,5.639-7.258,10.496-5.03h0Z"/>
  <path class="cls-1" d="M330.475,125.006c.308,5.989-9.656,7.614-6.988,13.99,6.303-.634,8.288-9.355,14.988-8.99,1.906,11.836-18.579,11.7-14.987,23.99,2.608,1.878,14.366-13.958,14.996-9.493,3.448,8.697-17.208,15.409-16.003,20.98,1.364,1.808,1.201,1.243,2.762.807,3.607-1.007,8.537-6.819,11.737-9.27,8.275,9.283-15.619,15.181-15.475,20.486.169,6.257,15.664-7.978,16.97-6.501.946,7.658-2.228,6.299-6.335,9.157-8.928,6.212,2.071,5.026,5.321,10.338-4.984,5.262-12.94-2.715-17.231-2.32-4.371.403-11.54,7.672-17.745,5.814-1.208-5.965,4.814-5.223,7.977-8.495-4.281-5.353-11.543-7.662-8.976-15.495,2.047-2.452,11.277,14.462,14.998,8.474.846-4.27-13.332-13.057-14.512-15.469-1.114-2.276-.281-5.52-.485-8.004,1.932-2.181,11.373,13.169,14.501,12.97.907-.786,1.457-1.095,1.479-2.429.09-5.33-17.172-15.918-16.969-20.927.05-1.233.998-2.358.994-3.615l15.489,12.976c.961-.78,1.414-1.162,1.544-2.482.812-8.264-20.965-14.48-18.038-24.494,2.759-2.863,13.053,14.075,17.99,11.99,1.483-3.385-7.841-11.207-5.99-12.99,3.605-1.766,6.451,4.256,8.359,3.924,1.846-.321,4.961-7.166,9.631-4.924l-.002.002Z"/>
  <path class="cls-1" d="M332.189,284.719c-3.889,3.532-7.728-4.542-10.354-6.573-6.323-4.89-16.05-4.046-21.786-12.214-6.992-9.955-1.969-25.976,10.922-26.02,4.989-.017,14.298,4.304,16.796,3.914,2.928-.458,4.932-4.242,7.361-5.678,15.569-9.2,35.998,14.625,17.266,30.267-4.349,3.631-10.446,5.449-14.415,8.585-3.002,2.372-3.994,6.085-5.791,7.717v.002ZM337.475,265.996c-4.835,1.028-4.27-5.516-8.477-5.069-2.749.292-5.297,8.879-10.05,5.098-2.055-2.977,10.655-15.563,1.587-18.57-8.738-2.897-19.585,5.218-15.317,14.315,2.517,5.364,21.013,11.761,26.546,11.028,5.103-.676,19.846-13.72,19.673-19.194-.402-12.683-22.144-11.124-18.71,1.654.943,3.51,6.383,5.792,4.748,10.738h0Z"/>
  <path class="cls-1" d="M323.833,695.643c-1.717-1.553-2.392-3.542-5.033-5.464-7.179-5.224-15.637-4.045-21.752-13.246-5.932-8.925-1.313-23.334,10.006-24.889,5.372-.738,15.006,4.288,17.887,3.992,2.224-.229,5.921-4.731,8.18-5.887,13.977-7.155,29.623,8.984,22.916,22.91-4.909,10.194-15.461,10.782-21.463,16.538-3.699,3.548-4.551,11.645-10.742,6.047h.001ZM322.187,677.689c-2.085,1.736-5.47,2.06-5.756-1.198-.38-4.332,8.191-9.39,4.121-15.065-4.939-6.886-20.585.587-18.916,9.839,1.273,7.056,20.038,13.938,26.272,13.662,4.697-.209,17.389-10.478,19.624-14.371,5.198-9.052-5.15-17.711-14.014-12.016-10.753,6.909,5.463,16.098,1.956,19.456-3.019,2.891-5.674-5.022-8.495-5.022-2.765,0-3.481,3.623-4.794,4.715h.002Z"/>
  <path class="cls-1" d="M435.842,548.63c2.928,1.965,5.986,2.641,8.549,4.858-4.005,4.755-.734,8.213.952,12.882l-8.732,7.335c-1.149,4.005,4.026,7.636,5.69,10.806-4.034,4.464-8.331,6.453-6.828,13.486-5.166-1.833-9.016-1.165-13.51,1.773-2.31-.197-5.605-10.019-8.52-11.306-3.422-1.51-6.978,2.837-10.221,2.37-1.079-.155-9.531-5.045-10.213-5.861-1.824-2.182-3.38-12.182-1.506-14.458,5.667-6.882,13.113-2.659,2.122-15.835,4.118-5.223,7.951-7.716,6.861-15.674,2.589-.218,2.944,2.577,5.543,3.009,4.062.675,7.668-3.301,10.47-1.556,2.443,1.521,2.04,9.362,5.683,10.412,4.296,1.239,5.826-4.73,9.789-5.534,2.374.009,2.893,2.637,3.871,3.293h0ZM415.231,551.258c-3.698-3.547-14.155.239-12.361,5.772,1.106,3.41,7.407,6.429,3.676,11.543-3.964,5.434-17.401,6.198-2.528,17.454,4.622.47,7.868-6.899,12.796-5.932,3.111.989,2.233,10.72,8.926,9.73,1.8-.266,7.182-3.647,7.532-5.458.182-4.554-7.016-9.523-5.691-13.697,1.082-3.408,12.268-2.304,9.692-10.956-.704-2.365-4.983-4.662-7.324-4.612-3.316.072-7.184,5.612-9.833,4.845-2.688-1.493-3.262-7.132-4.885-8.689h0Z"/>
  <path class="cls-1" d="M419.35,128.134l3.048,9.197c4.688,5.62,10.208-4.649,12.446-4.259,3.461,3.486,6.477,6.284,11.611,6.965-2.626,6.559-1.191,8.047.889,14.252l-8.743,7.407,5.809,10.665c-3,3.892-9.14,6.849-5.93,12.629-5.691-.756-10.042.745-15.366,2.089-4.873-10.68-6.176-13.312-17.908-8.23l-10.586-6.488-1.989-11.656,9.774-8.308-5.906-9.924c4.095-5.698,7.573-7.314,5.987-15.469,3.035.011,4.284,2.9,7.498,3.089,3.552.21,5.86-2.785,9.367-1.961v.002ZM438.2,145.28c-6.761-6.791-12.477,3.797-16.102,2.666-3.943-5.098-2.484-11.174-11.048-9.899-12.736,1.895.108,13.081-.707,16.245-4.041,6.71-14.705,6.202-8.31,15.665,5.748,8.506,9.849.528,15.959-2.702,4.477,2.193,3.896,11.419,10.262,10.086,16.222-3.395.535-13.408,1.368-17.71,3.546-4.604,16.163-6.732,8.578-14.35h0Z"/>
  <path class="cls-1" d="M.48,20.001c1.464-.224,1.389,1.756,1.689,2.801,1.02,3.555.301,14.615,4.776,13.166,5.1-8.286.291-20.285,14.193-20.588,9.723-.212,15.868,11.359,15.438,20.136-.171,3.489-3.106,6.177-6.136,7.945-5.63,3.285-13.757.274-11.953,10.537,28.12-8.158,20.793,37.059-2.714,27.209-7.34-3.075-7.452-10.21-7.297-17.208-1.782-.122-3.897-.14-5.094,1.405-1.817,2.344-.095,7.807-2.902,9.598v-19c3.469.558,4.061,2.612,8.006,1.562,12.532-3.336,3.22-20.879-8.006-15.562v-22h0ZM22.246,25.197c-9.667,1.381-7.973,15.274-2.229,15.835,8.985.878,15.306-17.703,2.229-15.835ZM27.192,71.701c9.432-7.621-5.82-19.694-12.594-8.085-4.882,8.366,7.263,12.393,12.594,8.085Z"/>
  <path class="cls-1" d="M652.127,752.351c2.319,2.483,4.674,8.684,4.342,12.064-.375,3.824-6.555,9.589-10.469,9.62-11.505.092-12.467-18.541-.524-14.024,1.321,1.812-6.159,5.423-2.533,8.048,5.723,4.142,11.556-10.521,3.846-12.86-11.175-3.391-18.693,9.578-11.162,19.156,6.934,8.82,20.031,1.784,20.848,2.649l-1.001,12c-4.636-.922-8.166-3.654-13.142-3.423-9.914.46-23.025,13.584-31.856-.076-7.35-11.369,5.668-25.492,13.941-15.942,6.686,7.718-4.422,15.398-6.926,9.923-1.016-2.222,4.466-1.355,4.945-4.089.486-2.777-6.086-5.681-8.212-1.161-5.566,11.833,17.095,18.243,16.317.249-.24-5.56-5.945-13.965-11.66-14.473-2.943-.262-6.139,1.856-9.258.85l-.028-7.743c4.375-1.121,8.918,1.574,13.039,1.321,10.145-.621,19.772-12.497,29.494-2.09h-.001Z"/>
  <path class="cls-1" d="M15.485,465.996c15.744-4.357,23.301,6.756,16.509,21.02-5.166,10.849-22.698,9.377-25.085-.944-1.201-5.192,1.814-12.751-6.42-9.071v-7.999c15.156,3.749,15.198-15.674.091-16.098l-.091-5.902,4.908.921c2.542-12.212,1.966-23.376,18.37-19.71,7.495,1.675,12.321,17.093,8.765,23.341-4.732,8.316-17.396,2.204-17.048,14.443h0ZM26.223,438.246c-8.574-2.969-13.785-.408-12.767,9.266,1.428,13.579,18.543-.66,12.767-9.266ZM12.735,474.25c-4.18,4.342-.081,11.217,6.245,11.232,11.147.026,11.272-16.53.249-14.298-.717.145-6.136,2.695-6.493,3.066h0Z"/>
  <path class="cls-1" d="M225.21,746.238c9.534-1.867,18.825,6.909,17.287,16.214-.916,5.541-10.65,11.309-16.028,8.057-5.566-3.366-3.21-19.653,5.013-11.979l-3.978,5.977c7.235,5.701,12.575-6.195,5.954-10.978-9.548-6.897-21.992,10.21-10.008,20.002,7.867,6.429,15.54.028,18.089,1.888,1.879,1.372.539,8.793-.553,10.589-1.032,1.697-1.256.451-2.149.162-3.476-1.125-6.999-3.333-10.821-3.218-8.945.269-16.73,11.051-27.866,3.879-12.656-8.15-2.241-29.821,9.286-20.285,9.551,7.901-4.744,16.507-5.95,10.939l4.985-4.004-.987-2.979c-6.914-6.734-13.432,10.684-1.43,12.459,16.469,2.436,11.862-23.776-1.06-24.996-3.69-.348-10.028,2.737-10.536-2.507-.865-8.943,9.422-3.178,14.375-3.524,5.421-.379,11.471-4.737,16.378-5.698v.002Z"/>
  <path class="cls-1" d="M244.199,352.751c-.17.407-5.821,5.859-6.425,6.037-11.514,3.4-17.394-11.335-6.994-14.675l2.648,2.51c.233,1.362-6.001,5.871-1.328,7.3,7.332,2.242,10.608-13.599-.148-13.99-12.208-.444-14.604,17.843-3.864,22.954,6.682,3.18,9.636.334,16.391.111v11.008c-5.41.623-8.985-3.469-14.489-3.07-8.771.636-16.941,11.18-27.549,3.604-11.151-7.965-4.178-27.767,7.952-20.951,11.393,6.402-2.443,18.57-3.909,11.898-.547-2.491,6.481-2.777,3.07-7.061-3.07-3.856-9.364,1.059-7.666,6.611,3.481,11.378,22.385,6.781,15.637-10.588-3.727-9.594-11.188-8.842-20.052-8.442-.953-12.907,6.504-5.569,13.473-5.957,10.375-.577,20.362-12.986,30.053-1.068,2.812,3.458,5.01,9.439,3.198,13.771l.002-.002Z"/>
  <path class="cls-1" d="M644.482,355.993c2.827,3.906,14.312-5.567,5.521-12.008-9.402-6.889-20.811,8.764-11.072,19.064,7.451,7.88,18.547.905,19.543,1.955-.256,2.215.981,11.743-1.481,11.952-3.208-1.093-8.706-4.049-11.928-3.905-7.159.321-13.411,7.12-23.112,5.974-15.065-1.781-13.526-26.767-.682-24.351,10.473,1.97,9.384,15.694-.266,14.336l-.541-2.511,3.921-1.592c3.575-5.174-10.732-10.546-7.693,3.373,1.912,8.759,16.619,7.198,16.605-4.78-.006-5.405-5.735-14.817-11.41-15.488-4.507-.534-10.911,4.305-10.492-3.518.348-6.479,10.192-1.934,15.502-2.58,9.651-1.175,16.779-11.025,26.612-2.442,2.676,2.336,4.44,5.561,4.883,9.117,1.034,8.295-6.778,15.811-14.866,11.858-7.75-3.787-3.629-19.91,4.937-10.947-1.221,1.205-5.349,4.6-3.98,6.492h-.001Z"/>
  <path class="cls-1" d="M13.485,877.996c13.549-3.323,20.28,3.575,17.763,17.273-1.855,10.097-13.972,14.379-22.481,8.944-6.54-4.177-3.226-9.267-5.495-14.541-.798-1.855-4.761-2.205-2.669-7.559,5.347-.883,9.862-3.206,8.686-9.359-1.378-7.213-7.974-5.602-8.836-9.287-.958-4.098,1.987-3.166,3.142-5.835,1.869-4.318.533-15.132,6.824-17.194,13.221-4.333,23.363,9.206,21.036,21.04-2.117,10.763-20.388,3.717-17.97,16.515v.003ZM17.247,849.185c-9.51,1.124-7.872,15.06-2.212,15.844,8.965,1.241,15.239-17.384,2.212-15.844ZM17.243,883.202c-14.989,2.088-6.771,21.446,4.762,12.824,5.767-4.312,3.06-13.914-4.762-12.824Z"/>
  <path class="cls-1" d="M515.464,696.001c-.558.381-3.778-3.312-4.4-4.084-2.625-3.258-11.523-16.791-12.815-20.203-.421-1.113-.857-1.827-.767-3.143.155-2.28,13.819-23.182,15.638-23.492,5.483,1.052,9.446,16.97,13.86,16.966,4.68-.005,9.867-19.545,14.9-17.978,1.142.356,12.237,18.407,12.829,20.198,3.165,9.577-8.599,20.358-12.742,28.734-2.493.6-9.382-14.115-11.927-16.065-1.226-.939-2.127-1.396-3.569-.481l-11.008,19.548h.001ZM540.11,654.138c-1.795.353-9.574,13.095-9.402,15.196l10.284,13.71c2.761-.04,9.654-12.454,9.454-15.482-.187-2.837-7.16-14.049-10.336-13.424ZM512.141,655.106c-2.623,3.099-8.721,10.574-8.721,14.395,0,2.537,8.353,16.904,10.458,16.456,2.262-.481,9.585-14.679,9.341-17.309-.226-2.432-7.04-15.607-11.078-13.542Z"/>
  <path class="cls-1" d="M125.593,689.882c-2.081-1.206-7.147-16.117-12.631-16.809l-12.009,19.919c-1.46.386-1.622-.96-2.31-1.655-2.855-2.884-15.494-22.628-15.011-25.614l14.025-22.521c6.264-3.608,9.521,16.717,16.204,16.689,4.422-2.878,9.826-23.628,16.074-15.839,2.504,3.122,11.764,19.085,11.618,22.428-.122,2.789-10.481,20.62-12.59,22.502-.973.868-2.13,1.619-3.37.9h0ZM126.124,652.162l-9.582,14.336,10.438,14.486c10.988-9.576,13.052-21.307-.856-28.822ZM98.193,653.185c-2.603.769-8.832,11.611-8.792,14.338.04,2.703,8.757,19.483,12.956,13.85,1.356-1.819,7.028-12.939,6.861-14.725-.066-.702-5.697-12.184-6.222-12.654-1.449-1.296-2.98-1.347-4.802-.808h-.001Z"/>
  <path class="cls-1" d="M104.462,280.995c-1.971.331-2.832-1.309-3.95-2.526-2.574-2.801-12.314-17.347-13.489-20.51-2.72-7.323,10.455-21.882,14.958-27.935,6.648,4.48,6.365,14.458,13.89,17.932,2.819-.585,8.228-14.477,11.117-16.941,1.256-1.071,2.23-1.446,3.847-.908,1.291.429,13.498,21.361,13.636,23.471.188,2.886-12.709,23.979-14.566,24.387-2.334.513-8.77-12.799-10.886-14.997-.968-1.005-1.967-2.598-3.557-1.537l-10.999,19.565h-.001ZM102.156,240.151c-3.472.296-10.612,12.447-10.61,15.356,0,1.971,8.534,15.541,10.421,15.555,2.631.018,9.329-13.309,9.483-15.622.199-2.988-6.033-15.567-9.295-15.289h0ZM127.593,267.872c3.897,2.789,10.731-10.117,10.95-13.389.258-3.849-6.01-14.499-9.566-14.521-3.025-.018-8.649,11.652-10.118,14.538,1.071,4.353,4.823,6.877,7.497,10.163.689.846.871,2.947,1.237,3.209Z"/>
  <path class="cls-1" d="M543.114,232.072c1.473-.261,2.016,1.182,2.79,2.009,1.834,1.961,12.208,19.638,12.395,21.668.208,2.255-11.368,22.885-12.785,23.803-5.349,3.467-9.937-16.099-15.512-15.623-3.404.345-9.102,17.519-13.023,20.053-3.516-5.344-16.904-21.985-16.604-27.471.137-2.504,12.924-22.888,14.734-23.445,4.808-1.481,9.253,16.086,14.885,16.991,3.455.006,8.426-16.452,13.121-17.984h0ZM515.96,242.246c-2.466.206-10.035,12.308-10.034,15.255,0,2.736,8.555,17.078,11.028,16.503,2.111-4.076,8.585-12.172,8.585-16.503,0-2.893-6.798-15.487-9.579-15.255h0ZM542.166,242.095c-2.637.68-7.143,11.873-9.333,14.409l10.167,14.5c2.769.642,9.562-11.451,9.589-14.49.035-3.907-6.353-15.469-10.424-14.42h.001Z"/>
  <path class="cls-1" d="M.48,341.001c9.41,5.769,19.917-3.653,24.66-11.498.009-3.333-15.454-11.234-18.659-12.082-2.525-.668-3.684.091-5.994.577l-.01-5.001c9.796.042,21.42,4.47,29.335,10.173,11.645,8.391-12.473,16.619-13.227,26.127,1.041,4.06,20.534,11.01,20.947,15.213.154,1.565-.632,3.237-1.613,4.437-2.938,3.59-19.074,15.43-23.414,16.588-5.958,1.59-14.13-1.056-12.015-8.532,3.797,1.503,7.96,2.772,12.037,1.541,2.271-.686,15.004-9.507,14.806-11.864-.388-4.605-16.125-12.663-20.378-12.586-2.096.038-4.004,2.498-6.474,1.909v-15.002Z"/>
  <path class="cls-1" d="M30.172,737.289c.536.631,1.091,1.626,1.155,2.427.419,5.16-16.906,14.796-16.877,21.75.5,5.022,23.079,10.667,20.307,17.234-1.612,3.818-18.585,16.487-22.875,18.198-4.287,1.71-6.976,1.194-11.293-.003l-.103-6.891c3.463.894,6.46,1.625,10.042.535,2.269-.691,13.819-8.969,14.008-11.087.492-5.515-18.44-15.582-24.052-12.452l-.01-12.006c6.506,1,13.439-3.121,18.014-7.487,2.317-2.211,5.165-3.927,3.501-7.491-1.281-2.741-17.394-11.246-21.453-11.077l-.051-3.935c.966-1.056,16.501,4.282,18.992,5.497,1.221.596,10.285,6.304,10.695,6.786v.002Z"/>
  <path class="cls-1" d="M32.487,137.004c.932,2.642-1.956,5.425-1.796,7.33.185,2.202,3.82,5.022,2.656,7.956-.848,3.031-8.743,4.17-8.846,8.186-.1,3.89,6.83,6.557,5.257,10.224-1.09,2.543-5.112,4.661-5.829,6.339-.924,2.164,1.395,4.347-.401,5.498-4.926.679-8.716.112-13.355,2.378-3.12-.768-4.262-8.073-5.936-9.672-.947-.905-3.27-.84-3.615-1.375-1.05-1.625-.283-8.141,2.531-8.76l2.359.34c2.615,6.737,7.385,14.384,14.493,6.57,4.498-4.945-4.718-10.21-4.03-15.157.483-3.47,17.342-5.621,8.027-13.883-7.421-6.583-12.516,4.191-15.524,2.604-2.74-1.446-3.591-9.019-8.019-10.282l.165-9.14,3.855-.732c7.487,20.331,10.519,5.724,15.476,5.591,4.292-.114,6.899,8.03,12.533,5.985h0Z"/>
  <path class="cls-1" d="M21.485,595.008c-5.308-.553-9.421.248-14.352,1.917-4.538-6.009-7.928-12.161-6.648-19.919,5.459.638,4.693,9.174,9.969,10.597,2.692.726,9.067-3.817,8.796-6.937-.349-4.016-6.922-7.443-5.636-11.957.965-3.387,14.882-4.689,8.437-12.786-6.637-8.338-13.775,3.464-16.59,1.655-3.926-2.524-6.032-16.043-4.971-20.576,8.09,8.26,3.985,18.017,17.49,5.965,4.335,3.266,7.171,5.674,12.457,7.522-4.183,5.781-.406,8.449.957,13.856-1.478,4.909-17.242,2.897-3.157,18.171-3.389,4.252-8.208,6.023-6.752,12.493h0Z"/>
  <path class="cls-1" d="M708.48,801.001l-13.531-1.969c-3.388-5.077-4.548-24.974,3.088-26.067,4.878-.698,4.807,3.103,7.161,5.11.834.711,3.282.756,3.282.926v22Z"/>
  <path class="cls-1" d="M708.48,389.001c-.33.332-8.377-.906-9.275-1.225-7.976-2.835-4.982-32.969,4.635-26.676.465.304,4.639,5.046,4.639,5.402v22.5h.001Z"/>
  <path class="cls-1" d="M708.48,733.001v22.5c0,.431-6.195,4.837-6.954,5.09-4.515,1.505-4.762-3.99-5.581-7.555-2.671-11.627-2.77-22.309,12.535-20.035h0Z"/>
  <path class="cls-1" d="M708.475,842.006c1.524,5.755-2.553,7.63-3.053,12.429-.803,7.706,2.39,10.248,3.084,16.04.609,5.073.601,30.498-.808,34.245-.305.812-3.394,5.236-3.718,5.262-2.164-1.411-1.212-2.194-1.053-4.017.747-8.576,3.64-14.562,2.561-24.471-.832-7.635-6.454-18.439-6.052-25.957.216-4.036,3.953-13.641,9.039-13.53h0Z"/>
  <path class="cls-1" d="M708.48,321.001v23.5c0,1.261-6.205,4.913-8.064,3.077-3.209-9.477-7.759-28.875,8.064-26.577Z"/>
  <path class="cls-1" d="M708.47,469.996l-3.698-11.787c-2.025-8.936-5.562-21.123,3.698-27.208-1.588,13.084.467,25.86,0,38.995Z"/>
  <path class="cls-1" d="M708.48,49.001l-4.072-16.499c.13-2.568.807-5.043,1.616-7.456.372-1.11,1.068-4.051,2.456-4.044v28h0Z"/>
  <polygon class="cls-1" points="705.485 496.996 705.735 490.754 708.47 482.006 708.474 494.495 705.485 496.996"/>
</svg>