<?xml version="1.0" encoding="UTF-8"?>
<svg id="Layer_1" xmlns="http://www.w3.org/2000/svg" version="1.1" viewBox="0 0 750 1000">
  <!-- Generator: Adobe Illustrator 29.7.1, SVG Export Plug-In . SVG Version: 2.1.1 Build 8)  -->
  <defs>
    <style>
      .st0 {
        fill: #e8b31f;
      }
    </style>
  </defs>
  <path class="st0" d="M122,0c1.11,5.48,4.81,10.55,11.05,8.57,5.2-1.65,5.56-9.71,14.46-3.57,9.91,6.85,11.99,20.93.64,27.65-4.39,2.6-11.25,2.06-10.15,8.35,2.16-.97,5.41,1,6.51,1h16l1.5,1.5v40.5h-4s-2.02-35-2.02-35l-3.04.44c-3.57,2.62,2.38,29.95-.96,35.55-2.87.37-3.59-3.45-3.9-5.59-1.27-8.9.54-20.21-1.56-29.44-.8-1.61-4.31-.38-4.58.71l1.04,34.32c-3.93.83-4.28-2.78-4.73-5.77-.61-4.05.16-29.9-3.76-30.18-.32-.02-3.51,2.16-3.51,2.45v33c-2.74,3.5-4.2-.15-4.76-3.24-.84-4.63,1.15-29.54-1.92-30.29l-4.19.18c-3.74,10.92-1.14,22.6-2.62,33.88-.52,1.1-2.93,1.35-3.51.97-2.98-1.93.7-24.65.03-29.54-.49-3.61-2.33-5.42-6.05-3.98l-1.8,2.22-2.2,30.3c-1.72.35-2.04-.43-2.78-1.71-2.42-4.19-1.03-19.92-1.18-25.82-.11-4.21-2.43-8.44-.13-12.82,2.17-3.06,22.55.27,17.61-7.67-.72-1.16-7.98-4.19-10.52-7.48-8.25-10.65-.03-22.85,9-29.5h6,0ZM119.75,10.25c-1.47-1.27-4.39-1.05-6.08-.14-8.16,4.36-3.72,16.48,3.6,19.12,6.34,2.29,24.38,3.6,29.23-1.23,8.43-8.41.73-25.81-6.55-18.55-4.72,4.71,2.06,13.72-7.43,14.55-17.1,1.49-8.72-10.25-12.77-13.75h0Z"/>
  <path class="st0" d="M213,1000c.54-2.55-2.44-5.06-1.87-7.29.67-2.62,5.27-3,4.98-8.21-.28-5.09-8.08-6.48-5.42-17.32.85-3.44,7.43-15.5,9.78-18.21,5.28-6.08,14.43-7.07,21.97-5.91,2.64.41,14.8,8.76,17.05,10.95,3.1,3.02,12.48,19.57,10.39,22.87-3.26,1.12-6.65,2.14-7.76,5.77-.33,3.75,6.91.41,7.71,6.09.38,2.66-3.59,8.03-3.83,11.26h-3c1.27-8.75-2.73-6.52-7.38-9.12-4.41-2.47-7.98-11.08-12.6-1.4l4.98,10.53h-14c2.26-3.72,5.73-14.38-1.51-13.54-4.47.52-3.09,5.16-5.53,7.01-2.99,2.27-9.29-.21-7.96,6.54h-6ZM235.78,949.23c-8.81.93-18.69,8.09-19.7,17.37-1.15,10.53,5.87,5.46,9.94,7.88,1.65.99,3.47,10.18,8.49,5.54,5.18-4.78-5.36-10.4-6.32-14.74-3.29-14.89,23.96-10.55,20.36.77-.63,1.98-9.35,11.41-4.02,12.95,2.7.78,6.28-4.81,8.55-6.41,4.51-3.18,8.41-.63,4.46-9.62s-11.68-14.79-21.76-13.72h0Z"/>
  <path class="st0" d="M626,1000c-3.9-6.58,4.02-7.74,4.08-12.47.06-4.63-5.39-6.46-5.87-12.32-.57-6.85,6.41-19.41,11.26-24.23,11.28-11.23,24.41-5.54,35.03,3.03,5.26,4.24,13.23,15.89,13.49,22.61.18,4.8-7.75,3.6-7.87,8.03-.1,3.7,6.53,1.19,7.48,5.3.87,3.76-1.99,6.5-2.6,10.05h-4c1.09-6.39-3.92-4.77-6.93-6.57-2.65-1.59-4.83-5.49-8.57-5.52-7.83-.07-3.17,8.62-.5,12.09h-12c2.17-4.23,4.01-10.55-2.45-11.05-3.52.33-3.59,4.85-5.57,6.53-2.51,2.13-8.13.72-7.98,4.52h-7ZM672.86,972.87c2.68-4.17-6.76-16.52-10.51-18.72-11.56-6.76-31.62,1.59-32.39,15.39-.5,8.94,4.83,5.12,9.82,7.12,2.43.97,2.58,8.68,8.21,5.86l1.87-2.23c1.03-4.14-8.22-8.86-7.82-15.66.47-8.12,9.91-7.43,15.63-4.8,14.03,6.45-5.34,16.67.29,20.72,4.73,1.91,6.19-3.73,8.65-5.43,1.42-.98,5.93-1.76,6.24-2.25h0Z"/>
  <path class="st0" d="M104,1000c-5.09-12.36-6.18-20.7,4.53-29.97,6.11-5.28,13.54-9.59,20.98-4.04,3.92,2.93,3.89,8.85,8.89,7.93,4.83-4.41-.64-14.04-5.45-16.37-7.18-3.49-14.68.04-21.95.44,8.83-13.16,22-10.67,32.51-1l.5-6c4.6-.43,9.22,4.14,11.97,7.53,11.13,13.71,8.1,35.99-9.98,41.48h-10c-4.96-1.09-7.69-10.62-11.49-10.65-5.77-.03-2.51,7.4-1.51,10.65h-9c-2.68-6.01-2.6-13.38,1.98-18.52,1.95-2.18,4.13-2.17,5.48-3.51,2.87-2.85.83-5.91-2.92-6.03-11.89-.36-14.08,20.12-9.54,28.06h-5ZM139.12,991.88c1.24,2.02,8.64-.3,10.42-1.85,1.47-1.28,5.79-10.05,6.04-11.99.72-5.41-6.58-13.37-9.08-18.04-.29,4.9,1.92,7.83,1.25,13.23-.28,2.3-1.38,5.45-2.54,7.48-1.7,2.99-8.53,7.23-6.1,11.17Z"/>
  <path class="st0" d="M517,1000c-4.74-14.18-2.86-22.79,9.67-30.83,4.33-2.78,6.15-3.98,11.77-3.1,7.81,1.22,9.18,9.16,11.21,9.83,8.12,2.69,4.68-12.92-3.07-15.97-6.5-2.55-15.1-.45-21.57,1.07-1.42-1.32,6.43-7.24,7.64-7.85,5.67-2.86,10.82-2.46,16.42.29,4.91,2.42,10.25,11.14,8.94-.43,20.28,5.43,25.13,34.65,7.99,47h-20c-2.99-2.7-3.14-7.76-7.54-7.98-4.09.97-3.15,4.97-2.46,7.98h-9c-1.18-5.19-.91-12.4,2.98-16.52,1.04-1.1,11.88-6.25,5.36-8.31-13.01-4.12-17.02,16.07-13.34,24.83h-5,0ZM559,962.01c3.17,5.39,3.67,13.96,1.25,19.74-1.62,3.86-9.21,6.61-6.82,12.31,7.48,4.76,16.32-8.48,16.54-14.66.09-2.51-5.96-12.41-7.77-15.1-.87-1.29-1.12-2.74-3.2-2.29h0Z"/>
  <path class="st0" d="M415,1000c-.49-2.14-3.77-1.81-4.55-2.96-.92-1.35-.24-4.38-.67-6.32-.39-1.72-2.01-3.05-1.81-5.18.38-4.09,9.39-6.57,9.9-9.18-.55-4.86-8.61-7.25-4.3-12.29,1.01-1.19,2.88-1.56,3.7-3.31,1.58-3.38-.59-7.31,2.23-9.75,5.45,5.58,9.28,1.42,15.38,1.11l4.8,10.73c5.55,1.82,6.64-5.32,10.78-4.92,2.73.26,6.68,7.42,11.55,6.06.61,2.45-1.93,4.46-1.94,6.48-.02,2.71,3.9,5.57,2.83,8.83l-7.63,4.93-1.01,2.38,5.64,9.06-1.9,4.3h-9c5.48-6.11-.73-8.58-2.79-12.77-3.34-6.78,5.74-6.67,9.31-10.24,1.64-6.71-4.69-10.66-10.82-8.78-2.3.7-3.18,4.72-7.08,3.87-.98-.21-5.51-16.36-14.58-8.53-6.52,5.63,4.18,10.36,2.57,15.49-1.55,4.93-15.54,6.06-7.12,15.99,8.68,10.24,14.95-14.23,20.52,4.98h-24,0Z"/>
  <path class="st0" d="M331,1000c-3.58-7.39-18.95-11.73-12.5-20.98l13.02,12.97c1.78.24,1.5.05,1.52-1.5.08-6.85-16.73-16.66-16.79-20.74-.01-.66.34-5.52,2.24-4.73l14.02,12.97c1.75-1.24,1.72-2.31,1.32-4.27-1.5-7.22-20.49-12.78-17.82-22.7,2.73-2.87,13.15,14.14,17.99,11.99.99-5.52-6.34-7.49-5.99-12.99,4.12-1.19,5.17,4.17,8.34,3.76.71-.09,12.26-9.28,9.51-2.42-1.55,3.87-9.5,6.17-6.84,11.65,2.33,1.75,11.28-10.28,14.99-8.99,1.89,12.21-18.1,11.58-14.99,23.99,2.24,2.32,10.57-9.44,13.52-9.98,2.35-.8,1.71,4.24,1.45,5.46-1.04,4.99-16.78,11.61-15.98,16.01.32,1.77,2.3,1.44,3.73.76,3.23-1.54,7.85-6.79,10.78-9.23,2.08-.34,1.2.3,1.62,1.41,3.45,9.08-11.38,11.48-15.13,17.58h-8,0Z"/>
  <path class="st0" d="M41,1000h-11c13.17-6.85,3.43-9.58,1.51-19.03,1.2-3.24,17.16-5.83,8.01-13.99-7.31-6.52-13.19,5.23-16.43,2.94-2.82-5.49-2.57-11.94-1.59-17.93,5.09,18.23,11.72,2.53,14.85,3.09l11.59,7.53c-2.22,5.47.37,8.53.93,13.68l-8.66,8.36,5.64,9.7-4.85,5.64h0Z"/>
  <path class="st0" d="M28,1000h-7l.5-10.01c2.11,3.61,2.46,7.83,6.5,10.01Z"/>
  <polygon class="st0" points="324 1000 317 1000 317.51 993.99 324 1000"/>
  <path class="st0" d="M464.73,625.24c7.16-1.32,13.17,1.41,17.68,6.85,9.52,11.48,1.3,20.22,3.8,31.2.92,4.05,7.71,7.79,8.73,14.27,3.82,24.37-15.66,32.2-35.43,22.78-8.97,9.67-28.31,13.7-36.34.99-3.07-4.85-4.85-15.14-4.07-20.75.49-3.55,3.21-6.56,3-10.08-.15-2.66-4.06-7.35-5.27-10.83-5.84-16.81,5.75-33.68,24.43-30.43,3.54.61,7.86,4.47,10.26,4.37,2.66-.11,7.59-7.34,13.21-8.37h0ZM477.99,658.99c3.98-8.18,4.93-19.64-1.95-26.53-6.87-6.87-18.56-1.85-18.03,7.53,6.27.5,10.92-6.3,17.08-.58,4.05,3.77,2.02,9.4,1.88,14.05-.04,1.22-.73,5.51,1.02,5.52h0ZM435.74,635.24c-15.94.96-20.31,20.25-9.08,29.61,7.44-.32.39-9.08.28-13.4-.18-6.92,4.26-9.48,10.56-9.54,3.96-.04,8.49,2.83,11.48-.43.73-3.38-10.52-6.4-13.25-6.24h0ZM468.91,644.09c-6.41-1.46-13.81,7.27-10.4,12.91.67,1.1,8.58,6.19,10.05,4.11,2.51-1.88,1.65-16.13.35-17.02ZM437.71,648.22c-8.42,1.9-2.67,14.82-.05,15.68,3.4,1.12,12.8-7.15,12.39-11.39-.39-4.08-8.99-5.05-12.34-4.29ZM452.74,661.17c-9.03,1.85-5.94,14.57,3.53,12.65,7.99-1.62,6.1-14.62-3.53-12.65ZM480.76,690.77c-2.74,3.14-26.55.18-18.31,7.28,3.39,2.92,13.98,3.11,17.94.85.89-.51,4.99-5.38,5.6-6.39,5.53-9.26,3.35-17.66-4.52-24.49l-2.45,1.57c2.17,6.97,4.17,14.12,1.73,21.18h0ZM468.72,671.14c-1.19.33-7.37,6.75-7.95,8.11-4.25,9.78,12.08,9.72,14.51,4.5,1.73-3.71-1.24-14.09-6.56-12.6h0ZM428.51,675c-2.84.59-5.53,11.81-5.52,14.51.09,12.96,21.38,20.06,29.06,10.03,4.7-6.15-8.12-2.58-10.52-2.5-6.29.21-9.47-.68-10.45-7.64-.41-2.89,1.37-15.22-2.58-14.41h0ZM440.74,675.16c-7.85,1.44-6.31,18.5,3.52,16.69,1.95-.36,8.96-6.54,8.67-8.21-3.19-3.09-7.12-9.41-12.19-8.48h0Z"/>
  <path class="st0" d="M427.35,291.65c-5.09-5.5-6.89-18.81-5.07-25.88.64-2.46,2.97-4.69,2.72-7.22-.19-1.98-3.46-5.2-4.51-7.56-7.98-17.93,2.79-37.39,23.76-33.75,3.46.6,6.71,3.85,9.24,3.86,3.27.01,6.51-4.99,9.6-6.5,13.43-6.55,27.49,6.38,26.94,19.92-.22,5.27-3.06,10.39-1.83,15.76.94,4.12,8.72,9.71,9.72,16.27.47,3.08-.35,9.63-1.2,12.68-4.18,14.93-23.48,15.3-35.1,8.92-7.54,9.34-25.65,12.82-34.29,3.5h0ZM480.99,246c4.51-8.13,3.19-26.57-7.72-28.83-9.33-1.93-18.33,11.69-9.84,10.84,4.55-.46,7.58-6.8,14.11-.04,4.85,5.02,1.82,10.66,1.46,16.55-.12,1.99.21,1.57,1.99,1.49h0ZM436.76,223.21c-14.78,2.02-19.34,21.24-7.24,29.78,6.58-4.14-2.78-12.44,1.42-19.56,4.36-7.38,19.2.07,20.06-3.95-1.76-5.29-9.45-6.92-14.23-6.27h0ZM471.92,232.09c-14.47-.86-15.27,18.45-.02,16.79,1.6-5.57,1.54-11.21.02-16.79ZM449.65,246.66c1.43-1.66,2.47-4.05,3.01-6.18-3.13-5.45-11.38-6.07-16.17-2.49-2.32,11.39,4.09,19.19,13.16,8.67h0ZM462.83,259.83l-.8-9.36c-17.09-6.95-14.96,17.8.8,9.36ZM464.22,285.76c1.65,1.54,10.25,3.12,12.79,2.83,7.37-.83,15.45-11.86,14.95-18.98-.23-3.27-5.13-13.22-8.61-13.5-4.79-.38.22,7.07.59,9.44.33,2.16.46,10.94-.43,12.45-1.67,2.84-15.79,2.92-19.41,3.08-.63,1.37-1.09,3.54.12,4.67h0ZM470.71,259.18c-1.78.53-8.31,8.78-8.59,10.54-.99,6.37,13.92,7.33,15.68,1.58,1.35-4.42-.94-13.95-7.1-12.12h0ZM432.98,263c-3.05-2.55-6.4,7.64-6.73,9.74-2.07,12.96,8.61,21.66,21.03,19.03,2.45-.52,10.44-4.89,7.73-7.77-9.08-.18-20.32,5.55-21.93-7.6-.35-2.85,1.58-12-.09-13.4h0ZM442.74,263.18c-5.61,1.15-6.45,11.19-2.1,14.68,6.42,5.15,11.93-.94,15.18-6.36-3.34-3.41-7.65-9.42-13.08-8.31h0Z"/>
  <path class="st0" d="M354.3,358.32c.63-.53,1.63-1.11,2.42-1.17,4.27-.31,11.03,11.77,11.84,15.79,3.51,17.43-18.14,19.29-28.07,10.08-6.95-6.45,4.44-10.46,3.4-14.31-.64-2.39-6.34-8.26-9.39-8.26s-12.33,8.76-13.1,11.53c-.92,3.3,4.23,6.74,5.46,9.72-.87,7.54-19.92,5.24-22.83,2.78-3.14-2.65-3.97-24.06,2.66-26.35,4.82-1.26,6.68,7.23,10.4,6.43,2.39-.52,10.03-10.14,9.99-13.08-.02-1.83-3.62-6.56-5.08-7.97-5.68-5.5-8.04,1.77-12.95,3.1-2.88.78-5.63-13.65-5.68-16.26-.37-18.95,21.09-13.1,27.67-1.84l-5.9,7.83c1.05,2.24,5.65,9.77,8.19,9.53l11.54-9.57c1.02-3.97-7.83-10.04-3.9-13.82,4.6-2.3,20.69-5.67,24.05-1.99,3.97,4.34.15,27.25-4.51,27.33-5.89-2.74-8.26-11.63-15.07-5.86-7,5.94-7.02,20.8,3.85,21.92,2.42-.62,3.66-4.43,5.01-5.55h0Z"/>
  <path class="st0" d="M326.64,737.36c5.74,6.47-4.46,6.17-3.47,11.92.31,1.78,5.45,8.67,7.3,8.71,2.13.05,12.02-7.81,12.36-9.63-.55-4.29-5.56-7.4-4.89-11.83.71-4.69,17.92-6.36,22.1-5.08,6.65,2.03,4.12,17.81,1.99,23.08-4.64,11.47-6.8.64-12.3-1.78-7.51-3.31-14.34,10.36-11.22,17.23.23.52,5.03,5.33,5.52,5.55,5.13,2.33,6.59-6.49,11.32-6.38,9.24,5.96,17.03,23.72,4.57,30.27-6.11,3.21-18.43.03-22.48-5.36-4.21-5.6,1.56-6.86,3.07-10.09,2.41-5.14-6.33-13.9-12.82-10.03-.56.33-8.33,9.15-8.52,9.77-1.62,5.41,3.83,6.07,4.67,8.99,2.37,8.24-20.23,7.54-23.29,2.24-3.05-5.29-3-24.07,5.74-24.84l5.69,6.43c3.17,2.04,12.93-9.41,12.94-13.04,0-3.39-6.14-8.08-8.57-10.35l-11.4,5.42c-1.28-.9-3.95-14.88-3.98-17.12-.23-16,18.14-12.58,25.67-4.09h0Z"/>
  <path class="st0" d="M37,228c-.1-6.53-10.93-7.32-16-6.99v-6.01c3.39.16,6.9-.37,10.27.24,3.3.6,6.22,4.05,9.01,3.61,2.76-.43,5.66-4.85,8.67-6.41,14.81-7.65,28.48,7.2,26.95,21.96-.28,2.68-1.67,5.29-1.89,8.12-.89,11.5,10.75,13.06,9.99,26.96-.93,16.92-13.77,22.91-29.25,19.28-2.42-.57-4.36-3.01-7.01-2.6-3.13.48-6.08,5.76-9.99,7.08-2.51.85-14.81,2.96-16.3.83l-.43-6.06c4.02,4.71,21.68.25,19.98-5.47-.98-3.33-10.71.97-14.41.44-1.45-.21-5.58-2.39-5.58-3.47v-51.5h16,0ZM66.99,244c3.44-8.99,3.75-26.74-7.99-29.59-3.96-.96-14.26,5.33-12.95,9.99,1.07,3.81,7.93-1.49,11.45-1.49,11.93-.02,7.94,12.48,7.49,19.61-.12,1.99.22,1.56,2,1.49h0ZM55.71,229.14c-6.35.37-12.52,9.36-7.67,14.33.8.82,6.22,3.7,7.44,3.6,5.69-.47,3.99-18.14.24-17.93h0ZM27.77,233.19c-10.82,1.54-4.43,16.86-.28,16.82,3.04-.03,11.96-9.23,11.37-12.38-2.14-3.32-7.27-4.98-11.08-4.44ZM41.62,246.28c-11.35,1.33-3.42,20.5,7.91,10.78-.03-5.62-.67-11.63-7.91-10.78h0ZM69.69,283.68c2.38-2,7.54-10.41,8.13-13.43.92-4.65-4.41-17.81-10.82-16.25,1.6,6.76,5.79,13.89,2.5,21-2.89,6.23-17.48-.5-20.5,6.48,4.14,5.18,15.75,6.34,20.68,2.2ZM57.7,256.11c-2.98,2.62-10.71,9-9.57,13.17,1.04,3.8,13.33,4.81,15.38.73,1.85-3.69-1.18-15.13-5.81-13.91ZM29.74,260.13c-13.52,6.36-.97,25.27,9.27,13.39,5.26-6.11-4.36-11.41-9.27-13.39Z"/>
  <path class="st0" d="M525,468.5c-.85-3.01-5.14-2.92-6.78.23-1.98,3.81-1.77,21.15-2.17,26.82-.13,1.79.26,3.24-1.55,4.43l-2.47-3.51c.28-5.39-2.94-36.47.12-38.33,3.55-1.02,16.74-.17,17.79-3.77-.69-5.42-7.91-5.78-11.38-10.43-3.82-5.13-4.34-11.06-2.04-16.93,1.72-4.4,11.39-15.71,16.51-12.53,2.65,4.29,4.12,10.73,10.67,8.79,6.68-1.98,6.85-11.22,17.28-2.73,9.14,7.44,8.32,21.63-2.62,27.3-2.36,1.22-9.41,1.94-9.13,5.68.34,4.4,17.56,1.77,21.3,2.47,3.16.59,3.31,4.86,3.53,7.47.54,6.55,1.01,26.22-.04,32.04-.44,2.48-1.6,2.78-4,2.5-1.98-9.47.1-20.03-1.28-29.23-.23-1.52-.88-6.27-3.22-5.77-4,.86-1.51,5.6-1.51,6.49v29l-2.01,1.02c-3.77-2.58-2.5-23.8-3.01-29-.36-3.7-1.1-9.81-5.03-5.85l.58,34.37-2.56.5c-3.64-2.32-2.36-29.89-3.97-35.54-3.78-.53-5.36.91-5.93,4.57-1.18,7.65,1.58,17.49.98,25.98-.21,2.95-.46,7.32-4.14,4.87-2.29-3.11-.91-26.42-1.91-31.91-.55-3.04-3.99-3.54-5.51-1.51-2.83,3.8-1.37,27.7-2.49,34-1.12.42-3.99-.43-3.99-1.49,0-6.29,1.24-25.57,0-30h0ZM547.8,437.8c-3.69.23-9.55,1.9-12.72-.37-5.15-3.69-1.38-12.17-4.72-13.29-9.58-3.21-12.92,12.43-4.09,18.1,3.85,2.48,20.61,4.47,25.18,3.71,14.2-2.35,12.95-26.26,1.25-22.75-4.65,1.39-1.31,10.94-4.9,14.6h0Z"/>
  <path class="st0" d="M535,879.5c-.78-2.77-5.65-3.61-6.79.21-1.88,8.77.27,21.69-1.21,29.79-.4,2.18-2.18,3.64-4.07,1.91-3-4.14,2.19-24.03-.09-30.75-.94-2.75-4.54-2.86-6.3-.64-4.47,5.64-1.07,29.36-3.59,30.93l-2.92.04c-1.78-8.99-.87-18.33-1.03-27.49-.06-3.69-2.39-7.76.17-11.85,2.72-4.35,18.11.37,18.68-6.34.24-2.87-5.76-4.38-7.78-5.88-12.27-9.09-7.28-24.67,3.98-31.88,9.21-5.9,7.33,7.98,15.46,8,7.85.02,7.6-11.31,18.01-3.57,10.05,7.47,10.08,21.59-1.17,27.85-3.64,2.03-9.95,1.59-9.33,7.14.96-.25,2.13,1.02,2.49,1.02h20.5c.25,1.52.85,2.92,1.01,4.48.72,7.1,1.67,24.29,1.03,31.05-.25,2.63-.47,5.53-2.55,7.45-1.74.91-2.25-2.56-2.39-3.58-.76-5.56.4-27.66-2.04-30.96-1.74-2.35-3.54-1.75-4.05,1.06-.28,10.15,2.17,20.9,1.04,31.04-.83,7.37-4.31,1.89-4.93-3.16-1.1-9.01-.16-20.12-1.12-29.39l-4.06.44c-2.49,1.71.02,9.19.1,12.02.18,5.84.44,13.39.01,19.09-.13,1.76.2,3.27-1.57,4.44-1.75.86-1.85-1.78-2.16-2.8-2.77-9.35-.72-21.63-2.49-31.54l-2.34-1.7c-1.03-.08-3.5,2.1-3.5,2.54v33.5l-3.92-.09c.44-1.49-1.08-3.68-1.08-4.41,0-5.88,1.17-23.87,0-28h0ZM550.7,835.16c-7.63,2.3,2.35,18.48-14.15,15.78-10.27-1.69-4.21-14.07-10.07-15-10.44-1.64-11.52,18.12,3.25,20.82,4.55.83,18.14,2.05,22.01.48,11.2-4.53,8.73-25.03-1.04-22.08h0Z"/>
  <path class="st0" d="M111,465l-4.3-.87c-6.2,1.48-2.86,25.98-5.44,31.63.18,1.43-1.71,1.73-2.24,1.24-1.75-1.61-2.6-35.35-1.55-40.03,2.07-3.14,17.26-1.05,18.47-4.56,1.55-4.53-4.25-4.98-6.87-6.97-12.6-9.55-9.18-22.96,2.44-31.43,10.72-7.83,7.46,5.74,15.05,7.01,8.59,1.44,9.95-12.24,20.49-2.56,8.13,7.46,8.46,19.62-1.11,25.98-4.46,2.96-10.97,1.83-9.93,8.55,1.56-.63,3.73,1.02,4.49,1.02h18.5l.99,39.49-1.51,2.49c-1,.52-3.48-.67-3.48-1.48v-30c0-1.49-3.07-4.47-5-3.5v36l-3.09-.59c-2.62-3.55-1.22-24.19-2.01-29.82-.54-3.87-2.13-8.03-5.44-3.56l1.53,33.97-3.85-.15-3.63-33.87c-4.22-2.77-5.15-.51-5.52,3.51-.9,9.87,2.71,20.5.52,30.53-.52,1.1-2.93,1.35-3.51.98-1.37-.89-1.09-27.3-2.03-32.48-.58-3.17-3.38-3.33-5.51-1.53-2.81,2.83-1.13,28.08-2.48,34.01-1.12.42-4-.43-4-1.49v-31.5h0ZM139.72,420.15c-6.09,1.65-2.09,14.07-7.42,15.66-2.42.72-8.68.56-10.87-.74-6-3.54-.4-14-7.94-13.99-9.51.02-7.89,17.14,1.46,20.46,4.42,1.57,20.79,2.34,25.1,1.01,11.8-3.63,8.66-24.84-.33-22.41h0Z"/>
  <path class="st0" d="M156,866c1.71,1.09.89,24.41.96,28.54.09,4.9,3.9,12.48-2.95,14.46.04-.98-.58-1.83-.74-2.76-1.58-9.12.39-21.02-1.28-30.74-.66-3.84-4.53-3.66-5.05.95-.63,5.6,2.95,29.94.06,32.06-1.25.92-1.63.54-2.54-.48l-2.47-32.53-2.48-2.5c-1.81,1.28-2.27,2.28-2.56,4.44-.65,4.8,2.59,29.94,1.04,31.55-1.85.13-3.04.36-3.78-1.71-3.16-8.88.23-23.14-3.11-32.71-1.03-1.43-4.55-.71-4.96,1.06-.22,7.96-.2,15.93-.19,23.9,0,1.75.83,3.39.84,4.96.07,8.66-4.69,7.01-5.68-1.12-.93-7.6.57-16.25-.12-23.89-.41-4.52-1.15-5.28-5.86-4.34-3.28,10.96-1.38,22.59-2.62,33.87l-3.51.98c-3-9.76,1.79-20.98-.04-30.48-.9-4.71-6.65-5.07-7.75.19-1.01,4.82-1.06,27.97-2.22,29.28-1.92.38-3.06-1.43-3.54-2.95-1.56-4.9-.36-18.52-.41-24.59-.04-4.35-1.99-8.47.1-13.32l17.91-2.68c1.11-6.05-4.72-6.19-8.52-9.48-10.09-8.72-5.65-22.92,4.14-29.81,10.87-7.65,7.49,5.11,15.07,6.66,8.52,1.74,8.42-10.56,19.19-3.26,9.13,6.19,11.18,18.6,2.09,25.95-5.15,4.16-12.45,2.33-11.98,9.43,1.22-.34,2.92,1.05,3.46,1.05h19.5ZM137.73,832.16c-7.75,1.17-2.36,13.98-7.39,15.67-1.71.58-9.68.46-11.34-.33-5.54-2.64.3-13.18-7.5-13.6-8.49-.45-8.05,12.43-3.01,17.12,4.66,4.33,24.72,5.46,30.26,3.22,9.73-3.93,7.7-23.4-1.02-22.08h0Z"/>
  <path class="st0" d="M540,55.5c-.49-3.15-3.28-3.23-5.6-1.59-3.97,4.37-1.06,32.55-3.46,34.05l-2.93.04c-3.39-9.5,1.65-21.65-.03-30.48-.67-3.52-4.47-4.62-6.73-2.28-3.74,3.85-1.11,25.67-3.25,31.76h-2.99s-1.55-38.06-1.55-38.06c1.82-6.42,17.97-1.18,18.62-7.47.41-3.91-4.5-4.13-7.01-6.04-10.5-7.99-9.12-21.19.46-29.42,13.22-11.35,10.09,5.51,18.98,5.53,5.61.02,8.16-6.79,11.91-6.58,13.1,4.64,19.36,20.23,6.5,29.43-4.28,3.06-11.15,2.7-10.9,8.57.96-.25,2.13,1.01,2.49,1.01h20.5c1.92,8.25.76,17.05.96,25.54.12,5.07,4.51,17.96-3.95,16.46l-1.03-31.48-2.49-3.52c-1.54-.32-2.24,1.17-2.48,2.5-1.43,8.01,3.02,28.43-.49,33.51-2.14,3.1-3.24-5.17-3.39-6.65-.37-3.72-.41-28.15-2.14-29.37-7.29,1.28-3.05,12.31-2.95,17.45.06,3.17.48,16.95-.53,18.55-.63.98-1.39,1.18-2.5.99-2.85-4.52-1.83-35.45-4.61-36.06l-3.47.49-.94,35.57c-2.52,1.13-4.99-2.73-4.99-4.5,0-7.96,1.13-20.78,0-28h0ZM557.5,10.46c-8.98,0-2.92,13.62-8.16,15.38-2.22.75-9.82.47-11.9-.77-5.06-3.02.52-11.99-5.99-13.06-10.66-1.75-10,15.23-1.18,19.23,3.19,1.45,20.56,3.25,24,2.54,13.18-2.74,12.17-23.32,3.23-23.31h0Z"/>
  <path class="st0" d="M21,659c1.6-.22.67,1.61,2.22,2.34,4.19,1.96,12.07-6.56,12.76-10.87-2.58-5.8-9.79-6.73-14.97-3.47v-7.01s14-.51,14-.51c-.06-3.81-10.63-7.13-14.01-6.49v-6c2.73.11,5.55-.33,8.27.23,2.89.6,5.52,4.02,8.15,3.8,3.42-.28,6.93-5.94,9.84-7.26,8.37-3.81,17.19.18,22.17,7.3,7.67,10.94.61,19.09,2.59,29.42.69,3.57,8.19,8.51,9.02,16.97,2.29,23.36-17.19,29.29-35.58,20.57-4.14,1.95-5.72,5.94-10.45,7.5-1.88.62-13.31,2.2-14.02,1.49v-6c3.66,3.54,18.02-1.42,18.05-5.48.04-6.23-15.23,3.17-18.04-2.02v-34.5h0ZM62,655.99c2.02,2.16,4.59-6.69,4.75-7.73,2.77-17.95-14.17-31.93-23.76-11.78,3.86,4.07,7.54-1.75,12.48-1.55,10.42.43,7.89,13.99,6.53,21.07ZM53.52,641.33c-5.84.89-11.76,6.62-9.01,12.66,1.12,2.46,9.1,6.92,11.04,4.07.86-1.26,1.7-15.92-2.03-16.72h0ZM38.7,658.16c-7.58,1.8-6.48,14.99,2.56,13.67,10.69-1.55,5.15-15.51-2.56-13.67ZM72.66,689.67c4.93-7.74,1.98-21.78-7.65-23.66-.33,4.29,2.65,7.25,3.01,11.5,1.46,17.39-9.08,10.85-21.02,13.5-.76,7.99,12.99,8.85,18.37,5.85.81-.45,6.85-6.5,7.29-7.2ZM46.12,682.89c9.78,4.86,20.55.28,13.73-11.23-5.92-9.99-15.77,8.33-13.73,11.23ZM23.24,674.24c-1.96,1.95-1.65,9.79-.14,12.16,4,6.28,12.92,1.61,15.18-3.7,1.73-4.08-10.56-12.93-15.04-8.46Z"/>
  <path class="st0" d="M687.76,164.23c2.84,3.74-.6,6.18-1.49,9.54-2.13,8.01-2.07,12.39-7.76,19.24-17.52,21.12-42.31,1.5-48.08-18.99-1.69-6.02,4.58-5.66,4.64-10.49.06-4.14-5.2-7.2-5.89-12.3-.96-7.11,8.51-24.26,14.67-27.87,11.25-6.59,22.78-.75,31.62,6.66,4.82,4.04,13.77,16.31,13.47,22.53-.18,3.66-8.08,3.72-7.94,8.92l6.76,2.76h0ZM653.75,157.74c4.79-4.68-9.26-10.85-6.31-19.8,2.57-7.79,23.22-3.67,20.11,6.1-.63,1.98-9.35,11.41-4.03,12.95,2.58.75,5.52-3.92,7.53-5.43,4.04-3.04,8.44-1.45,6.16-8.28-1.5-4.49-7.08-12.72-11.67-14.33-11.52-4.02-25.36.67-29.59,12.49-4.92,13.74,5.09,8.56,9.48,11.62,2,1.39,1.57,4.87,4.27,5.79,1.14.28,3.22-.31,4.05-1.12ZM665.65,163.17c-9,5.01,2.39,11.47,2.41,17.33.04,9.65-17.69,9.96-16.9,2.27.39-3.79,9.06-15.66,2.13-17.62-5.07-1.43-5,4.41-7.31,6.33-2.69,2.24-7.11.5-8.73,4.01,7.49,17.58,23.78,28.57,38.72,10.98,2.95-3.48,8.99-11.29,4.54-15.48-1.45-1.36-3.78-.9-5.24-1.76-3.17-1.88-5.46-5.67-9.63-6.06h0Z"/>
  <path class="st0" d="M219.7,164.72c4.92-5.91-3.97-10.01-4.64-16.33-.77-7.29,8.81-23.97,15.23-27.6,5.82-3.29,12.46-3.57,18.68-1.26,5.69,2.1,16.86,10.67,20.06,15.94,1.8,2.97,7.12,14.65,5.08,17.11-1.46,1.75-6.81,2.09-7.06,5.81,1.12,2.85,4.78,2.17,6.53,3.53,3.66,2.86-.92,7.88-1.89,11.26-2.28,8-1.68,11.25-7.7,18.29-14.95,17.49-36.29,4.79-44.46-12.49-.72-1.52-3.66-9.36-3.55-10.45.29-2.87,2.76-2.63,3.74-3.82h0ZM238.74,125.25c-8.96,1.37-19.59,11.77-17.74,21.25,1,5.11,6.24,2.09,8.72,3.2,2.86,1.27,4.48,9.7,8.82,6.4,7.77-5.9-11.12-12.9-4.02-22.08,3.31-4.28,16.68-2.02,19,3.01,2.44,5.31-9.5,15.12-3.9,16.9,3.74,1.19,5.45-3.2,7.87-4.93,4.1-2.94,8.49-.84,5.74-8.73-3.72-10.66-13.22-16.74-24.49-15.02h0ZM232.77,168.76c-3.39,4.11-16.81-1.56-3.19,15.15,7.32,8.98,17.03,12.19,27.37,5.54,2.98-1.92,10.56-11.61,11.02-15.04.99-7.29-3.85-5.58-7.91-7.99-3.64-2.16-4.14-7.2-9.84-4.77-6.04,2.58,2.34,11.26,3.32,14.29,3.45,10.72-16.08,12.96-16.5,4.59-.25-4.99,11.98-18.74-1.04-18.1-2.59,1.23-2.3,5.18-3.25,6.32h0Z"/>
  <path class="st0" d="M646.73,533.23c10.73-1.96,16.17,1.26,24.18,7.35,6.63,5.05,13.85,13.38,15.05,21.99,1.04,7.44-6.97,5.16-7.01,9.92-.03,3.59,6.44,1.28,7.07,6.06.13.95-4.12,16.2-4.84,18.12-4.72,12.56-15.65,19.76-29.24,16.87-9.24-1.97-22.64-18.93-23.91-28.14-.89-6.49,4.07-4.09,4.07-9.92,0-4.81-3.97-5.35-4.87-10.23-1.85-10.02,9.08-30.13,19.49-32.03h0ZM664.73,550.25c4.03,4.11-4.14,11.52-5.59,15.42l1.87,2.89c3.03,1.51,6.36-4.13,8.45-5.59,2.36-1.66,6.86-.62,6.37-5.2-.34-3.17-5.83-11.55-8.29-13.8-11.54-10.57-33.85-1.58-35.34,13.84-.82,8.52,5.65,4.74,9.8,6.7,2.97,1.4,1.97,8.08,8.34,6.56,6.68-8.21-12.09-13.83-4.4-22.61,3.89-4.43,15.32-1.73,18.78,1.81h0ZM635.02,586.03c4.63,19.98,25.73,30.23,39.81,11.3,1.43-1.92,5.07-7.83,5.19-9.92.3-5.19-5.54-4.95-8.39-6.53-2.75-1.53-5.99-7.74-10.69-4.43-4.81,3.38,5.27,12.91,4.91,16.84-1.17,7.58-15.82,9.29-16.88,3.2-.77-4.45,7.48-15.94,3.1-19.04-5.65-3.99-6.52,4.74-8.09,6.05-1.51,1.26-8.55,1.96-8.97,2.54h0Z"/>
  <path class="st0" d="M250.7,533.33c.47.29.74,1.66,1.37,2.06,11.66,7.36,18.45,14.27,20,28.95-.33,1.39-16.01,4.94-.96,10.06,2.89,3.74-.9,6.68-1.62,9.59-2.15,8.64-2.26,13.94-8.96,21.04-15.1,16.01-35.49,2.3-43.41-13.63-.55-1.11-4.06-10.19-3.95-10.75.5-2.6,6.21-3.05,4.83-10.11-.94-4.81-6.38-3.94-4.9-14.95.8-5.94,9.77-19.8,15.2-22.79,6.12-3.37,16.48-3.17,22.4.53h0ZM260.75,558.76c4.14-3.36-7.06-18.21-11.02-19.99-12.27-5.53-31.94,3.84-31.8,17.77.07,6.33,6.93,4.46,10.06,5.96,2.46,1.18,2.84,8.59,7.98,6.05,6.71-3.32-3.28-10.96-4.76-14.32-5.22-11.92,10.99-12.71,18.13-7.1,6.73,5.29-3.45,10.82-3.43,16.38.03,8.19,8.17-1.6,10.72-3.4,1.21-.85,3.31-.72,4.11-1.36h0ZM253.71,574.31c-2.41-2.03-5.98-1.34-7.58,1.37-2.13,6.43,10.82,13.83,2.85,19.8-5.21,3.9-15.4,3.54-13.77-4.72.79-4.01,7.91-13.02,1.81-16.31-4.57-2.47-5.72,5.68-8.04,7.03-4.51,2.64-10.91-.62-6.16,8.22,7.31,13.63,21.69,21.88,34.73,9.34,1.93-1.86,8.46-11.15,8.44-13.41-.06-6.81-5.31-5.05-9.34-7.77-1.84-1.24-2.03-2.81-2.92-3.55Z"/>
  <path class="st0" d="M433.15,861.84l3.83,1.16c2.77-5.86,1.14-16.56,7.75-19.77,17.06-8.3,29.62,20.37,14.55,27.55-6.41,3.05-12.23-1.43-11.27,10.22,15.26-5.17,22.27,6.35,16.49,20-4.27,10.09-21.12,11.11-25.01,1.02-.96-2.48-1.07-11.39-2.99-12.01-4.34-1.39-4.77,10.12-7.47,13.51-8.82,11.08-27.32.6-26.73-10.87.07-1.41,3.76-9.74,4.69-10.91,4.14-5.26,16.05-.09,16.05-6.24,0-3.91-8.73-3.7-12.38-6.65-23.88-19.3,25.38-46.02,22.51-7.01h0ZM414.27,851.28c-5.14,4.22-3.07,15.53,5.13,14.7,14.99-1.5,6.11-23.92-5.13-14.7ZM447.26,866.73c5.78,5.28,15.71-8.34,10.8-14.29-10.3-4.9-17.91,7.79-10.8,14.29ZM431.75,868.25c-11.61,3.06-2.88,19.39,7.99,14.99,9.12-3.69,2.74-17.82-7.99-14.99ZM409.26,898.75c.5.44,6.21,2.23,7.25,2.31,11.28.86,12.65-17.55.09-16.04-6.31.76-12.35,9.34-7.34,13.73ZM452.77,885.17c-14.92,1.87-10.4,18.12,1.28,14.39,7.62-2.43,6.63-15.38-1.28-14.39Z"/>
  <path class="st0" d="M438.01,38l4.51-.99c1.8-5.65,1.3-16.38,8.43-18.57,17.19-5.27,27.79,20.92,13.07,28.15-5.2,2.55-12.18-1.2-11.02,9.4,12.74-1.21,19.87,1.22,17.91,15.42-1.6,11.63-14.86,18.66-23.96,10.13-4.4-4.12-3.35-14.9-5.46-15.54-5.2-1.59-3.72,11.95-10.14,15.84-15.53,9.43-31.56-11.6-19.37-24.37,5.8-6.08,18.77,1.58,14.04-8.99-15.39-.29-23.67-21.77-8.91-28.87,14.61-7.03,22.92,4.34,20.9,18.4h0ZM432.61,33.56c0-4.55-3.69-8.24-8.24-8.24s-8.24,3.69-8.24,8.24,3.69,8.24,8.24,8.24,8.24-3.69,8.24-8.24ZM452.26,42.73c5.38,5.08,15.89-8.86,10.8-14.29-6.67-1.35-13.2-1.39-13.16,7.07,0,1.84,1.11,6.05,2.36,7.23ZM439.5,43.45c-13.43,0-8.61,19.1,3.78,16.36,10.28-2.28,5.32-16.36-3.78-16.36ZM420.76,61.22c-20.85,3.05,2.15,27.73,9.49,9.47,2.4-5.97-3.38-10.37-9.49-9.47ZM456.76,61.2c-9.76,1.37-12.08,13.49-2.17,14.78,12.29,1.6,12.86-16.28,2.17-14.78Z"/>
  <path class="st0" d="M439.91,449.91c2.78-10.27,1.04-21.82,15.5-19.82,12.3,1.7,18.88,23.41,5.84,28.67-6.29,2.54-10.6-.65-11.25,9.24,8.44-.66,18.96-.39,19.08,10.49.14,12.1-8.08,21.54-20.63,17.55-9.96-3.17-5.99-19.08-10.94-18.03-3.04.65-2.95,11.79-7.77,15.35-13.31,9.82-31.2-6.51-21.6-21.71,4.95-7.84,12.3-2.67,16.27-5.53,1.54-1.11.86-4.8-1.07-5.96-4.5-2.7-10.11-.85-14.19-7.81-8.94-15.22,10.96-29.48,22.4-19.4,7.44,6.55-1.35,17.47,8.36,16.96h0ZM430.1,445.63c0-4.51-3.65-8.16-8.16-8.16s-8.16,3.65-8.16,8.16,3.65,8.16,8.16,8.16,8.16-3.65,8.16-8.16ZM458.66,452.66c2.97-3.1,5.78-11.46-.19-12.63-17.58-3.44-11.24,24.57.19,12.63ZM433.7,456.21c-9.19,2.73-4.03,18.46,7.55,15.54,9.33-2.35,5.18-19.32-7.55-15.54ZM417.73,473.23c-7.46,1.56-11.88,11.12-3.02,14.55,15.8,6.12,18.01-17.68,3.02-14.55ZM459.74,474.27c-4.63-4.38-19.15,3.63-12.21,11.7,6.23,7.24,20.47-3.89,12.21-11.7Z"/>
  <path class="st0" d="M271.99,241.01l-.9,6.59c-6.59,5.15-14.35-2.66-14.91-9.35-.29-3.41,4.75-11.52,8.33-12.22,14.35-2.81,21.77,15.15,18.79,26.79-.53,2.06-2.94,5.38-2.95,6.68,0,1.72,2.93,4.96,3.41,7.23,2.74,13.19-4.13,24.01-18.3,22.29-7.18-.87-12.53-10.38-5.46-14.52l-2-1.99c5.04-5.53,15.26-4.04,13.99,4.48-3.49-.12-5.03-2.29-8.05.47-6.59,6.02,7.9,13.62,12.56,2.53,4-9.53,1.39-18.07-10.01-18-15.55.1-9.55,19.09-19.14,24.86-3.14,1.89-11.17,3.42-14.87,3.23-10.84-.57-16.91-15.15-13.53-24.63.86-2.41,3.87-4.95,4.06-7.01.28-3.02-4.22-9.48-4.09-14.94.37-15.91,24.11-24.39,30.59-10.51,3.9,8.34,4.5,19.41,13.19,25.88,12.71.02,19.62-9.82,13.49-21.57-6.14-11.77-22.77,1.79-11.23,5.28,3.84,1.16,3.79-1.01,7.03-1.58h0ZM241.72,239.3c1.75,1.46,4.91,8.99,4.96,11.37.09,4.52-4.32,6.69-4.41,7.81-.06.72,3.12,5.88,3.5,8.26,2.59,15.82-17.32,14.4-16.55,5.92.79-8.74,6.48,1.11,7.39,1.29,3.63.75,6.25-6.87,1.95-11-7.55-7.25-13.9,6.17-14.35,12.82-.44,6.53,9.71,12.46,16.17,9.1,6.15-3.21,14.18-21.93,13.58-28.25-.46-4.82-8.54-20.59-12.6-23.47-10.27-7.27-19.33,6.27-14.23,16.22,4.1,7.99,15.81,8.24,13.74-2.72l-2.29-1.64-6.56,1.98c-2.02-6,4.78-11.81,9.71-7.7h0Z"/>
  <path class="st0" d="M689.68,256.68c4.29-5.09,3.09-19.85-4.41-21.49-12.62-2.75-13.33,14.68.72,8.81.98,7.31-5.53,10.4-11.04,5.54-11.9-10.51,2.52-29.51,16.56-17.56,4.18,3.56,6.57,13.25,6.56,18.51,0,4.3-3.24,9.19-3.07,11.92.19,3.14,3.8,7.26,3.62,12.92-.35,10.69-10.55,19.59-21.1,15.63-6.05-2.27-10.19-11.13-3.53-14.48l-1.99-.99c4.43-6.85,15.29-4.17,13.99,4.49l-4.55-2.05c-8.41,1.43-6.09,10.45,2.03,10.12,8.78-.36,13.87-20.97.96-22.99-21.28-3.34-12.08,19.22-24.88,24.99-14.9,6.72-29.45-1.77-27.48-18.46.53-4.51,5.5-9.91,5.57-11.1.16-2.65-5.52-8.01-4.39-16.74,1.61-12.42,18.95-20.65,28.26-11.78,2.73,2.6,4.24,12.55,6.62,17.38,4.45,9.02,12.45,18.1,21.53,7.33h0ZM649.11,275.88l4.41-.86c2.32-2.28,1.42-7.18-.49-9.55-6.99-8.67-20.64,11.01-11.55,19.55,7.1,6.67,15.53,1.9,19.93-5.11.97-1.54,7.21-18.38,7.18-19.42-.09-2.56-7.26-17.82-9.15-20.43-8.68-12.02-22.25-5.54-19.2,9.21,2.23,10.82,17.61,11.35,14.68-1.18l-8.91.91c-1.28-11.62,12.19-9.94,13.94.55,1.45,8.68-3.45,8.79-3.85,11.09-.35,2.02,7.58,8.65,2.13,17.08-2.43,3.76-10.28,4.75-12.99,2.04-2.23-2.23-1.71-10.61,1.79-8.3l2.08,4.41h0Z"/>
  <path class="st0" d="M258.28,669.7c3.13,2.65,10.87.19,13.65-2.27,5.91-5.22,4.84-21.02-3.49-22.37-13.91-2.25-11.47,15.27.07,7.96,4.55,6.29-2.44,9.99-8.49,7.45-10.36-4.35-6.42-26.5,9.7-21.69,9.92,2.96,12.49,16.58,11.19,25.63-.38,2.65-2.83,6.28-2.69,7.92.16,1.84,2.77,4.59,3.3,6.63,3.89,14.78-11.29,29.52-23.9,19.9-3.87-2.95-6.31-11.65.38-12.37l-3.01-.99c4.62-5.93,15.47-5.41,14.99,3.49-.69.75-9.61-4.33-10.08,3.5-.46,7.63,11.77,7.16,14.32-.76.6-1.85,1.9-10.34,1.3-11.69-1.34-3.07-7.77-5.86-11.04-5.86-17.1.02-9.41,20.47-21.77,26.05-13.2,5.97-27.05-1.06-27.36-15.89-.14-6.85,5.56-11.99,5.61-13.81.05-1.85-3.23-6.29-3.75-9.27-2.11-12.27,5-23.56,18.17-23.16,12.79.39,11.92,11.51,15.88,20.11.85,1.84,5.92,10.59,6.99,11.49h0ZM230.9,681.1l2.73,4.84c5.51,1.62,6.63-11.51-.37-12.78-8.24-1.49-14.91,15.04-8.3,21.39,8.1,7.77,16.38,1.71,20.58-6.5,1.21-2.38,6.32-15.66,6.4-17.62.16-3.52-6.74-17.62-9.12-20.73-10.9-14.27-24.46-1.04-18.03,12.03,2.53,5.14,10.73,7.95,13.47,2.05,5.09-10.94-8.7-4.19-9.25-4.77,1.15-17.82,18.02-4.53,14.79,6.29-.52,1.74-3.38,3.16-3.58,5.36-.19,2.05,4.03,7.62,3.75,11.79-.79,11.83-21.36,11.92-15.88-1.38l2.82.03h0Z"/>
  <path class="st0" d="M689.66,644.34c5.08,4.91,6.61,18.08,4.84,24.66-.48,1.8-2.52,3.68-2.46,5.51.05,1.48,3.18,5.14,3.72,8.22,1.76,10.11-4.16,21.35-15.26,21.34-9.32,0-17.99-9.47-8.5-16.07l-2.99-.49c2.73-4.18,11.06-5.2,13.87-.9,1.28,1.96,1.81,3.92-.38,5.36-2.42-2.2-4.88-2.52-7.52-.49-1.52,1.69-1.6,5.42,0,7.04,13.15,8.29,21.49-17.51,8.05-21.05-20.66-5.44-14.59,18.3-24.1,23.96-11.93,7.1-27.95,2.13-28.97-12.89-.64-9.43,4.91-12.98,5-16.03.07-2.19-2.91-5.25-3.49-7.48-3.76-14.51,5.99-26.33,20.97-23.96,9.99,1.58,9.19,11.21,12.38,18.61,1.3,3.01,6.86,12.77,9.66,13.33,7.75,1.54,15.68-4.45,15.54-12.45-.08-4.81-2.13-12.7-7.61-13.51-13.33-1.97-11.6,15.33.06,8.95,4.76,4.98-3,10-8.03,7.06-8.41-4.92-7.99-15.06-.96-21.07,4.1-3.5,12.66-1.04,16.18,2.35h0ZM650.76,677.24c-8.21-8.2-22.55,14.19-9.13,21.63,7.83,4.34,13.51-.29,17.4-7.33,1.13-2.04,6.48-15.43,6.79-17.29.58-3.54-6.89-19.92-9.38-23.18-8.8-11.54-23.97-2.1-17.94,11.94,5.51,12.82,18.39,4.09,14.07-2.06-1.72-2.45-6.99.52-9.56.06,1.52-16.66,18.35-4.58,14.55,7.07-.68,2.09-3.57,3.59-3.56,5.42.03,4.61,7.71,8.36,1.44,16.45-5.88,7.6-20.22,1.23-11.93-6.91l2.64,4.82h4.71c1.35-2.47,1.91-8.61-.09-10.6h0Z"/>
  <path class="st0" d="M145.99,545v-6c9.13-.32,18.25,13.3,19.01,21.5,1.35,14.57-7.64,28.9-23.49,27.51-9.43-.82-10.54-10.89-14.17-10.82-5.52.09-3.13,8.71-.88,11.85,7.22,10.12,22.32,5.37,31.53.96-1.1,7.7-13.84,11.72-20.46,12.04-14.51.7-24.66-12.38-22.28-26.31,1.48-8.71,8.46-8.64,9.61-11.4,1.38-3.31-1.31-4.41-4.35-4.36-13.06.25-12.85,21.22-8.89,29.95-1.54,5.64-5.8-2.89-6.68-5.37-3.39-9.52-3.26-17.73,4.03-25.09,5.96-6.02,14.89-11.3,23-5.93,3.36,2.23,5.19,11.27,9.62,7.56,4.06-3.41-1.84-13.33-5.87-15.3-7.91-3.86-14.81.29-22.71-.28,9.56-12.34,22.45-10.29,32.99-.51h0ZM148.01,547c1.75,7.56,4.14,14.89-.58,21.93-2.07,3.09-6.7,5.04-6.38,9.46,7.07,6.55,16.27-5.5,16.9-12.02.61-6.19-6.29-14.56-9.94-19.38h0Z"/>
  <path class="st0" d="M562.99,134.99v-5.99c26.19,6.41,24.2,53.28-6.41,48.9-8.78-1.26-7.41-10.2-15.49-9.81-3.96,19.89,20.66,20.17,32.9,11.9-1.7,10.8-18.71,13.67-27.81,11.32-11.71-3.03-19.19-20.64-12.19-30.83,1.26-1.84,13.72-7.93,5.51-9.48-6.91-1.3-10.05,1.43-12.38,7.61-3.41,9.02-.01,14.51.88,23.38-7.79-1.1-8.79-16.19-8.02-22.52,1.27-10.32,18.73-22.49,28.52-15.48,2.98,2.14,3.85,6.67,5.47,7.53,7.82,4.15,6.34-11.56-2.26-15.74-7.92-3.85-12.96-.63-20.27,1.16-4.68,1.15,3.77-6.96,5.21-7.8,5-2.93,11.02-2.74,16.25-.55,1.6.67,9.4,7.2,10.1,6.39h0ZM565.98,138.01h-1.98c3.58,6.69,3.77,15.46-.57,21.92-1.81,2.69-7.94,5.95-5,10.13,4.29,6.09,18.72-9.16,15.81-17.79-1.51-4.49-7.08-9.23-8.26-14.27h0Z"/>
  <path class="st0" d="M148.99,133l.02-7c24.14,7.2,25.08,48.65-2.55,50-11.01.54-11.32-8.56-15.12-9.86-8.57-2.93-5.08,9.1-.85,12.87,7.94,7.08,20.65,3.42,29.02-1,1.66,3.74-5.67,8.29-8.51,9.49-9.95,4.19-20.79,3.68-28.02-4.98-5.26-6.29-8.3-17.89-2.85-24.9,1.78-2.29,6.4-3.24,7.41-5.66,2.51-6.04-9.94-6.16-14.05,3.03-3.88,8.67-.2,14.75.52,22.51.14,1.48.6,2.91-1.49,2.49-10.68-13.09-9.99-26.8,4.16-36.82,11.99-8.48,17.07-2.77,24.99,6.68l2.86-.83c1.85-4.81-1.48-12.82-5.82-15.23-7.6-4.22-15.02-.13-22.7-.29,9.72-13.01,22.01-9.81,32.99-.51h0ZM144,168c5.97.74,9.5-.78,12.84-5.67,7.88-11.56.61-16.38-5.34-26.33-.45,4.63,1.79,8.4,1.27,13.21-.95,8.85-9.36,10.21-8.77,18.78h0Z"/>
  <path class="st0" d="M560.99,546.99l-.52-5c2.18-3.65,10.58,5.23,12.04,6.99,13.84,16.74,4.8,44.3-19.07,41.06-6.45-.88-8.78-11.63-13.83-9.98-4.28,1.4-.38,10.92,2.34,13.47,9.46,8.9,18.68,1.68,27.75-.35,5.96-1.33-1.69,5.54-3.37,6.64-8.5,5.55-21.33,6.29-29.35-.31-7.45-6.12-11.11-19.66-5.01-27.79,2.56-3.41,9.83-2.4,6.45-8.76-16.47-2.67-17.65,17.73-12.81,28.94l-2.1,2.08c-6.87-8.2-9.6-20.68-2.54-29.52,5.14-6.44,14.96-13.66,23.4-9.35,3.6,1.84,6.17,8.35,7.26,8.74,7.61,2.74,5.27-7.38,2.58-11.58-6.89-10.76-26.01-2.37-27.21-3.3,5.16-8.7,13.98-12.42,23.69-8.18,1.85.81,9.22,7.38,10.31,6.18h0ZM562.01,550c5.37,12.97.64,19.65-7.02,29.52,5.53,10.14,16.87-4.87,17.06-12.06.13-5-6.56-13.96-10.04-17.46h0Z"/>
  <path class="st0" d="M364,42.5c1.27,11.92,11.93,26.37.9,36.9-14.02,13.38-42.16-1.86-29.75-19.75,6.92-9.98,26.26-5.56,24.66,6.62-1.89,14.4-25.48,8.05-14.31-4.25l2.73,6.75c7.89,3.25,9.1-8.44,2.07-10.56-12.6-3.81-18.64,16.53-4.33,20.32,22.32,5.91,23.22-25.46,6.06-30.06-17.4-4.66-27,22.49-34.8,32.25-.94,1.18-1.13,2.74-3.21,2.28-1.04-1.21,3.98-17.87,3.98-21.5.01-11.02-9.05-25.17-6.3-36.32,4.82-19.56,39.58-15.16,36.08,5.08-.96,5.53-8.42,11.99-14.24,11.79-16.84-.58-11.62-24.04.45-18.52,3.68,1.68,5.36,8.27.49,9.29-9.33-12.99-14.12,5.08-1.98,5.05,15.16-.04,9.61-26.48-8.2-19.05-13.59,5.67-8.26,26.81,3.44,28.95,18.05,3.31,25.42-12.29,34.13-24.43,1.15-1.61.49-3.91,2.62-3.33,1.41.17-.49,1.27-.49,1.5,0,6.53-.66,14.75,0,21h0Z"/>
  <path class="st0" d="M359,865.5c.99,9.98,8.39,22.23,5.05,32.05-5.1,15.02-37,15.81-36.1-6.08.67-16.32,25.61-17.27,26.84-2.73,1.08,12.79-22.05,14.07-15.73-1.7l2.93-.05c.6,14.89,14.53,1.86,4.39-3.88-14.17-8.02-20.84,21.21-.24,20.3,22.34-.98,13.23-38.09-8.87-29.64-13.43,5.14-16.4,20.25-23.84,30.15-1.04,1.39-2.43,3.32-4.43,3.06-.85-.97,3.98-18.07,3.98-21.49.01-12.61-13.88-34.14-1.5-44.51,10.86-9.1,34.15-3.34,31.46,13.46-2.33,14.55-28.24,16.42-24.71-.72,2.34-11.35,16.05-6.09,14.36.3-2.02,7.59-6.53-2.35-8.95-1.94-6.98,3.42-1.85,9.99,3.86,9.98,13.91-.03,11.64-24.66-7.53-19.58-14,3.71-9.55,27.53,3.62,29.43,8.24,1.19,14.48-.78,20.4-6.41l15.01-21.49c.5,6.93-.68,14.68,0,21.5h0Z"/>
  <path class="st0" d="M361,451.5c1.07,9.61,6.89,20.11,6.05,30.05-1.73,20.41-37.61,19.75-37.12-2.05.28-12.39,18.46-18.76,25.53-7.46,5.28,8.44-3.36,17.64-10.81,13.83-4.57-2.34-7.39-8.85-1.16-10.87,1.81.41,1.2,7.17,4.84,6.84,8.54-.77,3.44-15.57-7.9-10.92-4.27,1.75-6.05,7.89-4.97,12.09,3.8,14.83,35.5,8.66,23.95-13.92-9.57-18.71-27.42-4.39-35.2,7.6-2.92,4.49-6.09,13.08-9.2,16.8-.88,1.06-1.46,1.81-3,1.49-.09-9.12,3.88-15.99,2.98-25.49-1.13-12.01-11.07-26.49-3.22-38.24,5.69-8.51,23.78-8.61,30.24-.78,9.11,11.02-2.56,27.77-15.59,22.58-10.1-4.02-6.91-18.65,2.06-18.13,9.03.52,6.98,11.02,3.05,10.05l-3.54-4.56c-9.33-1.1-5.48,9.6,2.51,9.62,10.73.03,12.58-18.76-2.01-20.06-20.06-1.79-17.43,26.74-3.78,29.8,19.38,4.34,27.28-14.39,36.28-27.3,2.49-1.33,0,2.82,0,3.01,0,4.98-.53,11.25,0,16h0Z"/>
  <path class="st0" d="M521,325.5c.13-.61,1.86-3.04,2.47-3.53,2.49-1.98,14.06-2.81,17.99-3.01,5.2-.27,20.51-.86,24.07,2.01,1.34,1.08,3.44,4.13,1.5,5.53-3.54,3.24-14.56-.3-19.49-.54-2.72-.13-18.31-.33-19.33.27-2.26,1.31-5.28,8.52-.51,9.57l37.78-1.76c7.52,1.5,3.8,16.84,1.38,21.83l-39.19-1.9c-1.61,1.35-2.27,4.03-.7,5.55.8.77,8.48,2.49,9.53,2.49h30.5c.31,7.6,5.17,25.33-4.99,27l-2.58-7.98c-5.4.17-3.34,6.98-8.1,7.79-3.84-.09-3.39-9.33-10.3-6.78l-1.09,6.92c-7.3,1.91-4.61-12.46-13.04-6.54l-2.39,5.58c-3.74-2.82-4.05-7.03-3.37-11.36.72-2.11,5.25-2.5,7.32-2.67,5.82-.48,29.37,1.34,32.08-.95,3.48-2.94-.43-5.62-4.02-6.01-11.46-1.23-23.03,2.97-34.3-.21-2.21-1.58-2.34-22.24,5.27-19.89,8.97.15,21.39,3.2,29.89,2.75,4.31-.23,3.27-6.72.96-7.48-12.11-4.03-25.32,2.98-37.33-.17.68-4.84-.94-12.04,0-16.5h0Z"/>
  <path class="st0" d="M105,760.5c.1-.5,1.54-2.72,2-3,11.66-1.64,23.61,1.95,35.36,1.35,7.51-9.47-12.19-8.23-17.85-7.84-13.62.93-23.07,8.32-20.54-12.54,1.05-8.62,7-8.98,14.48-9.52,5.84-.42,22.78-.86,27.83.25,3.23.71,6.58,4.18,3.73,7.3-2.52,2.76-11.63-.39-15.47-.56-5.11-.22-16.55-.77-21.01.07-5,.93-7.81,10.05-.04,9.98,6.62-.06,15.27-1.84,21.98-2.05,2.92-.09,13.85-.47,15.55.53,3.67,2.17,2.05,16.81-.48,20.54-3.78,3.86-33.6-4.77-40.4-.91l.77,5.47,2.62,1.37,37.47,1.03v23.5c0,2.94-3.73,2.81-5.99,2.5-1.88-14.35-4.6-3.66-7.49-.99-4.81,4.44-5.85-3.52-7.49-4.52-6.8-4.18-5.67,7.37-9.51,6.51-2.4-.54-1.47-8.06-7.01-8.09-4.17-.02-3.61,2.72-3.5,6.1l-3.86-.15c-1.16-4.06-4.14-9.59.53-12.7l35.19.17c3.04-.13,3.03-3.22,3.21-5.76-.42-3.06-33.27-.79-37.57-1.58-1.12-.21-1.87-.51-2.5-1.5.62-4.43-.86-10.91,0-15h0Z"/>
  <path class="st0" d="M107,322.5c.3-1.39,2.46-3.58,3.94-4.06,5.3-1.74,35.18-2.5,39.66-.54,4.41,1.94,4.09,6.54-.56,7.67-2.71.66-9.14-1.49-12.5-1.61-5.4-.19-17.35-.83-22.02.06-3.16.6-4.9,4.38-4.44,7.35.54,1.67,2,1.52,3.37,1.68,11.46,1.34,26.46-3.06,37.02-1.02,6.65,1.28,4.17,20.44-.16,21.78-7.3,1.31-32.24-5.38-37.32-2.32-1.81,1.09-2.32,4.75-.75,6.27,2.58,2.49,23.94.86,29.3,1.2,3.48.22,6.83,1.61,10.45,1.05.58,6.12,1.56,12.33,1.04,18.53-.25,2.99-1.52,10.41-6.12,7.04-1.72-1.26.22-6.62-3.43-6.62-3.79,0-3.74,6.76-5.13,7.1-6.65,1.51-4.55-6.46-10.76-6.98l-4.12,7.92c-5.93-2.12-2.59-10.41-11.35-7.86l-1.14,5.86c-5.85.7-5.79-7.98-4.41-12.12,3.48-2.48,29.6.13,36.69-1.16,4.3-.78,2.48-2.92,2.72-6.73h-37.5c-4.07-2.27-2.74-18.02-.56-19.56,4-.7,8.53-.62,12.6-.48,5.53.18,17.34,2.93,21.96,2.05,2.93-.56,3.14-3.87,2.55-6.35-.56-2.33-15.65-1.87-18.58-1.7-6.49.36-15.3,4.39-20.46-.46.68-4.68-.93-11.7,0-16h0Z"/>
  <path class="st0" d="M557.5,786c1.88-.57,2.49-4.95-.18-5.82-6.51-2.12-36.43-.03-37.88-2.12-.61-3.24-1.09-15.95.8-17.83,3.13-3.13,29.29,1.6,35.07,1.61,2.77-.64,3.85-5.94,1.75-7.41l-36.39.4c-4.07-1.37-5.45-20.73,5.07-22.6,6.77-1.2,21.91-1.83,28.8-1.27,4.6.37,11.75,1.14,10.54,7.4-.74,3.82-15.72-.18-18.6-.35-3.84-.22-17.89-.65-20.47.5-3.01,1.34-5.38,7.97-1.35,9.32,9.63-.41,19.23-.58,28.88-.8,5.29-.12,10.92-3.97,13.39,3.55,1.85,5.62-.87,11.8-2.03,17.31l-38.45-2.49c-6.15,3.92-.06,8.6,5.04,8.6h32l1.5,1.5v15c0,.3.85,1.05.84,1.96-.05,3.22-.85,7.71-4.49,8.42-3.44.26-1.54-7.43-4.82-7.67-4.17-.31-3.11,7.17-7.17,7.49-5.13.41-2.69-9.16-11.35-6.7,1.04,4.02-1.19,10.14-5.05,5.55-2.3-2.74-.73-7.55-7.33-6.48l-4.11,6.92c-3.07-3.49-4.62-8.6-2.37-12.85,2.02.61,5.35-1.14,6.35-1.14h32,0Z"/>
  <path class="st0" d="M243.25,462.23c-.5.46-.6,1.68-1.17,2.28,5.94,5.38,13.89-.6,19.94,6.25,3.16,3.58,6.37,18.16,2,20.74-1.39.82-12.38.82-14.46.44-9.6-1.76-7.83-13.11-10.26-18.73-.44-1.03-.24-1.52-1.79-1.3-6.23.21-5,13.55-9.49,18.59-5.14,5.76-20.85,7.62-22.07-1.97-1.02-8.02,3.13-15.45,10.54-18.56,2.36-.99,13.55-2.68,13.53-3.49-.09-3.82-7.04-3.25-9.74-4.26-5.21-1.96-10.27-5.24-12.47-10.53-4.64-11.18-1.83-14.4,9.68-14.76,11.36-.36,13.46,10.11,14.53,19.42.22,1.51,3.68.93,4.83-1.02,2.43-4.1,1.59-14.81,6.2-18.8,2.75-2.39,15.13-4.44,17.98-2.04,1.53,1.29,1.48,17.23.47,19.49-2.29,5.1-15.11,5.39-18.23,8.25h0ZM257.85,438.16c-7.21-3.29-16.99,5.17-15.85,12.84,1.55,1.78,9.13-9.64,12.47-9,5.11.97-5.42,10.55-5.46,11.5,1.48,2.37,2.85.65,4.47-.51,5.91-4.23,5.44-8.3,4.36-14.83h0ZM216.68,440.33c-10.61.16-7.47,11.67-.63,16.13,1.42.93,9.84,4.47,6.96.05-1.42-2.18-9.02-7.9-8.98-10.01.12-6,10.44,6.38,11.49,6.28l2.06-2.81c-2.05-4.81-4.86-9.72-10.9-9.63ZM244.01,477.01c-1.61,12.95,22.68,18.22,17.79,1.7-.46-1.56-4.52-5.05-6.09-5.91-1.06-.58-9.14-3.81-7.7-.31.91,2.24,12.55,9.04,9.99,11.51-5.95.94-7.96-7.3-13.99-6.99h0ZM225,473.01c-9.23-1.47-16.15,8.31-14.86,16.85,8.42,2.58,19.05-1.91,18.86-11.85-1.14-1.33-11.35,10.48-14.99,7.99-2.8-2.7,10.52-10.16,10.99-12.98h0Z"/>
  <path class="st0" d="M674.71,457.72c-3.23,3.73-19.27,4.7-17.7,9.77.88,2.84,13.52-.51,19,6,2.9,3.44,4.82,12.65,3.97,16.99-1.19,6.01-14.54,5.36-18.89,2.94-7.6-4.23-5.1-12.11-7.8-18.19-.45-1.01-.17-1.54-1.78-1.31-6.1.21-4.96,11.17-7.3,15.77-4.28,8.38-22.41,12.41-24.13,1.74-1.17-7.25,2.67-15.27,9.24-18.64,2.95-1.51,13.4-2.23,13.75-3.37.18-.57.11-2.78-.2-3.29-9.07-1.58-18.12-3.35-21.35-13.15-4.16-12.64.9-14.21,13-13.44,10.88.69,10.52,19.93,13.06,20.42,1.21-.21,2.81-.56,3.43-1.72,2.57-4.8.38-14.54,6.47-19.27,3.3-2.56,17.2-5.06,18.38-1.33,1.33,4.22,1.91,16.54-1.14,20.07h0ZM663,456.99c7.56-.65,13.52-10.97,7.37-16.85-6.72-2.32-16.7,6.81-13.87,13.86,3.37-2.12,7.06-7.04,10.19-8.82,1.07-.61,2.88-1.79,3.31.34.59,2.92-6.33,8.32-7,11.47h0ZM629.01,447.01c3.89-.74,8.07,8.52,10.48,7.99,4.1-.89-.15-10.11-5.46-11.52-18.14-4.82-9.29,19.68,3.97,17.52,1.98-1.72-11.64-10.07-8.99-13.99ZM674.83,490.83c3.69-5.36,1.36-11.91-4.12-15.04-1.89-1.08-10.45-4.45-7.71-.29,1.6,2.43,11.63,8.74,9,11.49-2.04,2.14-10.18-7.3-12.52-7.98-1.77-.23-1.51-.05-1.52,1.5-.05,8.8,9.36,11.83,16.87,10.31h0ZM639,475.01c-13.49-1.52-24.32,24.22-3.76,16.73,4.58-1.67,7.49-5.84,7.76-10.73-1.39-1.43-9.55,6.92-11.93,7.58-1.82.51-1.88.36-3.07-1.11-.61-3.2,9.75-8.91,11-12.47h0Z"/>
  <path class="st0" d="M659,55.99c4.7,1.9,9.89.09,14.57,1.94,8.99,3.56,10.09,15.73,7.49,23.63-8.03,1.96-18.98,2.89-22.8-6.32-1.34-3.24-1.3-13.29-4.76-13.29-4.98,0-4.88,16.24-10.52,20.53-1.95,1.48-9.18,3.38-11.59,3.43-14.57.27-10.64-23.22,4.35-26.67,3.35-.77,9.06.97,10.26-3.72-3.16-3.24-7.68-2.28-11.99-4.02-9.4-3.8-12.36-12.85-10.89-22.39,17.57-5.22,23.64,1.13,25.89,18.25,3.65,6.53,7.06-14.08,7.53-15.33,2.11-5.68,5.16-7.21,11.08-7.91,5.99-.71,10.62-1.57,11.41,5.37.9,7.9,1.53,14.26-5.81,18.22-2.91,1.57-16.91,4.15-14.2,8.28h0ZM673.76,28.21c-3.67-3.94-17.24,6.2-15.75,12.26l1.99,1.04c1.39-1.27,10.33-11.33,11.99-9.51,1.67,5.26-5.39,8.07-6.01,11.48-.6,3.32,3.37.37,4.5-.51,4.01-3.11,6.88-10.9,3.27-14.77h0ZM639.3,41.67c4.77,4.08,5.49-1.27,2.53-6-3.59-5.73-8.61-5.92-14.58-3.42-3.78,8.38,4.41,16.77,12.75,16.75.15-5.4-7.37-6.53-8.58-10.93-2.41-8.71,7.36,3.15,7.89,3.61h0ZM675.66,65.34c-1.95-1.93-9.49-6.12-11.64-2.84.05,1.62,9.37,7.25,10.5,9.48.69,1.36.05,2.8-1.04,3.02-2.77.56-11.35-10.14-13.47-8-.45,8.07,9.39,14.49,16.77,11.33,4.37-1.87,1.69-10.21-1.11-12.99h0ZM640.99,63.01c-8.85-.3-15.33,8.47-14.91,16.89,8.91,2.76,18.24-1.09,19.91-10.89-2.16-2.02-11.33,9.21-14.99,7.99-1.11-7.15,8.71-8.12,9.99-13.99Z"/>
  <path class="st0" d="M619.26,907.74c-3.41-3.63-1.1-14.87,2.3-18.68,5.74-6.44,9.71-4.97,16.71-6.34,1.42-.28,3.07-.33,2.76-2.24-.68-4.33-7.08-3.06-10.06-3.95-10.32-3.08-14.08-13.39-12.85-23.42,1.14-1.34,15.64-1.6,17.87-.59,4.61,2.08,6.46,13.04,7.74,17.3.41,1.36-.34,2.6,1.78,2.21,5.39-.74,3.79-16.15,8.79-20.71,2.76-2.52,14.6-4.65,17.71-2.82,3.04,1.79,2.55,16.95.88,19.9-3.07,5.4-12.89,5.22-17.19,7.81-8.36,5.03,10.77,5.29,13.32,6.28,8.6,3.34,9.08,14.78,7.49,22.53-7.53,4.12-19.64,3.22-23.21-5.81-1.15-2.91-2.19-19.51-7.74-11.14-3.37,5.08-1.19,13.62-7.62,18.38-4.24,3.14-14.8,5.43-18.67,1.31h0ZM668.86,852.14c-8.04-1.43-16.01,5.79-15.85,13.86,5.32-1.96,7.9-8.83,13.98-8.99,1.21,4.61-4.69,7.17-5.98,10.51-.95,2.44,2.18,1.45,3.53.53,5.42-3.67,6.99-9.99,4.32-15.9h0ZM626.01,860.01c5.41-2.16,7.82,8.04,11.48,6.99,4.04-1.17-1.47-9.5-4.11-10.86-3.24-1.68-8.48-1.94-11.41.54-1.75,9.73,3.5,15.72,13.03,16.33,2.55-2.38-10.8-8.93-8.99-12.99h0ZM655.01,891.01c-.01,7.98,7.69,13.46,15.47,11.96,5.65-1.09,3.85-9.57.95-12.89-1.61-1.84-12.53-7.12-12.4-3.58.99,2.44,13.49,9.99,10.97,12.49-3.83,1.67-12.94-10.1-14.99-7.99ZM635.99,887.01c-8.35.03-16.92,9.21-13.59,17.06,9.04,3.51,16.72-2.15,18.59-11.06-3.78-.61-12.27,10.11-14.99,7.99-4.36-3.38,10.49-9.72,9.99-13.99Z"/>
  <path class="st0" d="M263.75,22.25c2.17,1.86,1.62,16.22.12,19.13-3.32,6.41-17.76,7.18-18.72,8.77-.31.51-.37,2.81-.18,3.34.53,1.54,11.18,1.31,13.31,1.74,9.62,1.94,11.6,15.59,8.82,23.37-7.3,2.77-18.16,3.15-22.3-4.9-1.25-2.42-3.45-20.82-8.63-12.03-3.16,5.35-.32,13.54-8.22,18.78-4.65,3.09-17.63,4.78-18.93-1.97-2.45-12.77,3.73-19.63,15.56-22.4,2.44-.57,8.4,1.29,7.43-3.57-14.52-2.56-25.9-8.61-22.58-25.58,19.87-6.11,20.16.19,25.31,15.87.44,1.33-.41,2.62,1.77,2.22,5.79-.79,2.85-16.3,9.98-21.03,2.9-1.92,14.65-3.99,17.25-1.75h0ZM257.65,39.65c2.95-2.86,3.95-6.07,3.39-10.2-1.5-11.05-18.81,1.43-17.04,9.54,2.73,2.67,10.04-10.54,13.99-8.99,2.7,2.81-7.81,9.95-5.5,12.99,1.43-1.42,3.76-1.99,5.16-3.34ZM217.01,33.01c5.21-1.68,7.32,8.06,11.48,6.99,3.6-.92-1.31-8.93-3.75-10.23-6.63-3.56-14.55-1.45-12.28,7.26,1.51,5.78,8.06,9.01,13.54,9.98,2.61-2.82-10.52-10-8.99-13.99h0ZM263.75,75.76c6.36-5.5-5.99-19.56-13.75-16.75l10.99,12.47c-1.46,1.89-1.15,1.23-2.66.71-4.48-1.55-6.66-6.07-10.84-8.17-3.61,2.79,1.4,9.14,4.16,10.82,2.84,1.74,9.44,3.21,12.1.91h0ZM226.99,61.01c-8.51-1.17-16.73,8.6-14.01,16.52,8.65,3.44,17.94-2.05,19.01-11.52-1.83-1.93-11.27,10.12-14.99,7.99-2.67-4.06,12.01-11.28,9.99-12.99h0Z"/>
  <path class="st0" d="M258.86,846.14c1.32,8.25,4.36,19.22-4.63,23.59-2.58,1.26-17.05,3.95-14.22,8.26,6.68,2.3,13.49-1.07,19,4.51,5.12,5.18,4.42,13.88,3.56,20.57-1.36,1.96-15.91,1.2-18.74-.39-7.14-4.01-4.73-18.71-9.32-18.73-4.7-.02-5.33,15.89-10.27,20.08-5.44,4.62-20.61,5.5-20.89-4.33-.22-7.65,3.77-14.92,10.95-17.89,4-1.65,13.62-.73,12.71-5.29-14.52-2.56-25.9-8.61-22.58-25.58,4.61-1.51,14.49-3.45,18.51-.38,3.19,2.44,6.45,14.17,7.15,18.35l3.29.15c4.43-16.39,4.7-26.01,25.47-22.91h0ZM247.01,866.99c10.29-1.34,14.61-21.62.27-16.21-4.53,1.71-8.29,7.33-8.28,12.21,2.57,2.47,9.97-9.97,13.99-8.99,1.36,6.21-6.01,7.62-5.99,12.99h0ZM221.69,855.31c-2.34-2.59-10.98-3.55-13.21-1.33-4.88,7.1,3.99,16.17,11.05,17.01,1.48.17,1.78.1,1.48-1.5-.66-3.59-7.89-6.97-9.01-10.97.32-1.61,1.45-1.23,2.67-.71,3.38,1.45,5.2,6.08,8.81,7.19,3.25-.69-.56-8.32-1.8-9.69ZM258.76,899.76c5.99-6.01-5.32-18.33-12.76-16.76-2.92,2.83,11.82,9.45,9.99,13.99-5.52-.01-8.88-7.38-13.49-8.01-1.68-.23-1.61-.02-1.53,1.53.35,7.33,12.71,14.34,17.8,9.25h0ZM222,885.01c-13.45-1.39-23.55,24.5-2.98,16.51,4.03-1.57,7.93-7.08,7.97-11.52-4.06,1.36-6.88,5.22-10.3,7.19-1.18.68-4.17,2.73-4.69.29-.88-4.1,9.12-8.58,10-12.47h0Z"/>
  <path class="st0" d="M415.31,375.71c-.79-.92-1.16-2.01-1.23-3.22,1.13-6.12,16.16-15.41,16.68-20.13.94-8.63-21.98-14.38-18.26-22.35.38-.8,7.29-7.57,8.49-8.53,9.36-7.45,19.17-6.95,30-2.98,2.48.91,14.95,7.39,16.09,8.91,5.88,7.81-21.23,19.06-14.09,27.09,2.77,3.11,19.67,7.68,19.06,13.93-.4,4.04-22.79,20.02-27.71,20.27-3.28.16-26.91-10.51-29.04-13h0ZM435.74,320.23c-4.69.81-11.84,6.32-11.85,11.27-.01,5.86,11.28,13.24,16.65,13.54,5.26.29,20.83-8.89,18.74-13.74-2.23-5.18-17.89-12.05-23.54-11.08h0ZM439.74,357.23c-4.68.81-16.25,10.43-15.77,15.24.4,4.03,16.85,9.73,20.48,9.49,2.16-.14,16.26-9.41,17.11-10.95,1.83-3.36-5.1-7.82-7.63-9.43-4.39-2.79-8.83-5.28-14.18-4.35Z"/>
  <path class="st0" d="M464.73,739.25c.51.52,1.06,1.77,1.11,2.47.46,6.03-17.51,15.38-16.87,21.74.67,6.6,24.76,9.68,19.09,20.11-10,6.88-19.22,19.8-32.61,15.46-4.42-1.43-22.89-9.41-23.49-13.59-.4-6.63,15.23-14.92,16.05-19.99,1.56-9.66-15.92-12.64-18.88-21.14,12.23-18,25.98-20.63,45.25-11.19,1.22.6,9.93,5.71,10.35,6.14h0ZM432.73,732.23c-6.44,1.34-15.12,9.56-9.74,16.29,3.9,4.87,12.98,9.56,19.29,8.25,4.03-.84,15.67-9.5,14.33-13.79-.83-2.66-13.71-9.76-16.57-10.5-2.52-.65-4.75-.78-7.31-.24h0ZM437.76,769.22c-6.59.97-15.73,9.38-16.67,16.12,1.01,3.35,18.35,9.27,22.18,8.49,3.13-.64,16.12-9.82,15.79-13.28-2.96-5.54-15.27-12.22-21.3-11.33h0Z"/>
  <path class="st0" d="M348.99,537.01c.33,5.43-9.05,7.45-8,12.47.35,1.7,1.46,1.18,2.65.69,4.11-1.68,7.53-7.08,11-8.05,1.99-.56,2.28,2.63,1.94,3.9-1.99,7.35-18.67,9.5-15.59,19.97,1.71,1.77,11.83-8.25,13.51-9.99,2.51-1.04,1.54,5.43,1.28,6.29-1.22,4.1-13.25,9.82-15.78,14.2l3.02,2.07,12.47-9.56c4.44,10.14-8.28,12.4-13.86,18.14-1.98,2.03-2.65,5.35,1.02,4.05,4.9-1.74,8.32-6.8,13.33-8.19,3.98,9.41-11.53,7.75-8.33,15.02,3.2.68,8.1,1.81,7.33,5.97-5.14,2.46-13.27-3.89-16.32-3.75-4.02.19-11.07,7.48-17.02,5.64l-1.65-2.37,7.97-5.07c-1.83-7.17-12.48-7.07-7.97-16.44,2.17-1.53,7.53,8.38,9.99,9.5,1.99.9,4.04.42,4.02-1.98-.08-7.24-19.96-12.99-14.01-22.52l13.53,12.98c5.29-1.28.45-6.16-1.52-8.5-4.17-4.99-14.83-10.08-12.89-16.84l1.9-1.2,13.46,12.55c1.39-.99,1.61-1.83,1.59-3.5-.07-6.32-18.01-13.9-18.07-21.93l2.33-1.43c3.88.33,13.24,15.13,16.65,11.87,1.4-3.28-8.82-11.32-6.99-12.99,3.96-1.6,6.05,4.03,8.49,4.03,2.7,0,5.64-7.26,10.5-5.03h0Z"/>
  <path class="st0" d="M350.99,125c.31,5.99-9.66,7.61-6.99,13.99,6.3-.63,8.29-9.35,14.99-8.99,1.91,11.84-18.58,11.7-14.99,23.99,2.61,1.88,14.37-13.96,15-9.49,3.45,8.7-17.21,15.41-16,20.98,1.36,1.81,1.2,1.24,2.76.81,3.61-1.01,8.54-6.82,11.74-9.27,8.27,9.28-15.62,15.18-15.48,20.49.17,6.26,15.66-7.98,16.97-6.5.95,7.66-2.23,6.3-6.33,9.16-8.93,6.21,2.07,5.03,5.32,10.34-4.98,5.26-12.94-2.71-17.23-2.32-4.37.4-11.54,7.67-17.74,5.81-1.21-5.96,4.81-5.22,7.98-8.49-4.28-5.35-11.54-7.66-8.98-15.49,2.05-2.45,11.28,14.46,15,8.47.85-4.27-13.33-13.06-14.51-15.47-1.11-2.28-.28-5.52-.48-8,1.93-2.18,11.37,13.17,14.5,12.97.91-.79,1.46-1.1,1.48-2.43.09-5.33-17.17-15.92-16.97-20.93.05-1.23,1-2.36.99-3.62l15.49,12.98c.96-.78,1.41-1.16,1.54-2.48.81-8.26-20.96-14.48-18.04-24.49,2.76-2.86,13.05,14.07,17.99,11.99,1.48-3.38-7.84-11.21-5.99-12.99,3.61-1.77,6.45,4.26,8.36,3.92,1.85-.32,4.96-7.17,9.63-4.92h0Z"/>
  <path class="st0" d="M352.71,284.72c-3.89,3.53-7.73-4.54-10.35-6.57-6.32-4.89-16.05-4.05-21.79-12.21-6.99-9.96-1.97-25.98,10.92-26.02,4.99-.02,14.3,4.3,16.8,3.91,2.93-.46,4.93-4.24,7.36-5.68,15.57-9.2,36,14.62,17.27,30.27-4.35,3.63-10.45,5.45-14.42,8.58-3,2.37-3.99,6.08-5.79,7.72h0ZM357.99,265.99c-4.83,1.03-4.27-5.52-8.48-5.07-2.75.29-5.3,8.88-10.05,5.1-2.05-2.98,10.65-15.56,1.59-18.57-8.74-2.9-19.58,5.22-15.32,14.32,2.52,5.36,21.01,11.76,26.55,11.03,5.1-.68,19.85-13.72,19.67-19.19-.4-12.68-22.14-11.12-18.71,1.65.94,3.51,6.38,5.79,4.75,10.74h0Z"/>
  <path class="st0" d="M344.35,695.64c-1.72-1.55-2.39-3.54-5.03-5.46-7.18-5.22-15.64-4.04-21.75-13.25-5.93-8.92-1.31-23.33,10.01-24.89,5.37-.74,15.01,4.29,17.89,3.99,2.22-.23,5.92-4.73,8.18-5.89,13.98-7.16,29.62,8.98,22.92,22.91-4.91,10.19-15.46,10.78-21.46,16.54-3.7,3.55-4.55,11.65-10.74,6.05h0ZM342.71,677.69c-2.08,1.74-5.47,2.06-5.76-1.2-.38-4.33,8.19-9.39,4.12-15.07-4.94-6.89-20.58.59-18.92,9.84,1.27,7.06,20.04,13.94,26.27,13.66,4.7-.21,17.39-10.48,19.62-14.37,5.2-9.05-5.15-17.71-14.01-12.02-10.75,6.91,5.46,16.1,1.96,19.46-3.02,2.89-5.67-5.02-8.49-5.02s-3.48,3.62-4.79,4.72h0Z"/>
  <path class="st0" d="M456.36,548.63c2.93,1.97,5.99,2.64,8.55,4.86-4.01,4.76-.73,8.21.95,12.88l-8.73,7.34c-1.15,4.01,4.03,7.64,5.69,10.81-4.03,4.46-8.33,6.45-6.83,13.49-5.17-1.83-9.02-1.16-13.51,1.77-2.31-.2-5.61-10.02-8.52-11.31-3.42-1.51-6.98,2.84-10.22,2.37-1.08-.16-9.53-5.04-10.21-5.86-1.82-2.18-3.38-12.18-1.51-14.46,5.67-6.88,13.11-2.66,2.12-15.84,4.12-5.22,7.95-7.72,6.86-15.67,2.59-.22,2.94,2.58,5.54,3.01,4.06.67,7.67-3.3,10.47-1.56,2.44,1.52,2.04,9.36,5.68,10.41,4.3,1.24,5.83-4.73,9.79-5.53,2.37,0,2.89,2.64,3.87,3.29h0ZM435.75,551.26c-3.7-3.55-14.15.24-12.36,5.77,1.11,3.41,7.41,6.43,3.68,11.54-3.96,5.43-17.4,6.2-2.53,17.45,4.62.47,7.87-6.9,12.8-5.93,3.11.99,2.23,10.72,8.93,9.73,1.8-.27,7.18-3.65,7.53-5.46.18-4.55-7.02-9.52-5.69-13.7,1.08-3.41,12.27-2.3,9.69-10.96-.7-2.36-4.98-4.66-7.32-4.61-3.32.07-7.18,5.61-9.83,4.84-2.69-1.49-3.26-7.13-4.89-8.69h0Z"/>
  <path class="st0" d="M439.87,128.13l3.05,9.2c4.69,5.62,10.21-4.65,12.45-4.26,3.46,3.49,6.48,6.28,11.61,6.96-2.63,6.56-1.19,8.05.89,14.25l-8.74,7.41,5.81,10.66c-3,3.89-9.14,6.85-5.93,12.63-5.69-.76-10.04.74-15.37,2.09-4.87-10.68-6.18-13.31-17.91-8.23l-10.59-6.49-1.99-11.66,9.77-8.31-5.91-9.92c4.1-5.7,7.57-7.31,5.99-15.47,3.04.01,4.28,2.9,7.5,3.09,3.55.21,5.86-2.79,9.37-1.96h0ZM458.72,145.28c-6.76-6.79-12.48,3.8-16.1,2.67-3.94-5.1-2.48-11.17-11.05-9.9-12.74,1.9.11,13.08-.71,16.24-4.04,6.71-14.7,6.2-8.31,15.66,5.75,8.51,9.85.53,15.96-2.7,4.48,2.19,3.9,11.42,10.26,10.09,16.22-3.4.54-13.41,1.37-17.71,3.55-4.6,16.16-6.73,8.58-14.35h0Z"/>
  <path class="st0" d="M21,20c1.46-.22,1.39,1.76,1.69,2.8,1.02,3.56.3,14.61,4.78,13.17,5.1-8.29.29-20.28,14.19-20.59,9.72-.21,15.87,11.36,15.44,20.14-.17,3.49-3.11,6.18-6.14,7.94-5.63,3.28-13.76.27-11.95,10.54,28.12-8.16,20.79,37.06-2.71,27.21-7.34-3.07-7.45-10.21-7.3-17.21-1.78-.12-3.9-.14-5.09,1.4-1.82,2.34-.09,7.81-2.9,9.6v-19c3.47.56,4.06,2.61,8.01,1.56,12.53-3.34,3.22-20.88-8.01-15.56v-22h0ZM42.77,25.2c-9.67,1.38-7.97,15.27-2.23,15.83,8.99.88,15.31-17.7,2.23-15.83ZM47.71,71.7c9.43-7.62-5.82-19.69-12.59-8.08-4.88,8.37,7.26,12.39,12.59,8.08Z"/>
  <path class="st0" d="M672.65,752.35c2.32,2.48,4.67,8.68,4.34,12.06-.38,3.82-6.55,9.59-10.47,9.62-11.51.09-12.47-18.54-.52-14.02,1.32,1.81-6.16,5.42-2.53,8.05,5.72,4.14,11.56-10.52,3.85-12.86-11.17-3.39-18.69,9.58-11.16,19.16,6.93,8.82,20.03,1.78,20.85,2.65l-1,12c-4.64-.92-8.17-3.65-13.14-3.42-9.91.46-23.03,13.58-31.86-.08-7.35-11.37,5.67-25.49,13.94-15.94,6.69,7.72-4.42,15.4-6.93,9.92-1.02-2.22,4.47-1.35,4.95-4.09.49-2.78-6.09-5.68-8.21-1.16-5.57,11.83,17.09,18.24,16.32.25-.24-5.56-5.95-13.97-11.66-14.47-2.94-.26-6.14,1.86-9.26.85l-.03-7.74c4.38-1.12,8.92,1.57,13.04,1.32,10.15-.62,19.77-12.5,29.49-2.09h0Z"/>
  <path class="st0" d="M36.01,465.99c15.74-4.36,23.3,6.76,16.51,21.02-5.17,10.85-22.7,9.38-25.08-.94-1.2-5.19,1.81-12.75-6.42-9.07v-8c15.16,3.75,15.2-15.67.09-16.1l-.09-5.9,4.91.92c2.54-12.21,1.97-23.38,18.37-19.71,7.49,1.67,12.32,17.09,8.76,23.34-4.73,8.32-17.4,2.2-17.05,14.44h0ZM46.74,438.24c-8.57-2.97-13.78-.41-12.77,9.27,1.43,13.58,18.54-.66,12.77-9.27ZM33.26,474.25c-4.18,4.34-.08,11.22,6.24,11.23,11.15.03,11.27-16.53.25-14.3-.72.14-6.14,2.7-6.49,3.07h0Z"/>
  <path class="st0" d="M245.73,746.24c9.53-1.87,18.82,6.91,17.29,16.21-.92,5.54-10.65,11.31-16.03,8.06-5.57-3.37-3.21-19.65,5.01-11.98l-3.98,5.98c7.24,5.7,12.57-6.2,5.95-10.98-9.55-6.9-21.99,10.21-10.01,20,7.87,6.43,15.54.03,18.09,1.89,1.88,1.37.54,8.79-.55,10.59-1.03,1.7-1.26.45-2.15.16-3.48-1.12-7-3.33-10.82-3.22-8.94.27-16.73,11.05-27.87,3.88-12.66-8.15-2.24-29.82,9.29-20.28,9.55,7.9-4.74,16.51-5.95,10.94l4.99-4-.99-2.98c-6.91-6.73-13.43,10.68-1.43,12.46,16.47,2.44,11.86-23.78-1.06-25-3.69-.35-10.03,2.74-10.54-2.51-.87-8.94,9.42-3.18,14.38-3.52,5.42-.38,11.47-4.74,16.38-5.7h0Z"/>
  <path class="st0" d="M264.72,352.75c-.17.41-5.82,5.86-6.42,6.04-11.51,3.4-17.39-11.33-6.99-14.67l2.65,2.51c.23,1.36-6,5.87-1.33,7.3,7.33,2.24,10.61-13.6-.15-13.99-12.21-.44-14.6,17.84-3.86,22.95,6.68,3.18,9.64.33,16.39.11v11.01c-5.41.62-8.98-3.47-14.49-3.07-8.77.64-16.94,11.18-27.55,3.6-11.15-7.96-4.18-27.77,7.95-20.95,11.39,6.4-2.44,18.57-3.91,11.9-.55-2.49,6.48-2.78,3.07-7.06-3.07-3.86-9.36,1.06-7.67,6.61,3.48,11.38,22.38,6.78,15.64-10.59-3.73-9.59-11.19-8.84-20.05-8.44-.95-12.91,6.5-5.57,13.47-5.96,10.38-.58,20.36-12.99,30.05-1.07,2.81,3.46,5.01,9.44,3.2,13.77h0Z"/>
  <path class="st0" d="M665,355.99c2.83,3.91,14.31-5.57,5.52-12.01-9.4-6.89-20.81,8.76-11.07,19.06,7.45,7.88,18.55.9,19.54,1.95-.26,2.21.98,11.74-1.48,11.95-3.21-1.09-8.71-4.05-11.93-3.9-7.16.32-13.41,7.12-23.11,5.97-15.07-1.78-13.53-26.77-.68-24.35,10.47,1.97,9.38,15.69-.27,14.34l-.54-2.51,3.92-1.59c3.58-5.17-10.73-10.55-7.69,3.37,1.91,8.76,16.62,7.2,16.6-4.78,0-5.4-5.73-14.82-11.41-15.49-4.51-.53-10.91,4.3-10.49-3.52.35-6.48,10.19-1.93,15.5-2.58,9.65-1.17,16.78-11.02,26.61-2.44,2.68,2.34,4.44,5.56,4.88,9.12,1.03,8.3-6.78,15.81-14.87,11.86-7.75-3.79-3.63-19.91,4.94-10.95-1.22,1.2-5.35,4.6-3.98,6.49h0Z"/>
  <path class="st0" d="M34.01,877.99c13.55-3.32,20.28,3.58,17.76,17.27-1.85,10.1-13.97,14.38-22.48,8.94-6.54-4.18-3.23-9.27-5.5-14.54-.8-1.85-4.76-2.21-2.67-7.56,5.35-.88,9.86-3.21,8.69-9.36-1.38-7.21-7.97-5.6-8.84-9.29-.96-4.1,1.99-3.17,3.14-5.84,1.87-4.32.53-15.13,6.82-17.19,13.22-4.33,23.36,9.21,21.04,21.04-2.12,10.76-20.39,3.72-17.97,16.52h0ZM37.77,849.18c-9.51,1.12-7.87,15.06-2.21,15.84,8.97,1.24,15.24-17.38,2.21-15.84ZM37.76,883.2c-14.99,2.09-6.77,21.45,4.76,12.82,5.77-4.31,3.06-13.91-4.76-12.82Z"/>
  <path class="st0" d="M535.98,696c-.56.38-3.78-3.31-4.4-4.08-2.62-3.26-11.52-16.79-12.82-20.2-.42-1.11-.86-1.83-.77-3.14.16-2.28,13.82-23.18,15.64-23.49,5.48,1.05,9.45,16.97,13.86,16.97,4.68,0,9.87-19.54,14.9-17.98,1.14.36,12.24,18.41,12.83,20.2,3.16,9.58-8.6,20.36-12.74,28.73-2.49.6-9.38-14.11-11.93-16.07-1.23-.94-2.13-1.4-3.57-.48l-11.01,19.55h0ZM560.63,654.14c-1.79.35-9.57,13.09-9.4,15.2l10.28,13.71c2.76-.04,9.65-12.45,9.45-15.48-.19-2.84-7.16-14.05-10.34-13.42ZM532.66,655.1c-2.62,3.1-8.72,10.57-8.72,14.4,0,2.54,8.35,16.9,10.46,16.46,2.26-.48,9.59-14.68,9.34-17.31-.23-2.43-7.04-15.61-11.08-13.54Z"/>
  <path class="st0" d="M146.11,689.88c-2.08-1.21-7.15-16.12-12.63-16.81l-12.01,19.92c-1.46.39-1.62-.96-2.31-1.66-2.86-2.88-15.49-22.63-15.01-25.61l14.03-22.52c6.26-3.61,9.52,16.72,16.2,16.69,4.42-2.88,9.83-23.63,16.07-15.84,2.5,3.12,11.76,19.09,11.62,22.43-.12,2.79-10.48,20.62-12.59,22.5-.97.87-2.13,1.62-3.37.9h0ZM146.64,652.16l-9.58,14.34,10.44,14.49c10.99-9.58,13.05-21.31-.86-28.82ZM118.71,653.18c-2.6.77-8.83,11.61-8.79,14.34.04,2.7,8.76,19.48,12.96,13.85,1.36-1.82,7.03-12.94,6.86-14.72-.07-.7-5.7-12.18-6.22-12.65-1.45-1.3-2.98-1.35-4.8-.81h0Z"/>
  <path class="st0" d="M124.98,280.99c-1.97.33-2.83-1.31-3.95-2.53-2.57-2.8-12.31-17.35-13.49-20.51-2.72-7.32,10.46-21.88,14.96-27.93,6.65,4.48,6.37,14.46,13.89,17.93,2.82-.59,8.23-14.48,11.12-16.94,1.26-1.07,2.23-1.45,3.85-.91,1.29.43,13.5,21.36,13.64,23.47.19,2.89-12.71,23.98-14.57,24.39-2.33.51-8.77-12.8-10.89-15-.97-1.01-1.97-2.6-3.56-1.54l-11,19.57h0ZM122.68,240.15c-3.47.3-10.61,12.45-10.61,15.36,0,1.97,8.53,15.54,10.42,15.56,2.63.02,9.33-13.31,9.48-15.62.2-2.99-6.03-15.57-9.29-15.29h0ZM148.11,267.87c3.9,2.79,10.73-10.12,10.95-13.39.26-3.85-6.01-14.5-9.57-14.52-3.02-.02-8.65,11.65-10.12,14.54,1.07,4.35,4.82,6.88,7.5,10.16.69.85.87,2.95,1.24,3.21Z"/>
  <path class="st0" d="M563.63,232.07c1.47-.26,2.02,1.18,2.79,2.01,1.83,1.96,12.21,19.64,12.4,21.67.21,2.25-11.37,22.88-12.78,23.8-5.35,3.47-9.94-16.1-15.51-15.62-3.4.35-9.1,17.52-13.02,20.05-3.52-5.34-16.9-21.98-16.6-27.47.14-2.5,12.92-22.89,14.73-23.45,4.81-1.48,9.25,16.09,14.89,16.99,3.46,0,8.43-16.45,13.12-17.98h0ZM536.48,242.24c-2.47.21-10.03,12.31-10.03,15.26,0,2.74,8.55,17.08,11.03,16.5,2.11-4.08,8.59-12.17,8.59-16.5,0-2.89-6.8-15.49-9.58-15.26h0ZM562.69,242.09c-2.64.68-7.14,11.87-9.33,14.41l10.17,14.5c2.77.64,9.56-11.45,9.59-14.49.03-3.91-6.35-15.47-10.42-14.42h0Z"/>
  <path class="st0" d="M21,341c9.41,5.77,19.92-3.65,24.66-11.5,0-3.33-15.45-11.23-18.66-12.08-2.52-.67-3.68.09-5.99.58v-5c9.79.04,21.41,4.47,29.33,10.17,11.65,8.39-12.47,16.62-13.23,26.13,1.04,4.06,20.53,11.01,20.95,15.21.15,1.57-.63,3.24-1.61,4.44-2.94,3.59-19.07,15.43-23.41,16.59-5.96,1.59-14.13-1.06-12.01-8.53,3.8,1.5,7.96,2.77,12.04,1.54,2.27-.69,15-9.51,14.81-11.86-.39-4.61-16.12-12.66-20.38-12.59-2.1.04-4,2.5-6.47,1.91v-15h0Z"/>
  <path class="st0" d="M50.69,737.29c.54.63,1.09,1.63,1.15,2.43.42,5.16-16.91,14.8-16.88,21.75.5,5.02,23.08,10.67,20.31,17.23-1.61,3.82-18.58,16.49-22.88,18.2-4.29,1.71-6.98,1.19-11.29,0l-.1-6.89c3.46.89,6.46,1.62,10.04.53,2.27-.69,13.82-8.97,14.01-11.09.49-5.52-18.44-15.58-24.05-12.45v-12.01c6.5,1,13.43-3.12,18-7.49,2.32-2.21,5.17-3.93,3.5-7.49-1.28-2.74-17.39-11.25-21.45-11.08l-.05-3.93c.97-1.06,16.5,4.28,18.99,5.5,1.22.6,10.28,6.3,10.69,6.79h0Z"/>
  <path class="st0" d="M53.01,137c.93,2.64-1.96,5.43-1.8,7.33.19,2.2,3.82,5.02,2.66,7.96-.85,3.03-8.74,4.17-8.85,8.19-.1,3.89,6.83,6.56,5.26,10.22-1.09,2.54-5.11,4.66-5.83,6.34-.92,2.16,1.4,4.35-.4,5.5-4.93.68-8.72.11-13.35,2.38-3.12-.77-4.26-8.07-5.94-9.67-.95-.9-3.27-.84-3.61-1.38-1.05-1.62-.28-8.14,2.53-8.76l2.36.34c2.61,6.74,7.39,14.38,14.49,6.57,4.5-4.95-4.72-10.21-4.03-15.16.48-3.47,17.34-5.62,8.03-13.88-7.42-6.58-12.52,4.19-15.52,2.6-2.74-1.45-3.59-9.02-8.02-10.28l.17-9.14,3.85-.73c7.49,20.33,10.52,5.72,15.48,5.59,4.29-.11,6.9,8.03,12.53,5.99h0Z"/>
  <path class="st0" d="M42.01,595.01c-5.31-.55-9.42.25-14.35,1.92-4.54-6.01-7.93-12.16-6.65-19.92,5.46.64,4.69,9.17,9.97,10.6,2.69.73,9.07-3.82,8.8-6.94-.35-4.02-6.92-7.44-5.64-11.96.97-3.39,14.88-4.69,8.44-12.79-6.64-8.34-13.77,3.46-16.59,1.66-3.93-2.52-6.03-16.04-4.97-20.58,8.09,8.26,3.99,18.02,17.49,5.97,4.33,3.27,7.17,5.67,12.46,7.52-4.18,5.78-.41,8.45.96,13.86-1.48,4.91-17.24,2.9-3.16,18.17-3.39,4.25-8.21,6.02-6.75,12.49h0Z"/>
  <path class="st0" d="M729,801l-13.53-1.97c-3.39-5.08-4.55-24.97,3.09-26.07,4.88-.7,4.81,3.1,7.16,5.11.83.71,3.28.76,3.28.93v22Z"/>
  <path class="st0" d="M729,389c-.33.33-8.38-.91-9.28-1.23-7.98-2.83-4.98-32.97,4.64-26.68.47.3,4.64,5.05,4.64,5.4v22.5h0Z"/>
  <path class="st0" d="M729,733v22.5c0,.43-6.2,4.84-6.95,5.09-4.52,1.51-4.76-3.99-5.58-7.55-2.67-11.63-2.77-22.31,12.53-20.03h0Z"/>
  <path class="st0" d="M728.99,842.01c1.52,5.76-2.55,7.63-3.05,12.43-.8,7.71,2.39,10.25,3.08,16.04.61,5.07.6,30.5-.81,34.24-.3.81-3.39,5.24-3.72,5.26-2.16-1.41-1.21-2.19-1.05-4.02.75-8.58,3.64-14.56,2.56-24.47-.83-7.64-6.45-18.44-6.05-25.96.22-4.04,3.95-13.64,9.04-13.53h0Z"/>
  <path class="st0" d="M729,321v23.5c0,1.26-6.21,4.91-8.06,3.08-3.21-9.48-7.76-28.88,8.06-26.58Z"/>
  <path class="st0" d="M728.99,469.99l-3.7-11.79c-2.03-8.94-5.56-21.12,3.7-27.21-1.59,13.08.47,25.86,0,38.99Z"/>
  <path class="st0" d="M729,49l-4.07-16.5c.13-2.57.81-5.04,1.62-7.46.37-1.11,1.07-4.05,2.46-4.04v28h0Z"/>
  <polygon class="st0" points="726.01 496.99 726.26 490.75 728.99 482.01 728.99 494.49 726.01 496.99"/>
</svg>