<?xml version="1.0" encoding="UTF-8"?>
<svg id="Layer_1" data-name="Layer 1" xmlns="http://www.w3.org/2000/svg" viewBox="0 0 3128.738 1279.801">
  <defs>
    <style>
      .cls-1 {
        fill: #4f007f;
      }

      .cls-2 {
        fill: #fde68a;
        opacity: .79;
      }
    </style>
  </defs>
  <path class="cls-2" d="M1188.738.901c-1.4.6-10.9,1.5-21.2,1.9-21.1,1.1-25.5,1.9-35.1,6.7-3.7,1.8-10.2,4.2-14.5,5.1l-7.7,1.8-4.2,6.5c-6.6,10.1-7.3,10.9-9.3,10.9-1.2,0-3.5-2.2-6-5.5-2.3-3.2-4.8-5.5-5.9-5.5-3.5,0-5.3,3.5-5.8,11.2-.3,4-1.2,8.4-2,9.6-3.7,6-17.7,8.1-26.3,4-6.3-3-27.7-3.7-40.6-1.3-14.9,2.8-22.7,7.1-20.5,11.3.6,1.2.8,2.7.5,3.5-.9,2.3-6,4-9.6,3.3-5.1-1.1-8.5-.8-12,1-5.3,2.6-6.8,4.5-6.8,8,0,8.1-3.2,11.4-10.8,11.4-6.9,0-11.8,2.6-12.8,6.7-.4,1.5-1.1,3.3-1.6,4-2.1,2.6-12.5,5.5-22.7,6.4-12.6,1-15.3,2.6-10,5.8,2.3,1.4,5.1,2.1,8.7,2.1,6.8,0,9.5,1.4,16.3,8.9,6,6.6,8.5,7.4,13.8,4.6,2.1-1,3.6-3.2,5.4-7.7l2.5-6.3,1.1,4.1c1.9,6.9,4.4,7.8,18.1,6.3,8.3-1,10.9-.9,21.2,1,12.8,2.3,32.6,8.6,39.4,12.6,5.1,3,5.9,4.9,8.4,21.4,1.1,6.8,2.4,12.9,3,13.5.7.7,2.8-.8,6.9-5.2,5.3-5.5,6.4-6.2,9.8-6.2,5.3,0,9.5,2.9,14.9,10.2,4.1,5.6,4.5,6.7,4.1,10.2-.8,5.5-2,6.3-6.2,4.3-3.8-1.8-4-2.4-2.4-8.1.6-2.1.8-4.9.5-6.2-.6-2.3-1.1-2.4-7.9-2.4-8.3,0-11.1,1.4-13.3,6.6-1.7,4.1-1.8,9.5-.1,11.6.7.9,3.5,1.8,6.6,2.2,3,.3,5.8.9,6.3,1.4.4.4-.8,2.7-2.8,5.1-2,2.3-3.6,5.3-3.6,6.6s1.7,6,3.8,10.5c4,8.6,5.4,9.8,13.3,12,4.2,1.1,4.3,1.2,2.2,2.6l-2.1,1.5,2.6,4.9c3.1,5.7,7.7,10.6,10.7,11.6,3.3,1,15.9,9.8,18.5,12.8,2.5,2.9,4.7,2.8,11.4-.5,2.1-1.1,4-1.9,4.3-1.9s1.4,1.9,2.4,4.3c2.6,5.9,4.2,7.1,9.6,6.5,6-.7,13.2-6.5,13.9-11.1.3-1.8.8-5.9,1.3-9.2l.8-6,5.7-.3c7.5-.4,8.5-1.7,7-8.8-.6-3-.9-6.1-.6-6.9.4-.8,2.5-1.9,4.8-2.5,2.2-.6,7.5-2.7,11.7-4.7l7.7-3.6,12.1.7,12.2.7,2.7-3.3c1.5-1.8,4.7-5.3,7.2-7.9,3-3.067,7.333-4.833,13-5.3,17-1.4,28.1-3.6,38.8-7.6,8-3,12-4,16.6-4,9.1,0,9.6-.9,3.9-6.4-3-3-6.4-5.2-9.3-6-3.9-1.2-4.5-1.7-4.3-3.9.1-1.4.9-3.7,1.8-5.1,1.4-2.1,2.2-2.5,4.4-2,5.9,1.5,7.8,3.1,8.4,7.4.3,2.2,1.1,4.8,1.8,5.6,4.6,5.6,16.9,2.6,16.9-4,0-1.3-1.6-5.8-3.6-10.1-3-6.4-3.4-8.2-2.5-10.1,1.5-3.3,7.3-4.6,18.3-3.9,5.1.4,9.9.2,10.6-.3.9-.6,1.4-3.9,1.7-9.8.4-10.4,1.4-13.4,6.1-18.6,4-4.4,3.7-5.8-1.1-5.8-6.3,0-10-7-7.1-13.2,1.6-3.3,13.7-15.1,25.1-24.3,3.3-2.6,9.6-6.5,14-8.5,9.5-4.4,13.8-8.7,13.3-13.4-.3-2.8-.8-3.3-5.4-4.7-14.7-4.8-21.8-3.5-33,5.7-9.5,8-12.1,9.4-17.4,9.4-7.4,0-12.3-4.1-18.1-14.9-1.6-3.1-4.3-7.7-6-10.2-2.1-3.2-3.5-7.2-4.6-13.4-1.8-9.7-3.9-13.1-7.5-11.9-1.2.3-8.5.7-16.2.8-13.4.2-14.4.3-21.1,3.3-6.1,2.7-7.8,3.1-13,2.6-4.8-.4-7.7.1-14,2.1-10.3,3.4-24.2,4.4-34.5,2.5l-7.5-1.3,11.5-.7c6.3-.4,20.3-2.4,31-4.4,22.1-4.1,23-4.3,23-5.6,0-1.6-3.9-2.7-22-6.1-18.4-3.4-36.4-4.6-41-2.7h0ZM619.138,90.201c-4.1,1.8-4.9,4.9-2,8.3,2.2,2.5,2.7,2.7,10.2,2.4,18-.8,17.9-.8,18.2,1.6.4,2.6,1.6,3.2,11.6,4.8,9.2,1.5,10.6,1.2,10.6-2.2,0-6.7-5.4-11.7-15.5-14.3-9.4-2.4-28.1-2.7-33.1-.6ZM562.238,95.401c-3.3,1.4-8.4,3.5-11.3,4.7-6.1,2.3-8.2,5.1-5.9,7.4,1.3,1.4,2.6,1.4,9.6.2,6.3-1,8.4-1,9.3-.1,1.6,1.6,8.1,1.5,9.6,0,.7-.7,1.2-3.7,1.2-6.8,0-8.8-2.3-9.8-12.5-5.4h0ZM684.738,100.501c0,1.6.6,3.6,1.3,4.5,2.1,2.8,23.3,11.7,32.7,13.9,7.3,1.7,9.9,2.8,13.7,6,2.6,2.1,8,5,12,6.5,6.7,2.5,8.5,2.7,19.1,2.4,19.2-.4,26.9-.3,43.2.8,16.9,1.1,26.1.3,29.1-2.4,2.5-2.3,2.4-3-.8-4.3-6.4-2.5-13.7-3-48.2-3.5l-36.3-.5-4.7-2.7c-2.5-1.5-7.1-4.4-10.1-6.4-9.3-6.2-12.9-7.7-30.5-11.8-9.4-2.2-17.8-4.3-18.7-4.7-1.5-.6-1.8-.2-1.8,2.2ZM505.238,104.501c-1.6.2-8.4,1.8-15,3.5s-13,3.3-14.3,3.6c-2,.4-2.2.9-1.7,3.3.6,2.8.5,2.9-3.2,2.9-4.7,0-7.7,1.9-7.1,4.6.3,1.7,1.4,1.9,12.2,2.2,9.4.2,13.3-.1,19.2-1.8,9.4-2.5,15.3-2.7,16-.3,1.6,5.2,3.6,8.4,6.2,9.7,2.7,1.4,3.2,1.3,8.9-1.6,3.3-1.7,6.7-2.9,7.6-2.5.9.3,2.8,2.5,4.3,4.9s2.8,4.5,3,4.7c1.4,1.6,10.1,1.8,19.4.4,8.9-1.4,12-1.4,20.3-.4,8.8,1.1,16.3,2.9,13,3-1.9.1-1.6,6,.7,12.6,1.1,3.2,2,6.9,2,8.3,0,1.667-.7,1.867-2.1.6-1.2-1-3.1-3.9-4.2-6.4-2.6-6-5.4-8.8-9.3-9.6-1.8-.3-10.2.2-18.8,1.2l-15.4,1.7-7.4-3.5c-4-2-8.9-3.9-10.8-4.3-4.8-1-10-3.8-12.9-6.9-2.1-2.2-3.3-2.6-8.3-2.6-3.6,0-7.2.7-9.1,1.7-2.7,1.4-6.5,1.6-25.2,1.5-12.1,0-22.7.1-23.6.4-.9.2-2.6,3.1-3.8,6.3-2.7,7.4-4.9,10.2-9.2,11.6-6.8,2.3-4.1,4.9,6.4,6,4.6.5,6.4,1.3,8.9,3.7l3.2,3.1,11-.6c14.9-.9,17.6-1.8,22.1-7.3,2-2.5,4.1-4.4,4.5-4.2s3.8,4,7.4,8.5c5.4,6.7,10.8,11.7,18.5,17,.2.2-.4,1.2-1.4,2.3-1.9,2.1-7.4,2.7-9.1,1-.6-.6-4.4-1.7-8.5-2.5-4.1-.9-10.1-2.8-13.4-4.2-5.6-2.5-7.1-2.7-21.5-2.9-8.5-.1-17.7-.7-20.3-1.3-5-1.2-7.4-.5-13.9,4-1.4,1.1-2.9,1.9-3.2,1.9s-1.7-1.8-3.1-4c-3.4-5.3-4.7-5.7-8.8-2.6l-3.4,2.6-5.8-2c-8.1-2.8-12.9-2.6-20,1-6.9,3.4-10.9,3.7-23.5,1.6-9.3-1.5-15-1.1-15,1,0,1.5-4.8,5.3-9.8,7.8-3.1,1.6-3.5,1.6-5.5.1-1.2-.8-3.6-2.6-5.3-3.9-1.8-1.2-5.7-3.1-8.8-4-4.7-1.5-6.6-1.6-12.3-.7-5.4.8-8.4.8-14.3-.4-4.1-.8-15.6-2.2-25.5-3s-20.9-1.9-24.4-2.6c-4.4-.8-12.5-1-26.7-.5l-20.3.8-6.2-3.7c-5.9-3.4-6.4-3.6-12.8-2.9-6.4.6-6.8.5-12-3-6.4-4.3-7.6-4.4-9.5-.8-.8,1.5-2.2,3.5-3.2,4.4-2.8,2.4-12.5,4.9-20.7,5.3-9.6.4-21.3,4.5-29.1,10.2l-6,4.5-7.7-.7c-4.2-.4-7.9-.3-8.1.2-.3.4-.1,2.3.4,4,1.1,4.2,5.1,6.3,12.1,6.3,3.7,0,6.8.8,10.3,2.5,2.7,1.4,5.4,2.5,5.9,2.5,8.1.1,18.6,10.5,12.9,12.7-2.2.8-13.9-1.4-17.8-3.4-1.7-.9-4.4-2.6-5.9-3.9-1.867-1.6-4.033-1.767-6.5-.5-2,1-5.9,2.2-8.6,2.6-5.6.8-17.7,4.3-18.9,5.4-1.3,1.3,8,10.8,12.3,12.5,5.1,2,22,3.9,27.4,3.1,2.2-.4,6.3-1.8,8.9-3.1,5.2-2.7,12.7-3,13.5-.6.2.7-1.2,2.8-3.1,4.7-3.4,3.4-3.7,3.5-11.4,3.5-4.8.1-9.8.7-12.9,1.8-6.2,2.2-18.1,10-19,12.5-.8,2.4,3.3,8.5,8.8,13,2.5,2,5,4.8,5.8,6.2.8,1.6,2.2,2.5,3.7,2.5,3.3,0,9.3-3.2,12.1-6.5,1.5-1.7,3.1-2.5,4.5-2.3,2,.3,2.2.9,2.3,6.2.1,4.9.5,6.2,2.3,7.8,3.3,2.6,5.4,2.3,7.9-1.2,1.3-1.7,2.6-3,3.1-3s3.1,2,5.7,4.4l4.9,4.3,3.5-1.8c4.2-2.3,7.3-2.4,9-.4,3.1,3.7-2.1,7.9-17.7,14.1-4.8,2-13.3,5.7-18.8,8.4-5.5,2.6-11.8,5.3-14,6-6.2,1.9-7,2.5-7.3,5.3-.7,5.8,5.9,5.1,28-2.9,5.4-2,10.5-3.3,11.6-3,2.7.9,9-1.6,21.3-8.4,14.2-7.8,15.2-8,19.2-4.2,3.8,3.5,6.8,5.2,9.5,5.2,3.1,0,13.9-7.6,15.7-11,2.7-5.3,1.8-6.4-4.7-6.1-3.2.1-6.2,0-6.8-.4-.5-.3.9-2.1,3.2-3.8,3.3-2.5,4.4-4.2,5.4-8.2,1.4-5.3,5.9-10.5,9.2-10.5,3,0,3.1.9,1.1,6.7-1,3-1.6,5.9-1.3,6.4,1.1,1.8,7.2.9,10.8-1.6,2.1-1.4,5.8-3,8.3-3.5,5.8-1.3,8.8-2.9,14.8-7.9,2.7-2.3,5.5-4.1,6.3-4.1.7,0,4,1.4,7.3,3.1,5.3,2.6,6.7,2.9,11.3,2.4,3.9-.5,7.3-.1,12.7,1.3,4.1,1.1,9.7,2.3,12.4,2.6,2.8.3,11.5,2.6,19.3,5.1,7.9,2.5,15.2,4.5,16.3,4.5,3.2,0,10.4,3.8,13.7,7.3,2.2,2.2,3.5,4.8,4.1,8.2,1.1,6.1,3.8,8.5,9.5,8.5,2.2,0,6.5,1.1,9.4,2.5l5.2,2.4v8.4c0,12.4.7,13.8,10.5,19.7,4.5,2.7,9.2,5,10.4,5,1.8,0,2.1-.6,2.1-4.1,0-4.5-1.1-7.2-4.5-10.9-2.3-2.4-3.8-10.1-2.3-11.5,1.4-1.5,5,1.9,7.7,7.3,3.1,6.1,7.2,10.6,10.8,11.6,1.2.4,3.9,2.6,5.9,4.9,3.3,3.9,3.5,4.5,3,9.2-.7,6.2,1.8,11.1,6.1,12.1,6.7,1.4,9.2,2.7,14.8,7.4,3.3,2.7,6.5,5,7.1,5,3,0,5.5,5,7.6,15.1,2.1,10.2,2.2,11,.7,26-2.2,24-2,26.3,2.9,36.1,2.3,4.5,6.4,11,9.3,14.3,2.8,3.2,7.4,9.3,10.2,13.5,2.8,4.1,8.1,10.5,11.8,14.2,6.1,6.2,7.1,6.8,10.9,6.8,7.8,0,11.4,4.3,23,27.5,6.3,12.5,8,15.2,10.7,16.5,4.2,2,8.3,5.6,8.3,7.4,0,.8-1.6,3.8-3.5,6.6-2,2.9-3.4,5.8-3.2,6.4.2.7,3.1,1.1,7,1.1h6.6l7,7.5c3.9,4.1,7.3,8.6,7.6,10,1,4.3,2.1,5.5,6.5,7.1,2.4.9,5.5,3,6.9,4.6,3.7,4.3,7.6,6.6,10.1,5.8s4.3-4,3.5-6.4c-.6-1.9-6.2-7.3-12.8-12.3-2.8-2.2-3.8-3.8-4.6-7.9-1.4-6.5-4.1-10.9-8.7-14.4-2-1.5-5.6-5.8-7.9-9.4-2.4-3.7-6.6-8.7-9.3-11.2-9-8.2-9.8-11.5-3.7-15.5,3.7-2.4,5.9-.5,8.5,7.3,2.2,6.5,3.1,7.5,17,21.3,8.1,8,17.3,18.1,20.5,22.5,6.8,9.4,11.4,14.5,13.1,14.5,2.3,0,13.2,11,15.5,15.6,1.6,3.4,2,5.5,1.5,8.4-.7,4.4.4,7.8,4,13.1,2,2.9,5.5,5,18.4,11.3,11.3,5.5,16.9,8.9,19.3,11.5,6.2,6.8,8.2,7.9,16.5,8.6,10.3.9,10.6,1,16.3,6.1,2.7,2.4,5.8,4.4,6.8,4.4,1.1,0,3.2-1.5,4.9-3.4,3.7-4.3,6.2-5.6,10.4-5.6s6.1,1.5,15.6,10.7c7.5,7.4,13.9,11.3,18.4,11.3,1.4,0,4.5.9,6.9,1.9,3.2,1.4,5.6,1.8,8.6,1.4,3.5-.5,5.5,0,10.7,2.6,3.5,1.7,8,4.9,10,7.1,3.1,3.4,3.6,4.7,3.6,8.9,0,6,2,8.8,9.3,12.9,2.9,1.6,8.3,5.5,11.9,8.6,3.9,3.3,8.6,6.3,11.4,7.3,2.7.8,6.3,2.9,8.1,4.6,2.4,2.2,3.8,2.8,5.6,2.3,4-1,7.6-4.5,8.3-8.1.6-3.3.9-3.5,4.6-3.5,5.7,0,7.4,1.3,10.9,8.3,1.8,3.4,4,7.2,5,8.5s2.3,4.8,3,7.8c1.1,4.9,1,6.6-1,15.2-3.2,13.6-3.1,13.2-4.6,13.2-.8,0-2.8,2-4.5,4.5s-5.4,6.2-8.3,8.4c-6.8,5-13.7,12.6-13.7,15,0,1,1.1,4.4,2.5,7.5s2.8,7.3,3.1,9.4c.5,3.3.1,4.4-3.1,8.7-9.2,12-8.5,15.5,5.5,24.8,5.7,3.8,6.5,4.7,8,9.7.9,3,3.9,10,6.7,15.5s5.6,11.7,6.3,13.8c.6,2.1,3.3,6.6,5.9,10,6.1,8,6.9,9.6,8.1,15.9,1.5,7.8,6.6,12.4,19,17.3,3.3,1.3,8.2,3.9,10.8,5.8s6.5,4.4,8.8,5.5c4.4,2.3,10.3,8.2,13.1,13.4,2.5,4.6,2.3,21.5-.7,42.8-1.7,12.7-2.1,18.9-1.6,26.8l.6,10.4-4.1,3.6c-5.7,5.2-6.3,6.6-4.2,10.2,1.133,2,.6,4.133-1.6,6.4l-3.4,3.5,1.7,5.9c1.7,6.4,2.1,13.2.7,14.8-.5.5-2.1,4-3.6,7.9-1.5,3.8-4.1,9.2-5.8,11.9-2.1,3.4-3.2,6.5-3.5,10.3-.4,4.3-1.1,6-3.3,8.3-3.7,3.6-3.7,5.9.2,9.9,3.5,3.7,3.4,5.5-.7,15.3-2.9,6.9-2.9,7.5-.4,17.1,1.5,5.7,1.7,8.2,1,10.2-.9,2.4-6.6,11.3-8,12.5-.3.3-2.2,2.5-4.3,4.9-4.4,5.3-4.7,8.7-1.2,13.9,1.4,2,2.5,4.1,2.5,4.7,0,.5-1.3,3-3,5.5-5.4,8.2-5,11.7,1.7,14.5,3.9,1.7,4.2,3.3.8,6.5-3.3,3.1-3.2,5.6.6,7.5,5.5,2.9,6.9,5,6.9,10.7,0,6.1.2,6.5,5.5,10.3,2.2,1.6,6,4.7,8.3,6.8,4.5,4,6.4,4.3,11.7,2.2,1.333-.533,1.367-.1.1,1.3-1.1,1.2-1.7,2.4-1.5,2.6,1.6,1.6,17.1,6.6,20.6,6.6s22.6-3.9,35.1-7.1c7.3-2,5.7-2.9-7.7-4.4-7.2-.8-11.3-2.6-17.4-7.7-8-6.8-10.7-11.1-10.7-17.6s.7-7.2,16.9-19.6c7.8-5.9,10.8-8.9,12.2-12,3.6-7.8,2.4-9.6-6.8-9.6-11,0-10.1-2.5,7.5-19.9,14.5-14.3,17.2-17.5,17.2-20.4,0-1.1-1-1.3-4.4-1-3.9.5-4.6.2-6.1-2.1-.9-1.4-2.1-4.2-2.5-6.1-1.1-4.8.3-5.2,8.3-3,15,4.3,16.6,4,15-3.1-.8-3.6-.8-5.7.1-8.4l1.1-3.5,9,.3c11.3.5,25.4-1.4,27.9-3.6,3.3-3,14.6-19.9,14.6-21.9,0-1.1-1.3-3.2-3-4.6-1.6-1.5-4.6-5.1-6.6-8.1-3-4.6-3.6-6.4-4.1-13-.7-9.5.9-10.1,2.6-.9,2,11,4.5,14.3,12.3,16.2,10.9,2.6,15.7.8,28.1-10.9,9.6-9,11.2-11.4,12.8-19,.6-2.8,2.2-6.4,3.6-8,2.1-2.6,3.1-3,6.5-2.8,3.9.3,4.2.1,7-4.7,1.6-2.8,4.9-7,7.3-9.5,7.1-7.5,7.8-10.2,4.8-19.6-2.5-8.2-1.4-9.9,11.9-17.4,15-8.5,23.7-11.8,36.5-13.6,6.3-.8,11.4-2.1,12.4-3,.9-.8,3.3-5,5.4-9.2,2-4.2,5.4-10,7.6-12.8,5.2-6.8,7.1-11.5,6.3-16.1-.4-2.7.4-6.6,2.5-13.5,2.8-9.2,2.9-9.8,1.5-14.4-1.7-5.7-1.8-10.8-.2-13.7.6-1.2,6.8-7.8,13.8-14.7,6.9-6.9,13.1-13.6,13.7-15,5.1-10.7,9.7-23.3,10.1-27.1.9-9-7.4-19.6-17.5-22.4-11.5-3.2-12.8-3.9-17.8-8.6-2.8-2.7-7.8-6.1-11-7.5-5.7-2.6-6.2-2.7-12.9-1.5-8.6,1.4-10.2,1-22.6-6-16.8-9.3-20.2-10.8-27.5-11.7l-7-.9-3.8,4c-2,2.2-4.2,5.8-4.9,7.9-.6,2.1-1.7,4.3-2.4,4.9-1.3,1-11.4.2-11.4-1,0-.3,2.3-2,5.1-3.6,6.6-3.9,9.9-8.1,9.9-12.8,0-4.2-1.9-5.7-7.5-5.7-2.8,0-4.5.8-7.7,3.9-2.9,2.8-5.5,4.3-8.9,5-5.3,1.2-9.9.1-9.9-2.3,0-2,1.8-3.1,8-5.1,7.2-2.3,14.1-5.8,16.3-8.3,1.4-1.5,1.7-2.9,1.2-5.3-.9-4.7-2.9-7-6.7-7.8-2.8-.6-3.8-1.7-6.8-7.1-4.2-7.8-13.2-17.1-19.8-20.4-7.9-4-11.5-4.6-20.2-3.4-9.5,1.4-12.7.4-16.5-5.5-1.5-2.3-5.5-6.8-8.9-9.9-5.8-5.5-6.3-5.8-11.3-5.8-2.8,0-5.5-.5-5.8-1-.3-.6-1.9-1-3.5-1s-3.1-.4-3.5-1c-.3-.5.8-3.3,2.4-6.2,3.4-6,5.7-14.6,4.3-16-.5-.5-2.2,1.1-4.1,4.1-4.3,6.6-5.6,7-10,2.7-2-1.9-4.9-4-6.4-4.5-7.4-2.8-16.2,0-18.1,5.8-1.5,4.8-3.1,4.9-6.1.2-4.3-6.4-11.3-7.6-18.8-3.2-2.8,1.5-2.9,1.5-4.8-.9-1.1-1.4-3-4.1-4.2-6-2.9-4.5-4.7-4.8-10.3-1.5-5.7,3.4-9,8.4-10.6,16.4-1.5,7.6-3.2,8.8-4.7,3.4-1.9-6.8-1.4-14.4,1.4-18.8,1.3-2.2,2.5-5,2.5-6.3,0-3.4-5.4-2.9-12.1,1.1-3,1.8-8,4.5-11.1,6-3.9,1.9-7.5,4.8-11,8.9-9.3,10.7-12.4,13.7-15.1,14.3-4,1-7.7-.2-7.7-2.5,0-1.2-1.5-3-3.7-4.4-6.6-4.3-8.1-4.2-18.5.8-5.2,2.5-10.8,4.6-12.6,4.6-3.9,0-9.8-5.5-13-12.1-2.9-6-3-18.5-.2-29.4l2-7.8-2.5-4.3c-2.6-4.4-10.5-10.4-13.8-10.4-1.1,0-4.6,1.2-7.8,2.6-4.3,1.9-6.7,2.5-9.1,2-1.8-.4-5.7-.9-8.5-1.3-5.8-.6-6.1-1.1-3.7-4.9,1.2-1.8,1.7-4.5,1.6-9.4-.2-8.4.8-11.4,5.4-16.1,4.1-4.2,5.6-9.2,4.3-14.6-1.1-5.3-3.3-6.6-9.9-5.9-3,.3-9.1.9-13.5,1.2-10.6.9-12.7,2.6-12.4,10.4.4,9.8-2.2,13.2-8.4,10.9-3.4-1.2-5.8-.5-13.7,4.1-1.9,1.1-4.4,2-5.6,2-2.7,0-8.6-4-17.4-11.8-10-9-12-12.9-13.3-26-1-9.9-.9-11.3,1.1-17.9,2.8-9.2,2.9-15.6.1-18.4-3.7-3.7-.7-7,11.6-12.7,2.8-1.3,7.3-4.6,10.1-7.3l5.1-5.1,12.4.4c11.1.3,13,.6,18.1,3,3.1,1.6,6.3,2.8,7.1,2.8,2,0,4.7-3.3,4.7-5.8,0-4.3,3.9-5.8,17.2-6.5,6.8-.4,13.3-1,14.6-1.3,1.8-.5,3.1.3,6.9,4.5,2.5,2.8,5.3,5.1,6.1,5.1s2.8-1.2,4.4-2.6c1.7-1.4,3.4-2.1,3.8-1.7s1.5,4.2,2.4,8.3c2.4,10.9,5.7,17.4,10.4,20.3,2.7,1.8,4.4,3.8,5.6,7.1,1,2.5,2.6,4.8,3.6,5.1,4.8,1.5,9-4.9,9-13.6,0-5.6-6.6-24.2-10.5-30-3.3-4.7-3.3-9.8.1-13.8,1.4-1.7,3-3.1,3.5-3.1,1.8,0,11.2-6.5,21.4-14.7,5.5-4.4,12.9-9.8,16.4-11.9,9-5.5,9.3-6.1,5.3-13.3-3.7-6.8-4.4-13.1-1.3-13.1,1,0,2.4.7,3.1,1.5,1.8,2.1,4.5,1.9,7.5-.8,2.7-2.3,3-3.9,1.9-9.3-.7-3.7.7-5.1,5.6-5.6,3.4-.3,3.5-.4,3.5-4.6,0-6.2,1.8-7.2,12.4-7,4.7,0,9.7-.2,11.1-.6,8.5-2.5,9.7-4.2,6.1-8.8-3.1-3.9-3.4-6.9-1.1-10.6,2.7-4.4,10.8-8.2,17.7-8.2,4.5,0,5.6-.4,8.9-3.5,4.8-4.6,6.7-4.2,7.7,1.5,2,10.7,1.8,10.5,6.9,10.4,3.3,0,5.8-.9,9.6-3.3,5.3-3.4,8.9-4.4,27.7-8.1,10.8-2.1,15.5-4,15.5-6.1,0-2.3-6.1-13.7-7.6-14.3-.9-.4-2.8.8-5.2,3.3-6.6,6.9-11,6.1-11.9-2.2-.3-2.6-1.1-4.7-1.7-4.7s-2.8,1.1-4.8,2.5c-4.8,3.2-6.1,3.2-9.2-.6l-2.6-3,2.2-2.9c1.9-2.6,2-3.2.8-6.1-1.6-3.8-6.4-6.9-10.5-6.9-1.6,0-5.7,1.2-9,2.6-6.7,2.9-25.5,8.4-25.4,7.5,0-.7,12.2-9.4,23.9-17.2,8.1-5.3,10.7-5.7,17.2-2.3,2.5,1.3,3.1,1.3,5-.1,3.9-2.7,5-2,4.3,2.7-1.4,9.3,2.2,11.8,11,7.7,5.1-2.4,6.3-3.8,4.5-4.9-.6-.4.9-1,3.7-1.4,2.6-.3,6.9-1.7,9.4-3s6.3-2.8,8.4-3.2c2.6-.5,5.5-2.2,8.6-5,5.2-4.9,9.1-5.7,10.9-2.4,1.6,3,.5,5.2-4.2,9-2.8,2.3-5.1,5.5-7.4,10.5-1.8,4-4,7.8-4.9,8.5-2,1.7-1.9,3.7.3,4.8,1,.6,6.6.6,13.2.2,11.7-.7,12.9-.5,18.2,3.2,1.3,1,2.1.9,3.6-.5,2.5-2.3,11.8-2.3,14.3-.1,2.2,2,3.9,1,3.9-2.3,0-2.6-6.2-13.3-10.4-18.2-1.9-2.1-2.7-2.2-7.6-1.7-4.6.4-6.2.1-9-1.6-1.9-1.1-4.5-2.4-5.7-2.7-2.2-.6-2.1-.8,2-7.6,2.3-3.9,5.5-8.9,7.1-11.2,3.5-5.2,2.9-7.8-2.2-9.3-2-.5-4.1-1-4.5-1-2.3,0-7.7-3.4-8.3-5.2-.9-3-6.5-8.9-11.3-12-3.2-2-5.8-2.8-9-2.8-7,0-9-.9-11-4.9-3.1-6-31-36.1-33.5-36.1-2.6.1-5,2.1-10.6,8.9-2.7,3.2-6.1,6.1-8.6,7.3-4,1.7-4.4,1.7-9.4.1-5.4-1.7-12-7.3-12-10.1,0-.8,1.2-2.5,2.6-3.8s2.2-2.9,1.9-3.4c-1.4-2.2-7-4.1-16-5.5-7.5-1.1-10.8-2.1-15.3-4.9-9.1-5.4-11.9-6-27.4-5.2-18.5.9-18.3.8-19.8,9.8-.9,5.1-1,8.4-.3,11,1.2,4.3.5,5.2-4.4,6.3-5,1-4.8,2.2.6,5.6,2.8,1.7,7.1,5.4,9.7,8.2,3.9,4.5,4.5,5.6,4,8.6-.6,3.7-3.4,7.2-8.1,10-5.3,3.2-6.9,3.3-9.9.6-2.8-2.6-7.9-3.4-9.1-1.4-.4.5.6,2.8,2.2,5,2.6,3.667,4.667,8.3,6.2,13.9,2.8,9.9,2.7,12.6-.4,14.6-1.9,1.3-3.7,1.5-8.7.9-3.5-.4-6.9-1.2-7.5-1.7-1.6-1.3-1.7-5-.2-6.5,1.3-1.3.4-9.9-1-10.8-.5-.2-2.1,1.1-3.5,3-3.2,4.1-4.6,4.4-4.6,1,0-1.4-.9-4.3-2-6.5s-2-4.8-2-6c0-1.1-.9-2.9-2.1-4.1-1.9-1.9-2.8-2-8.4-1.4-4.7.5-8.4.1-14.9-1.4-4.7-1.1-13.1-3-18.7-4.1-6-1.2-13.8-3.8-19.2-6.2-9.3-4.2-9.4-4.2-22.2-3.5-3.8.2-4,.1-5.6-4.2-2-5.4-4.1-7.1-9.1-7.1s-7.3-2.4-8.2-8c-1.1-7.1,1.2-10.4,14-19,6.1-4.1,13.3-9.3,16-11.6,9-7.5,9.5-7.7,22.2-8.3l11.7-.6.8-5c1.2-7.9,1.5-8.3,3.7-4.8,1,1.7,2.7,3.4,3.8,3.7,1.1.4,2.7,1.5,3.7,2.6,1.8,2,1.8,2.1-.8,4.8-3.9,4-3.5,5.2,1.8,5.2,2.9,0,7.6-1.3,13.1-3.6,6.1-2.5,9.7-3.4,12.7-3.2,3.7.3,4.3.8,6.7,4.8,2.2,3.8,3.2,4.6,6.1,4.8,4,.4,9.6-2.2,10.5-5,1.1-3.6-2.4-6-15.7-10.8-3-1.1-7.5-3.7-9.8-5.7-2.867-2.4-5.9-3.2-9.1-2.4-4.2,1.1-5.3,1-8-.4-1.8-.9-4.1-1.5-5.1-1.2s-2.7-.2-3.9-1c-5.4-3.8,5.2-5.7,18.4-3.2,5.1.9,6.5.8,13.9-1.6,10.1-3.2,12.7-4.5,14.1-6.8,1.6-2.6-1.1-6.8-5.9-9.2-6.9-3.5-6.8-3.5-4.9-5.6,3.2-3.6,9.7-5.2,17.8-4.5,9.2.8,10.6.3,10.6-4,0-1.9.4-3.4.9-3.4,1.6,0,4.1,3,4.1,4.9,0,3,2,4,7.1,3.4,3.9-.5,5.3-.2,7.8,1.6,1.7,1.2,3.1,2.9,3.1,3.8,0,3.5-3.4,8.5-7.1,10.4-6.8,3.4-4.7,4.9,7,4.9h7.7l3-4.1c1.6-2.2,3.6-5,4.5-6.2l1.6-2.1,6.9,3.1c3.8,1.7,6.9,3.6,6.9,4.3s-2.8,2.2-6.2,3.5c-7.3,2.6-8.7,3.7-12,8.8-3.2,5.1-5.4,5.8-14.3,4-8.6-1.6-14.2-.6-16.1,2.9-1.3,2.4-.7,11.4.9,13,.7.7,3.4.4,8.7-.7,6.3-1.4,10.2-1.6,21.4-1,12.5.6,14,.9,18.7,3.6,2.8,1.6,6.2,2.9,7.5,2.9s4.2,1.4,6.3,3c3.9,2.9,7.6,3.9,7.6,2.1,0-.5.9-1.3,2-1.6,2.2-.7,5.9,1.2,9.4,5,1.7,1.8,3.6,2.3,10.1,2.7l8.1.6,1.6-2.9c2.3-4,7.2-3.9,14.4.1,2.9,1.7,5.5,2.7,5.8,2.2.7-1.2-.8-11.4-2.1-13.7-.6-1.1-5.3-4.3-10.5-7-9.1-4.9-12.9-8.8-11.2-11.6,1.5-2.5,11.2-.4,20.4,4.4,4.9,2.6,9.9,4.7,11.1,4.7,4.1,0,15.6-7,19.4-11.8l3.6-4.6-8.8-1.7c-10.9-2.1-13-2.9-18.5-7.1-7.5-5.7-12-7.3-18.2-6.2-7.4,1.4-9.2.3-11.2-6.5-.9-3.1-2.2-7.4-2.9-9.6l-1.2-4-17.9-3.1c-20.3-3.5-39.3-9.8-56.9-18.8-6.667-3.4-13.167-5.1-19.5-5.1-22,.1-55.4,2.7-56.5,4.4-.2.4.1,2.4.7,4.5,1,3.2.9,3.9-.8,5.6-1.1,1.1-4.1,2.2-7.3,2.6-3.6.467-5.2-.1-4.8-1.7.4-1.3,1-4.7,1.3-7.6.6-4.7.4-5.4-2-7.8s-3.3-2.6-7.9-2.3c-6,.5-25.1,7.7-27.9,10.5-1.7,1.8-1.8,2.2-.3,5.6.8,2,1.5,4.5,1.5,5.5,0,3,3.3,6.5,9.2,9.7,4.9,2.7,6.1,2.9,16.8,3.1,18.2.2,19.5.8,16.9,8.2-.9,2.6-2,3.4-6.6,4.9-4,1.3-5.8,2.5-6.9,4.5-1.5,2.9-7.1,6.5-8.2,5.3-.4-.4-.5-3.3-.4-6.5l.4-5.9-4.1-2.6c-3.5-2.4-4.4-2.6-7.1-1.6-1.7.5-4.4,1.9-5.9,3.1-1.6,1.1-3.4,2-4,2-.5,0-2.4-2-4-4.4-1.7-2.4-5-5.9-7.3-7.7-2.4-1.9-7-6.2-10.3-9.6-6.3-6.5-10-8.2-14.3-6.7-4.8,1.7-4.9,3.4-.4,14.7,4.2,10.6,5.5,18.4,3.4,20.9-.6.8-4.5,2.2-8.8,3.3l-7.7,1.9-1.7-2.2c-1.2-1.5-2-4.9-2.5-11.4l-.6-9.3-10.2.3c-10.6.4-13.6,1.4-11.6,3.8.6.8,1.7,1.4,2.4,1.4s2.4,1.1,3.9,2.5c3.2,2.9,3.5,7.4.6,10-2.2,2-6.7,2.2-42.1,1.7-20.9-.2-23.8-.9-22.5-4.9,1-3.2,5.3-4.5,16.9-5.4,11.9-.8,18.5-3.2,22-8,3.6-5-1.6-8.9-12.1-8.9-5.4,0-10.3-2.1-15.8-6.5-5.9-4.8-6.3-6.7-2.5-12,4.1-5.7,2.8-7-6.4-6-7,.7-14.5-.1-14.5-1.6,0-.5.6-.9,1.3-.9.6-.1,2.8-1.5,4.8-3.3,2.9-2.6,4-4.5,5.3-10.1,1.3-5.1,1.4-7.1.5-8.2-2-2.4-4.7-2.5-8.8-.4-6,3-8.7,2.6-13.8-2.1-3.9-3.5-4.8-4-7.6-3.4-3.7.8-9.7,4.2-9.7,5.6,0,1.6-6.3,4.9-9.4,4.9-1.6,0-6.1-1.8-10.1-4-5.7-3.1-8.3-4-12.1-4-9.9,0-16.7-1.7-19.4-4.8-1.4-1.6-3.4-3.4-4.5-3.9-2.6-1.4-9.2-2.2-13-1.6h0ZM445.738,346.601c5.5,2.9,12.7,8.2,15.8,11.5,3,3.1,3.8,8.5,1.8,11.2-2.3,3.1-4.8.9-7.1-6.3l-1.9-6.2-6.7-2.5c-5.4-2.1-7.2-3.4-9.8-7-3.7-5.2-3.3-7.5.7-4.9,1.5,1,4.7,2.9,7.2,4.2h0ZM780.838,348.401c2.2,2.6,10,7.6,14.8,9.4,2.5,1,4.7,2.2,4.8,2.7.2.5-.7,2.5-2,4.4l-2.3,3.4-10.5-.3c-8.6-.2-10.9-.6-13.3-2.4l-2.9-2.1-9.9,3.4c-11.2,3.7-15.1,3.4-15.6-1.2-.4-3.2.8-4.1,8.3-6.6,3.3-1.1,10-4.3,15-7.2,9.6-5.5,11.5-6,13.6-3.5h0ZM803.738,376.301c3.6.8,11.4,1.4,17.3,1.5,6,0,11.7.5,12.8,1.1,2.9,1.5,7.9,8.8,7.9,11.6,0,5-8.3,1.5-9.9-4.2l-.8-3-1.3,3c-.7,1.9-1,5.5-.7,9.6.5,6,.3,6.9-1.6,8.7-2.5,2.2-6.1,4.2-7.6,4.2-2,0-3.5-4.6-4.1-12.2-.7-8.8-2.2-11.2-7.9-12.8-5.4-1.5-10.6.4-16.5,6l-5.1,4.9-.5,13.1c-.4,11.5-.7,13.3-2.4,14.6-2.7,1.9-5,1.8-7.1-.6-1.6-1.8-1.9-4.1-2-18.1-.2-17.6.5-20.4,5.7-24.2,2.8-2.1,10.7-4.5,14.8-4.6,1.4,0,5.4.6,9,1.4h0ZM874.538,396.401l2.6,1.7-2.2,1.8c-1.2.9-6.4,3.1-11.6,4.9-5.2,1.7-10.2,4-11.2,5.2-1.1,1.1-4.6,3.3-8,4.8-3.3,1.5-8.2,4.4-10.8,6.4-5.4,4.1-10.8,4.9-12.5,1.8-1.2-2.3.6-4,9.1-8.3,3.9-1.9,9.5-6.2,14.8-11.3l8.5-8.1,9.4-.3c7.4-.2,9.9.1,11.9,1.4ZM2445.138,106.001c-6.2,3.8-11,5.9-22.2,9.8l-12.3,4.3-8.1-1.7c-4.4-1-10.2-2.5-12.9-3.3-4.6-1.5-5.4-1.5-11.2.1-3.4,1-9.8,3.4-14.2,5.3-6.8,3.1-8.8,3.6-13.5,3.3-14-1-21.4-.4-31.2,2.8-5.3,1.6-13.4,5.1-18,7.5-12.6,6.9-16.8,7.8-34.5,7.5-11.5-.2-15.5,0-16.5,1-2.1,2.1,3.4,6.2,14.9,11.1,11.8,5,14.3,7.2,15,13.5.7,5.6-.7,7.6-5.3,7.6-3.8,0-6.4-2.9-6.4-7,0-4.7-2.6-6.8-11.6-9.6-5.9-1.9-10.2-4-14.1-7-3.1-2.4-7.1-4.6-8.9-5-6.7-1.3-12,2.5-13,9.3-.9,6.3-3.1,8.6-8.4,8.7-5.1.1-5.6-.5-6.7-9.9-1-8.7-2.4-9-8.2-1.8-4.5,5.8-4.8,7.3-2.6,12.7,1.2,2.8,1.4,5.5.9,11.6-.8,9.5,0,10,7.2,4.6,7.3-5.6,24.5-8.6,26.4-4.6.4.8,1.7,3.5,2.8,6,1.2,2.5,2.2,4.9,2.2,5.3,0,1.5-6.9,3.7-11.5,3.7-4,0-5.1-.5-8.5-4-2.2-2.2-4.4-4-5-4-3.3,0-8.5,3.7-16.2,11.8-8,8.2-9.5,9.3-16.7,12.1-8.9,3.4-11.1,3.8-11.1,1.8,0-1.8,5.7-7.7,11.6-11.8,2.5-1.9,5.7-5.3,7.1-7.7,2.5-4.2,2.5-4.5.9-7.8-.9-2-2.2-6.7-2.8-10.5-1.2-6.8-1.2-7,1.7-12.3,2.4-4.5,2.7-5.7,1.6-6.9-2.2-2.8-20.6-12.7-23.4-12.7-1.9,0-4.7,1.7-9.1,5.7-12.4,11.2-15.1,13.3-17.2,13.3-3.2,0-7.4,3.8-7.4,6.6,0,4.1,1.8,6.2,7.3,9,8.1,4.1,11.9,7.3,11.5,9.7-.5,3.6-6.8,3.4-19.1-.8-5.8-1.9-11.9-3.5-13.4-3.5s-5.8-.9-9.5-1.9c-9.7-2.8-16.5-3.4-23.2-2.2-4.8.9-6.7,1.9-10.7,5.6-7.1,6.6-9.1,7.1-15.2,3.9-4.2-2.2-5.8-2.5-9.1-1.8-2.3.4-8,.8-12.8.8-8,.1-8.9.3-11.6,2.9l-2.8,2.7-7.4-2.5c-9.6-3.3-12.8-3.2-19.7.7-5.4,3-6.2,3.2-19.5,3.7-12.4.5-14.1.8-15.4,2.6-3.1,4.3-7.7,8.6-8.8,8.2-2-.6-1.8-5.4.4-10.5,2.7-6.2,2.3-8.3-1.5-9.4-3.3-1-13.2-.2-17.1,1.2-2,.8-2.4,1.6-2.4,5.5,0,2.5.6,6,1.3,7.8,4.8,11.4,1.7,18.6-3.9,9.1-2.5-4.2-3-4.6-5.9-4.1-1.7.3-4.9,1.3-7.1,2.3-2.1,1-6.6,2.5-9.9,3.3-6.7,1.8-8.5,3.9-8.5,10.4,0,3.1-.4,3.9-2.6,4.7-4.4,1.7-8.7,1.1-14.7-2.1l-5.9-3.1-4.1,2.8c-2.2,1.5-6,2.9-8.3,3.2-3.7.4-4.2.2-4.7-1.9-.4-1.3-.7-4-.7-6,0-3-.7-4.3-3.5-6.8-3.4-2.9-4.5-5.1-2.6-5.1.5,0,4,1,7.7,2.2,10.4,3.4,26.8,3.1,38.4-.6,11.9-3.9,18-6.6,18-8.1s-9.8-6-17.6-8c-3.2-.8-12-2.2-19.4-3-16.7-1.9-25-4-41.2-10.4-17.6-6.9-43.3-11.1-68.4-11.1-15.1,0-21.4,1.1-54.4,9.5-33.1,8.5-31.4,7.8-38.3,16.2-8.1,9.9-34.6,31.3-45.2,36.5-1.6.9-6.4,2.5-10.5,3.8-9.1,2.7-13.6,4.9-21.7,10.7-7.2,5-7.5,6.2-4.3,14.3,1.1,2.8,2,6.6,2,8.5,0,4.5,1.6,8.4,4.8,11.8,4.7,5,7.9,6.1,17.6,6.2,8.3,0,8.9-.2,10.5-2.4,2.8-4.2,10.1-11.1,11.6-11.1.9,0,1.8.8,2.1,1.7.3,1,2.1,5.8,4,10.7,2.7,6.7,3.4,9.8,2.9,12.3-.8,4.6.9,7.3,4.6,7.3,4.3,0,33-6,36-7.5,3.8-2,5.2-4.1,5.4-8.3.1-2,.3-4.1.4-4.5,0-.5,3.6-4.5,8-9.1,4.3-4.5,8.1-9.2,8.5-10.3,1.2-3.7-1-6.1-7.2-7.9-3.1-.9-6.6-2.4-7.6-3.4-1.267-1.267-1.033-3.033.7-5.3,3.2-4.3,9.4-7.3,16.7-8.2,6.7-.9,11.8-3.4,16.6-8.2s6.7-9.4,5.9-13.7c-.9-4.3.1-4.6,17.1-4.6,16.1,0,17.8.9,11.2,6.2-5.1,4.1-13.6,9.2-23.5,14.2-10.1,5-12.3,9.6-8.3,16.6,1.1,1.9,3.2,5.8,4.7,8.7,3.8,7.4,5.6,7.9,15.6,4.2,7.6-2.7,9.5-3,24.6-3.5,16-.4,16.5-.4,18.9,1.8,1.3,1.3,3,3.5,3.8,4.9,2.3,4.6.6,5.1-23.4,6-23.6.9-30.2,1.6-30.2,2.9,0,.5,2.7,2.5,6,4.5,6.6,4,7.4,6,3.3,7.6-2.1.8-4.5.7-9.8-.5-9.4-2.2-10.8-2.1-14.6,1.1-4.6,3.9-7.9,11.6-7.9,18.4,0,7.8-1.3,8.7-9,6.6-12.4-3.5-15.5-3.3-28.4,1.2-13.4,4.7-15,4.9-19.1,2.1-2.6-1.8-4.4-2-13.2-1.9-11.2.3-12.1-.1-14.7-5.6-1.3-2.6-1.5-5-1-10.3.6-6.8.6-6.9-1.9-7.6-3-.7-11.7.8-15.5,2.8-2.1,1.1-3.3,2.9-4.5,6.7-2.7,8.3-2.2,10.5,4.1,17.1,2,2.1,3.3,4,3,4.3s-2.5.1-4.9-.4c-5.8-1.4-16.1-1.4-19.5,0-1.6.5-6.7,4.3-11.4,8.3-8,6.9-8.9,7.4-16.3,8.9-4.4.9-8.5,2.1-9.2,2.7s-1.6,3-1.9,5.4c-.4,2.4-1.5,5.1-2.4,5.9-1,.8-8.1,2.7-16.2,4.2-8,1.4-17,3.7-20,5s-8.3,2.8-11.8,3.4c-7,1.1-8.2,1.6-8.2,3.6,0,1.3,2.9,2.4,11,4,6.1,1.3,15.4,6.1,18.3,9.4,2,2.4,2.7,4.3,2.7,7.5,0,5.7-2.6,14-5.4,17.2l-2.3,2.7-26.9-1.3c-29-1.4-31.4-1.2-34.7,3.2-2.4,3.2-2.7,12.6-.8,20.6,1.6,6.4,1,9.2-2.9,13.2-4.6,4.7-4.1,7.9,2.6,16.2l5.7,6.9,6.6-.2c3.6-.1,7.6.1,8.7.5,1.2.3,3.8,3.1,5.8,6.1s4.2,5.5,4.9,5.5c.6,0,2.6-2.2,4.2-4.8,2.8-4.3,3.4-4.7,6.5-4.4,4.9.4,18.9-1.8,22.5-3.6,1.7-.8,5.1-3.3,7.7-5.6,2.6-2.2,5.9-5,7.4-6.2l2.7-2.1-2.3-3.1-2.4-3.2,2.1-2.8c1.1-1.5,4.7-5,8-7.8,5.4-4.6,6.7-5.3,12.1-5.9,3.4-.4,6.5-1.2,7-1.8.5-.7,1.9-4.5,3.1-8.5,2.9-9.7,3.8-10.1,16.3-6.8,11.4,2.9,12.4,2.8,23.9-4,6.7-3.9,8.6-4.6,11.6-4.1,4.8.8,8.2,3.2,9.8,7.1,1.7,4,8.6,10.9,14,14.1,2.2,1.3,8.7,4,14.5,6,5.8,2.1,11.6,4.4,13,5.2,3.2,1.9,6.6,6.7,8.9,12.9,2.2,5.6,4.7,8,6.9,6.2,1-.9,1.3-3.1,1-8.8l-.3-7.5,6.3-.8c3.4-.5,6.2-1.2,6.2-1.7,0-1.2-14.2-10-22.5-14-5.1-2.4-9-5.4-14.5-11-4.1-4.2-9.2-8.9-11.2-10.4-6.5-4.6-6-10.6.7-10.6,2.4,0,5,1.3,9.5,4.7,3.4,2.7,10.9,8.2,16.5,12.3,18.1,13.2,19.8,14.4,23.1,17.3,1.8,1.6,4.4,5.2,5.7,8,1.3,2.9,4.3,7.5,6.5,10.4,2.3,2.8,6.7,10.4,9.9,16.7,3.2,6.4,6.5,11.9,7.5,12.2,2.3.7,7.1-1.5,14.8-6.8,10.2-7,10.5-11.8,1.1-18-2.8-1.8-4.9-3.8-4.8-4.3.2-.6,2.4-2,5-3.2,2.6-1.3,6.5-3.6,8.8-5.3,5.1-3.6,9.3-3.9,11-.8.7,1.2,1.4,6.5,1.6,11.8.6,14,.1,13.1,10,17.9,4.9,2.4,9.7,5.1,10.9,6.2,3.1,2.9,12.5,4.6,16.9,3,2.9-1,4.8-.9,12,.6,8.1,1.6,9,1.6,16.3,0,4.2-.9,9.7-2.2,12-2.9,4-1.1,4.5-1.1,5.7.6,3.5,4.7-2.6,29.1-9,36-1.3,1.4-3.8,4.6-5.4,7-2.9,4.2-3.1,4.3-9.6,4.8-6,.5-6.8.4-9-1.8-2.9-2.9-6.3-3-16.5-.9-9.5,2-14.1,4.5-21,11.6-5.5,5.8-8.7,7.2-9.7,4.3-.2-.6,3.9-4.6,9.2-8.8,5.2-4.2,9.5-8.3,9.5-9.2,0-2.6-4.8-3.4-20.3-3.4-13.8,0-15.9-.3-22.2-2.6-16.8-6.2-15.6-6-21.6-3.2-3,1.4-8.9,5.7-13.2,9.7-8.6,7.9-9.1,8-21.7,6.1-4.9-.8-8.5-2.3-14.5-5.9-8.4-5.1-14.7-7.6-22.9-9.2-2.8-.5-7.7-2.6-11-4.8-3.4-2.2-7.8-4.6-9.8-5.4-4.6-1.9-7.6-6.1-5.8-8.2.6-.8,3-1.8,5.3-2.3,4.1-.8,4.2-.9,4-4.6-.3-4.8-3.7-12.3-7.1-15.9-4-4.2-9-5.1-16.5-3.1-4.6,1.3-12.3,1.9-29.7,2.3-25.7.7-26.9.9-49.5,10.2-20.6,8.3-23,8.9-34.1,8.2-11.7-.7-13-.3-25.1,8.5-3.8,2.7-7.8,5.2-9,5.6-2.9.9-7.7,6.5-10.9,12.7-1.7,3.5-2.8,8-3.5,14.2-.6,5-1.4,9.8-1.9,10.7-.4.8-4.3,3.3-8.6,5.5-10.1,5.1-21.2,12.4-24.5,16.1-1.5,1.6-5.8,9.1-9.7,16.6-3.8,7.5-8.5,15.8-10.2,18.4-4.5,6.4-4.9,11.3-1.7,19.5,2.9,7.1,5.7,17.2,5.7,20.4,0,3.9-2.1,9.4-5.3,14.2-1.9,2.6-4.6,7.1-6.1,10-1.6,2.8-3.5,5.4-4.2,5.7-1.1.4-.7,1.5,1.6,4.8,2.9,4,3.1,4.6,2.8,12.9-.4,10.5.1,11.2,11.4,17.1,10.1,5.2,16.6,11.1,20.6,18.6,1.8,3.3,5.2,8.2,7.7,10.9,5.3,6,33.1,30,37.9,32.8,3.3,1.9,3.5,1.9,5.4.2,1.1-1,2.3-2.9,2.6-4.3.4-1.3,2.1-3.2,3.9-4.1,2.8-1.6,5.7-1.8,24.6-1.5,13.3.1,22.9-.2,25.5-.9,2.2-.6,10.2-4,17.6-7.5s15.4-6.6,17.6-7c8.5-1.3,15.5,3.5,20.3,14,3.7,8,5.9,9.9,11.5,9.9,4.5-.1,8.9-1.9,14.3-5.9,1.7-1.3,3.5-2.4,4-2.3.4,0,4,2.1,7.8,4.7,5.9,4,7,5.2,7.3,7.9.2,2.3-.5,4-2.6,6.5-4.3,4.9-5,6.6-5.7,14.8-.4,4.1-1.8,10.8-3.2,14.9-2.9,8.6-2.5,10.7,3.4,14.4,5.2,3.3,9.8,8.5,16.7,19.2,3.2,5,7.7,11.7,10,15l4,6,.2,11.7.2,11.7,4.6,8.4c5.1,9.4,5.4,10.9,2.7,13.4-14.7,13.8-17.2,17.8-17.9,29.4-.9,15.6,2.4,25.6,16.1,48.4,10,16.7,11.8,22.3,12.6,38.5l.6,13.6,4.9,7.4c2.7,4.1,7.1,9.9,9.7,12.8,4,4.4,5.4,7,7.9,14.9,1.7,5.3,3.6,13.3,4.1,17.7,1.3,10.4,3.1,13.4,9.8,16.8,6.4,3.3,11.8,3.6,15.3.9,3.4-2.7,12.3-4.1,26.7-4.1,10.4,0,13.8-.4,19.2-2.3,13.8-4.7,20.1-9.9,46.5-38.2,16.4-17.7,16-17,14.4-25.5-1.6-8.6-1.5-8.7,9.9-14.5,4.8-2.3,9.8-5.4,11.3-6.8,3.2-3,3.2-3.4-1.3-20-1.6-5.9-2.9-11.6-2.9-12.6,0-2.6,7.3-13.3,11.8-17.2,2-1.8,8.7-5.6,14.8-8.5,12.2-5.8,13.8-7.4,20.1-20.9,2.7-5.7,2.8-6.6,2.8-21.2,0-8.3.3-15.5.8-15.9.4-.4.7-2.2.7-4,0-2.5-1.2-4.6-5-9-5.4-6.1-6.5-9.1-8-20.6-.5-4.1-1.4-8.7-2-10.3-2-5.3,1.1-17.8,4.8-18.9,1-.4,7-7,13.3-14.9,12.1-15.1,29.7-33.5,33.9-35.3,1.4-.6,4.9-2.2,7.8-3.4,7-3.1,15.3-11.9,17.6-18.5.9-2.8,6.2-11.4,11.7-19.2,9.3-13.4,10.2-15.1,14-26.8,2.7-8.5,3.9-14,3.7-16.8l-.3-4.2-6,.2c-6.1.1-23.9,5.6-38.5,11.9-5.3,2.3-8,2.8-14.8,2.8-10.2.1-11.2-.8-11.2-10,0-5.8-.3-6.7-5.1-13.8-2.8-4.2-6.9-9.1-9.2-10.9-9.5-7.4-13.7-12.9-20.3-26.7-3.6-7.4-8.3-15.8-10.3-18.5-4.3-5.7-7.1-10.9-10.1-18.7-1.2-2.9-5.5-12.3-9.7-20.8-4.1-8.5-9.8-20.1-12.6-25.8-2.7-5.6-4.8-10.4-4.6-10.6.9-.7,10-2.6,12.8-2.6s3.4.6,7.8,9.2c2.7,5.1,5.7,12,6.9,15.3,1.7,4.8,2.9,6.6,6.2,8.8,2.6,1.7,4.4,3.9,4.8,5.5,3.5,15.4,7.9,24.6,15,31.2,16.3,15.2,19,20.1,23.8,43.2,4.2,20.3,5.8,22.8,14,22.8s19-3.2,31.7-9.3c15.2-7.2,23.2-10.3,30.2-11.6,3.3-.6,8.4-2.6,11.5-4.4,3.2-1.9,8-4,10.7-4.6,7.2-1.8,14.9-6.2,24-13.9,7.6-6.5,11.7-11.6,28.5-36.7,2.7-4,2.6-4.9-1.4-9.2-4.1-4.6-13-10.1-20-12.4-3.7-1.2-5.7-2.6-7.3-5-5.3-8.1-4.6-7.9-9.5-2.9-4.4,4.5-16.1,12.1-21.8,14.3-4.1,1.6-6.3,0-7.1-4.8-.5-2.9-1.6-4.6-4.5-6.9-7.4-5.8-10.4-9.3-10.4-12.1,0-2-2.2-5-9-12-7.9-8.2-9-9.8-9-12.9,0-2.7.9-4.4,3.9-7.6,5.6-5.9,8.5-5.4,12.7,2,7.5,12.9,8.7,14.4,15.7,18.2,3.8,2.1,10.1,5.8,14,8.3s8.1,4.5,9.4,4.5c1.2,0,5.7-1.7,9.8-3.7l7.5-3.8,8.8,9.1c7.8,8.1,9.2,9.2,13.2,9.8,9,1.4,34.7,2.4,41.8,1.6,6.3-.7,7.7-1.2,11.2-4.4,5.9-5.3,7.6-4.9,15.4,3.8,6.2,6.9,7.1,7.6,12.3,8.6,7.7,1.6,10.3,4.4,10.3,11,0,8.8,4.8,17,10,17,2.8,0,10.3-4.4,13.4-7.8,1.1-1.2,2.3-2.2,2.8-2.2.4,0,.7,7.3.6,16.2l-.3,16.3,3.8,11.9c4.5,13.9,15.7,36.8,23.2,47.6,7.4,10.6,10.1,16.5,10.7,23.5,1.1,11.8,4.9,16.4,9.5,11.2,2.5-2.8,12-18.7,14-23.6,3.9-9.1,6.5-21.9,7.2-34.9l.8-13.3,3.3-3.4c1.9-1.9,6.4-5,10-6.7,4.9-2.5,9.6-6.3,19.3-15.8,7-6.9,14.4-14.6,16.3-17.2,5.8-7.8,8.6-9,23.4-9.7l12.8-.7,4.6-4.2c2.5-2.3,5.3-4.2,6.1-4.2,1,0,2.7,2.5,4.4,6.2s6.1,10,10.6,15.3c10.4,12,11.6,15,12.4,30.6.6,12.4,1.6,15.9,4.5,15.9,1.4,0,6.3-5,9.5-9.8,4-5.8,15-9.5,16.5-5.6.3.9.6,4.8.6,8.7s.5,12.4,1,18.7c1.2,12.9,4.1,20.7,10.1,26.8l3.3,3.4,2.8-8.9c1.5-4.8,3.1-11,3.6-13.8.9-6.4,2.5-6.7,9.9-1.7,6.5,4.4,12.7,10.8,16.9,17.3,1.6,2.4,5.4,7.2,8.6,10.7,3.2,3.4,5.8,6.7,5.8,7.2,0,1.7,6.2,1.1,9.5-1,1.7-1.1,4.5-4,6-6.5,3-4.6,3.8-5,16.3-8.4,5-1.4,6.3-3.2,9.8-13.2,2-5.6,2.5-8.8,2.2-13-.4-5.1-1-6.5-7.4-15-3.8-5.2-10.5-13.2-14.9-17.9s-9.3-11.1-11-14.3l-3-5.7,9.5-9c11.5-10.8,14-12.1,17.8-9.3,3.9,2.9,3.8,6.1-.2,13.5-4.2,7.5-5.5,14.3-3.6,18.8,1.5,3.5,6.2,6.4,9,5.5,2.2-.7,12-13.5,12-15.7,0-.8-1.1-2.5-2.4-3.7-4.5-4.3-3.8-10.9,1.9-16.1,2.4-2.2,3.4-2.5,9.6-2.2,8.5.3,22.1-2.6,32.6-6.9,7.8-3.3,14-8.4,24.5-20.5,1.9-2.2,6.6-6.6,10.4-9.6,11.2-8.9,18.3-15.8,20.9-20.2,2.3-4,2.4-4.4,1.5-16.5-1-15-3.2-20.2-13.9-33.1-5.9-7.1-8.3-11-6.8-11,.1,0,4-1.6,8.7-3.5,11.8-4.9,16-9.3,13.7-14.3-1.4-3.1-4.8-3.7-12.2-2.3-10.7,1.9-11.7,1.7-18.9-4.5-3.6-3.1-6.6-6.4-6.6-7.3,0-2.6,4.5-6.3,8.2-6.7,3.2-.4,8-3.4,18.3-11.5,7.7-6,8.7-5.4,5.8,3.2-5,14.9-1.4,15.5,19.5,3.3l3.3-1.9,1.9,2.3c2.4,2.9,3.6,10.3,2.1,13-1.4,2.6-1.4,9.9-.1,10.7.6.4,3.1-.7,5.7-2.4l4.7-3.1,2.4,2.2c3.2,3,5.5,8.4,4.6,11.1-.3,1.2-2.2,4.8-4.1,7.9-2,3.2-3.3,6.4-3,7.3,1,2.6,7,5.5,11.3,5.5,3.1,0,5.4-.9,9.5-3.8,7-4.8,10.4-11.2,10.4-19.7,0-5.7-.2-6.3-5.4-13-6.2-8.1-8.9-13.2-7.5-14.3.5-.5,3.2-1.7,5.9-2.7,6-2.1,8.5-4.1,8.5-6.8,0-3.5,3.8-8.3,8.9-11.1,2.8-1.5,5.3-3.2,5.7-3.7.3-.6,2.3-2.3,4.5-3.8l3.9-2.9,4.6,2.4c3,1.5,6.5,2.4,9.3,2.4,4.2,0,5.2-.5,10.6-5.6,3.3-3,13-11.2,21.5-18.1,15.6-12.6,20.6-17.6,24.1-24.6,1.9-3.6,9.6-25.3,11.6-32.7l1-3.5,1.3,4c.8,2.5,1.5,12.1,1.9,25.3l.6,21.4,3.2,2.9c3.8,3.3,7.9,4.7,9.6,3,1-1,.5-6.2-1.9-17.3-.6-2.7,1-5,7.4-10,1.7-1.4,2-2.4,1.5-5.5-.9-6-4.1-12.7-7.9-16.4-3.7-3.5-4.2-5.4-2-6.2.8-.3,2.2-1.7,3.1-3,1.5-2.3,1.4-2.8-.1-6.1-1.6-3.2-2.2-3.6-5.3-3.6-5.5.1-12.5,1.7-12.9,2.9-.2.6-2-.7-4.1-3-3.2-3.6-4.2-4.2-7.7-4.2-2.2,0-6.6,1-9.8,2.2-9.6,3.6-12.6,2.6-12.6-4.1,0-4.5-1.1-4.7-5.5-1.4-3,2.3-4.7,3-7.1,2.7-2-.2-2.5-3.3-1-5.5,1.5-2.4,10.3-7.3,18.1-10.2,6.8-2.4,10.7-5,21.2-13.6,4.8-4.1,10.6-8.7,12.7-10.3l4-3h26.5c25.3,0,27-.1,34.5-2.4l7.8-2.5,5.7,3.2c7.4,4.1,17.1,6.6,22.1,5.7,2.1-.4,6.2-2.4,9.2-4.7,2.9-2.2,9.4-6.4,14.3-9.4,5-3,11.8-7.7,15-10.4,6.3-5.4,11.1-7.4,16-6.8,2.8.3,3,.6,3.6,5.9.3,3.1.9,6.1,1.3,6.8,1.5,2.3,7.9,1.1,17.4-3.4,10.4-4.9,10.2-4.9,10.2-3.6,0,.4-6.2,5-13.9,10-9.4,6.3-16.7,10.3-22.7,12.5-4.9,1.8-11.2,4.5-14,5.9-5.3,2.7-15.2,12.6-18.2,18.2-2.8,5.3-2,12,2.7,22.2,5.1,11.3,5.3,14.5,1.4,22-2.5,4.6-6.3,15-6.3,17,0,.2,3.5-3.2,7.8-7.5,4.2-4.3,10.4-9.7,13.8-12,3.3-2.2,10.6-8.8,16.2-14.7,8.1-8.6,11-11,15.3-12.6,9-3.4,10.9-4.7,10.9-7.4,0-1.3,1.4-5.8,3-10,3.2-8.1,3.6-10.5,2-13.6-1.6-2.9,4.1-13.2,8.9-16.2,3.5-2.1,4.5-2.2,30.1-2.3,29.9-.1,30.3-.2,46.2-7.6,18.9-8.7,42.7-13.6,55.8-11.4,3.7.7,4.9.5,5.9-.8,1.2-1.5.4-2.5-6.4-9-4.3-4-7.5-7.8-7.2-8.3.4-.6,2.4-1.4,4.5-1.8,5.4-.9,10-3.9,10.8-7.2.5-1.8,0-4.9-1.4-9-2.6-7.2-2.8-11.6-.7-13.3,2.3-1.9,1.8-6.8-1-9.6-5.3-5.2-8.3-5.8-30.5-5.9-19.9-.1-20.7-.1-26.5-2.7-3.3-1.4-7.7-2.9-9.8-3.3-4.6-.9-7.2,1.1-11.8,9.2-3.7,6.5-6.2,6.9-11.2,1.8-5.6-5.8-9.2-6.8-27.2-7.3-11.2-.3-20,.1-29.2,1.2-18.2,2.2-19.2,2.1-24.4-1.6-6.9-5-18.9-10.5-24.8-11.3-3.2-.4-14.3,0-27.5,1l-22.1,1.8-16-8.2c-8.8-4.5-17.3-8.2-19-8.3-1.6,0-8.7.3-15.7.7l-12.6.8-6.9-3.5c-3.7-2-8.4-3.9-10.3-4.3-6.3-1.3-8.3-5-3.2-6,7-1.4,23.6-5.6,24.1-6.1,1.1-1.1-7.2-7.4-10.3-7.8-1.7-.2-7.8-1.1-13.6-2-12.1-1.9-16-2-16-.6s-4.6,1.2-11-.5c-7.4-2-10.3-1.9-15.1.5-12.2,6.2-9.5,9.5,9,11.1,13,1,14.6,2.1,13.6,9.4-.7,5.7-3.2,10.3-7.8,14.1-2.7,2.2-3.7,2.5-7.4,2-2.8-.4-5.8,0-8.6,1-2.6,1-9.9,1.9-18.7,2.4-13.1.7-14.7.6-16.5-1-3.7-3.2-5.1-3-12.6,2.1-8.4,5.8-10.9,6.6-14.8,4.9-5.6-2.3-8.4-6.4-9.2-13.5-1-7.6-3-12.1-6.1-13.1-4.2-1.3-27.1-.7-36.9.9-6.1,1.1-11.6,2.7-15.5,4.7-8.5,4.4-14.4,4.9-21.9,1.7-10.3-4.3-14.3-4.9-37.1-5.6-17.3-.5-22.5-.9-23.9-2.1-1.6-1.4-1.5-1.6,1.4-4.1,7.6-6.3,10.3-13.6,6-16-3.9-2.1-8.3-2.9-22.3-4.4-19.3-2.1-28.3-1.9-35.8.6-6.9,2.3-10.4,2.2-10.2-.3.1-1.1-2.2-2.5-8-4.9-9.2-3.6-20.6-4.9-24.2-2.7h-.001ZM1826.438,249.201c2.8,1.4,5.9,3.7,6.9,5.1,1.8,2.7,1.7,2.8-.5,4.6-3.8,3.1-11.7,1.8-17.1-2.7-3.5-3-3.7-4.7-1-7.4s5.4-2.5,11.7.4ZM2009.438,372.601c4,2.1,13.4,13.1,13.7,16,.3,3.9-16.4,5.3-20.4,1.7-.9-.8-3.4-1.5-5.4-1.5-5.6,0-10.6,5.2-10.6,11,0,3.7.2,4.1,2.3,3.9,4.3-.5,6.8,1.3,11.2,8.1,3.7,5.8,5,7.1,8.3,7.9,2.1.6,4.7,2,5.6,3,1.7,1.9,1.7,2.1-1.8,5.7-2,2-3.6,4.1-3.6,4.7,0,.5,1.3,2.5,3,4.3,3.1,3.6,6.5,13.1,7.6,21.3.6,4.4.4,5.1-1.7,6.4-3.1,2-15.1,4.1-19.2,3.3-1.8-.3-8.7-2.3-15.5-4.3-13.7-4-14.6-4.9-15.8-13.6-.9-6.2.5-8.3,6-8.9,3.4-.4,5.8-1.6,9.6-4.8,8.1-6.7,6.5-9.9-6.5-13.1-2.7-.6-6.2-1.8-7.7-2.5-2.7-1.4-12.7-14-17.4-22-2.4-4.1-2.6-4.9-1.5-8.3.7-2.4,2.9-5.5,5.7-8.1,4.4-4,4.8-4.2,9.3-3.6,15.7,2.1,13.8,2.4,22.6-3.8,7.6-5.4,8.2-5.6,13.1-5.2,2.8.2,6.9,1.3,9.1,2.4h0ZM1825.438,380.801c1.6,1.6,4.4,5.5,6.3,8.6,5.3,8.6,6.4,9.5,9.8,8.3,5.9-2,12.5-7.3,14.8-11.8,2.6-5.2,5.2-6.8,12.7-7.7,8.8-1,8.9,2.4,0,6.6-4.3,2-4.4,2.2-2.8,4,1,1.1,3.9,2.6,6.6,3.5,6.2,2.1,32.7,19.6,35.1,23.2,2.1,3.2,2.4,8.6.6,10.1-1.9,1.5-15.6,3.2-25.6,3.2-7.1,0-9.8-.5-14.7-2.6-15-6.4-15.7-6.6-25-6.6-9.9-.1-13.6,1-17.8,5-2.7,2.6-3.5,2.7-15.5,3.2-10.5.5-13.4,1-16.7,2.8-4.7,2.6-5.8,1.9-4.5-2.8,1.5-5.2,1.2-8.4-.9-10.9-2.8-3.2-1.7-5.6,6.2-13.5,3.8-3.8,8.9-9.9,11.2-13.5,4.4-6.7,7.8-10.4,10.5-11.4,3.7-1.3,6.9-.6,9.7,2.3h0ZM1841.538,787.001c3.3,3.3-1,15-7.9,21.2-4.5,4.2-5.9,4.4-8.5,1.5-1.5-1.6-1.9-3.6-1.9-8.8,0-8.7,1-11.7,4.3-13.5s12.3-2.1,14-.4ZM2132.538,111.801c-6.3,4.2-14.5,5.5-26,4-9.2-1.2-8-1.3-54.4,5.6-1.8.2-5.3,2.5-8.8,5.5-4.5,4-9.7,7-23.9,13.5-19.4,8.9-23.7,12-23.7,17.3,0,2.8.3,3,5.8,4.1,7.1,1.4,15.1,3.9,17.7,5.6,4.1,2.6,13.6,4.6,18.2,3.9,10.1-1.5,12.8-11.6,4.3-16-3.8-2-3.9-5.3-.2-8.7,3.9-3.7,22.6-13.4,29.7-15.4,5-1.5,10.5-1.8,33.1-1.9,30.6-.1,29.4.2,39.7-9.4,6.8-6.4,6.1-9.5-2.4-10.7-3.8-.5-5-.1-9.1,2.6h0ZM628.738,116.501c-1.4.3-3.1,1-3.7,1.5-1.6,1.3-1.8,17.4-.2,18.3,2.2,1.4,5.9-.6,7.8-4.3,2.9-5.7,4-6.2,13.6-6.5l8.7-.2,2.7,3.2c2.4,2.9,3.3,3.3,7.7,3.3,6,0,11.2-2.6,13.7-6.7,2.1-3.7,1.4-5.9-2.4-7.8-2.2-1.2-7.2-1.5-24.1-1.4-11.7.1-22.4.4-23.8.6ZM701.738,125.101c-1.4.7-2.5,2.1-2.5,3.2,0,2.8,4.2,4.6,10.5,4.3,4.6-.3,5.5-.6,5.5-2.2,0-4.2-8.9-7.7-13.5-5.3ZM710.238,140.601c-4.4,2.1-8.7,4.7-9.5,5.6-1.3,1.6-1.2,2,.9,3.7,1.3,1.1,3.7,1.9,5.5,1.9,5.9,0,25.8-2.8,26.8-3.8.5-.5.8-2.2.6-3.7-.2-2.2-1.2-3-5.8-4.7-8.9-3.2-9.9-3.1-18.5,1ZM664.738,142.801c-1.4.4-6,.6-10.2.3-11.2-.8-15.5,2.5-11.2,8.6,1.6,2.3,2,2.3,10.9,1.7l9.2-.7,1.2,4.2c1.4,4.7,6,9.9,8.8,9.9,4.4,0,15.3-9.3,15.3-13,0-3.2-3.1-10-5.1-11-2.1-1.2-15.3-1.2-18.9,0ZM1326.438,207.401c-1.5,1.6-2.7,3.5-2.7,4.2,0,1.9,3.6,8.5,6.5,12.1,2.6,3,3,3.1,10,3.1,8.6,0,11.4,1,13.7,5,2.4,4.2,6.7,4.7,16.7,2,4.4-1.2,10.1-3.6,12.6-5.2,3.3-2.2,6.1-3.1,10.4-3.5,4.4-.4,6.6-1.2,8.5-3,3.8-3.5,5.7-6.8,5-8.6-.7-2-7.5-5.1-14.5-6.7-4.9-1.1-6.3-1-10.5.4-2.7.9-10.4,2.1-17.2,2.7l-12.4,1.1-5.2-2.6c-3.2-1.6-7.7-2.9-11.7-3.2-6.3-.6-6.7-.5-9.2,2.2h0ZM806.838,238.201c-1.5,1.8.6,3.5,5.1,4.2,4.4.8,6.7-1.5,4.3-4-2-2-7.8-2.1-9.4-.2h0ZM833.238,244.201c-2.4,1.7-1.4,4.3,2.1,5.2,3.1.8,5.7-.5,6.2-3.1.7-3.3-4.8-4.7-8.3-2.1h0ZM72.038,261.101c-4.7,1.8-4.9,2.4-1.2,4.6,4.5,2.8,7.5,2.6,9.5-.4,3.2-4.9-.8-6.9-8.3-4.2ZM1497.238,275.801c-4.5,3.9-4.7,3.9-10.3,3.4-7.1-.8-8.7.6-7.9,6.6.6,4.4,7.7,14.4,12.9,18.2,1.8,1.2,7.7,3.8,13.2,5.8,5.5,1.9,10.1,3.9,10.3,4.5.1.5-2,2.3-4.7,3.9s-7,4.9-9.5,7.4c-6.4,6.1-6,8.6,1.7,12.5,5.3,2.8,5.6,3.1,4.6,5.3-.9,1.8-.8,2.8,0,3.6,1.2,1.2,2.7.7,8.7-3.2,2.7-1.7,3.8-1.8,8.5-1,22.7,4,23.6,3.9,30.3-2.7,7-6.8,3.4-15.4-9.9-23.6-2.3-1.4-6.6-5.4-9.5-8.8-3-3.5-6.7-7.6-8.3-9.3-2.9-3-3.1-5.5-1.1-12.1,1-3.3-3.1-7.4-11.3-11.1-9.7-4.4-12-4.4-17.7.6h0ZM1467.738,305.301c-3.4,3-6,4.5-7.8,4.5-4.4,0-6.6,2.1-5.9,5.6,2,9.6,2,9.5-.2,11.8-2.1,2.2-2.1,2.6-.7,5.9,3,7.2,10.1,7.5,23.8.9,11.2-5.5,13.8-8.5,13.7-16-.1-11.3-4.7-17.2-13.5-17.2-3.7,0-5.1.6-9.4,4.5h0ZM71.738,313.501c-2.2,6.4-3.4,7.7-9,9.3-12.3,3.7-12.7,6-1.2,5.9,13.8-.1,15.9-1.7,16.1-12.7.1-4.9,0-5.2-2.4-5.2-1.9,0-2.8.7-3.5,2.7h0ZM4.038,327.901c-6.8,2-4.8,5,4.4,6.9,4.5,1,6.8.9,12.8-.5,4.1-.9,7.7-2,8-2.4.2-.5-2-1.8-5.1-3-5.9-2.2-14.4-2.7-20.1-1ZM2790.438,394.901c-1.5,1.1-3.2,3.8-3.9,6.1-1.1,3.6-1.9,4.4-6.8,6.5-10.1,4.5-11.8,8.1-5,11.2l3.9,1.8-2.5,1.9c-2.2,1.7-2.7,3.1-3.8,11.9-1.1,8.2-2.1,11.5-5.4,18-2.2,4.4-4.8,8.9-5.8,10.1-1.1,1.1-5.1,3-9,4.2-3.8,1.2-10.1,4.1-13.9,6.3l-6.8,4.2-11.6-1.7c-13.1-1.8-10.6-2.6-21.9,7.1-4.2,3.5-7.3,5.3-10,5.8-7.8,1.3-8.7,5.5-3.5,15.8,3.3,6.6,5.6,8.7,9.7,8.7,4.9,0,8.5-3.4,9.4-9,.9-5.4,2.4-5.9,10.2-3.6,3.4,1,5.9,1.2,7.4.6,2.4-.9,6.8-6,7.9-9.2.6-1.6.9-1.5,3.1.7,4.6,4.6,15.6,2.5,15.6-2.9,0-1.4,6.9-4.8,12.5-6.2,1.7-.4,7.3-2.9,12.6-5.5,10.7-5.3,10.9-5.6,10.9-16.4,0-7.1,1.6-11.2,4.5-11.9,5-1.3,5-3.8-.1-14.9-2.5-5.6-5.3-11-6.2-12-.8-.9-1.3-1.9-1.1-2.1s4-.9,8.4-1.6c4.4-.6,12.6-2,18.2-3.1,5.6-1,11.3-1.9,12.6-1.9,4,0,8.6-2,9.2-4.1,1.6-5.1-6.8-9.9-17.2-9.9-4.5,0-6.2-.6-10.4-3.5-5.9-4-7.7-4.3-11.2-1.4h0ZM1614.838,430.401c-2.1,2.7-2.8,8.8-1.3,11,1,1.6,4.8,3.4,7,3.4,3.4,0,7.2-4.5,7.2-8.5,0-7.5-8.6-11.4-12.9-5.9h0ZM1565.738,436.801c-2.9,2.9-2.6,5,.9,5,3.8,0,5.6-2.2,4.1-4.9-1.3-2.6-2.5-2.6-5-.1ZM1653.538,451.501c-1,.2-1.8.8-1.8,1.3,0,1,6.8,7,7.9,7,.4,0,2.8,1.6,5.2,3.5,3.4,2.7,5.3,3.5,8.6,3.5,4.3,0,7.3-1.9,7.3-4.6,0-3.1-3.2-7.6-6.3-8.9-3.4-1.3-18-2.6-20.9-1.8h0ZM2609.138,570.201c-6.8,3-13.2,18.4-9.2,22.4,2.3,2.3,5.6,1.3,9.2-2.9,5.4-6.4,8.3-16.8,5.4-19.7-1-1-2.8-.933-5.4.2ZM852.338,571.401c-2,2-2,2.7.2,4.7,2.1,1.9,5.4,2.2,8.3.7,2.5-1.4,2.4-3.5-.3-5.4-2.9-2-6.2-2-8.2,0ZM813.738,587.401c-3,.9-7.2,2-9.2,2.5-3.9,1-5.2,3.9-2.5,5.6.6.4,9.8.8,20.2.8h19l4.5,3.4c2.5,1.8,8.3,5.6,13,8.3,6.6,3.9,9.7,5.1,14,5.4,6.4.6,8.5-.4,7.5-3.5-.9-3-8.2-8.1-11.5-8.1-5.3,0-12.7-3.1-20.4-8.4-11-7.7-21.4-9.5-34.6-6ZM908.238,614.701c-4.1,1-6,2.1-12.8,7.4-6.6,5.1-6.9,4.9,5.8,6.2,3.4.4,7.9,1.7,10.4,3.1,5.1,2.8,8.6,3,15.1.7,4.6-1.6,4.8-1.6,7.7.5,3.7,2.6,4.3,2.1,4.3-3.2,0-9.3-8.7-15.7-21-15.5-3.6.1-7.8.4-9.5.8ZM954.938,625.001c-.7.7-1.2,2.8-1.2,4.8,0,4.4,1.5,6,5.5,6,1.7,0,3.6-.5,4.3-1.2,1.8-1.8,1.4-7.3-.6-9.1-2.2-2-6.3-2.2-8-.5ZM2610.339,626.401c-.3.9-.6,2.8-.6,4.3,0,3.5-2.1,6.4-6.7,9.2-12.6,7.5-12.4,13.9.8,24.4,5.2,4.2,7.9,7.2,7.9,8.7,0,.3-2.7,2.6-6,5.4-6.6,5.4-11.4,11.4-10.8,13.8.6,2.7,6.2-1,16.8-11.1,9.7-9.3,13.2-11.3,19.2-11.3,2.4,0,6.8-3.2,6.8-5,0-1.2-15.5-4.5-21-4.5h-5.5l.3-3.5c.4-4.4,3.2-8.6,8.8-12.8,4.9-3.7,5.5-6.1,2.7-11.9-2.7-5.8-11.2-9.6-12.7-5.7h0ZM856.338,634.001c-4.1,5.8.7,12.5,6.9,9.6,3.5-1.6,4.3-5.3,1.8-8.6-2.6-3.6-6.6-4-8.7-1ZM2639.938,682.701c-4,7-2.2,10.6,5.2,10.4,5-.2,9.1-4.1,8.1-7.6-1-3.3-5.3-6.7-8.4-6.7-2.1,0-3.2.8-4.9,3.9h0ZM2619.138,690.301c-2.7,1.8-4.6,6.5-4.2,10.1l.3,2.9,10.3.8c5.6.4,11,.4,11.8-.1,3.2-1.8-10.3-15.2-15.3-15.2-.5,0-1.8.7-2.9,1.5h0ZM2408.339,704.001c-2.5,3.5-2.1,10.5.7,12.8,9.6,8.3,10.3,9.3,13.6,19.3,1.8,5.4,5.6,14.4,8.5,20,5.1,10.1,5.3,10.3,15.5,17.9,10.5,7.9,13.6,9.1,16.5,6.2,2.4-2.4,2-3.9-3.4-11.6-2.7-3.9-5.3-8.7-5.6-10.7-.9-4.9-4.4-12.7-8.7-19.4-6.2-9.6-31.5-36.7-34.4-36.7-.6,0-1.9,1-2.7,2.2h0ZM2247.339,708.601c-3.8,7.4-3.9,22-.1,26.2,4.2,4.6,11.2,1,13.6-6.9,1.2-3.9,1-4.5-2.8-12.8-3.3-7.5-4.3-8.8-6.6-9.1-2-.3-2.9.3-4.1,2.6h0ZM2641.839,711.001c-4.7,5.3-5.8,5.6-12.8,2.7-2.4-1-4-1-7-.1-4.4,1.3-10.3,6.6-10.3,9.2,0,2.4,1.9,3,9.3,3,7.9.1,11.2,1.6,14.6,6.5,3.1,4.6,4.4,5,10,3.5,5.2-1.4,10.6-6.8,12.2-12,1.1-3.7,1-4.2-1.4-7.7-1.5-2.1-4.4-5.2-6.5-6.9l-3.7-3.1-4.4,4.9h0ZM2568.738,730.001c-5,3.4-6.2,6.3-4.4,10.7.8,1.9,1.1,3.8.6,4.3-.4.4-3.7,1.1-7.2,1.4-8.6.9-11.4,2.5-15.5,8.8-3.4,5.4-6.6,7.4-14.2,9.1-3.2.6-8.3,5.5-8.3,7.9,0,.7-.6,2-1.2,2.9-1.2,1.5-1.8,1.4-7.1-1.3-3.3-1.6-6.5-2.6-7.2-2.4-4.7,1.8-.2,24.9,6.7,34.6,7.3,10.1,14.1,13.9,26.7,15,22.6,2,26,2.1,28.6.4,2.3-1.5,2.4-2,1.8-7.8-.9-10.4.7-14.1,9.8-22.9,9.8-9.4,10.1-10.9,3.4-24.1-5.3-10.4-5.2-11.1,3.1-16.4,6.8-4.4,7.2-6.6,1-5.8-4,.6-4.6.4-6.1-2-1-1.4-2.2-5.2-2.9-8.3-1.3-6.7-2.6-7.4-7.6-4.1h0ZM2381.038,742.401c-1,2.7,1.8,6.2,12.6,15.3,17.2,14.5,27.1,26.1,27.1,32,0,5.4,10.3,23.4,16.6,29.2,1.6,1.4,6.4,4.9,10.6,7.8s10.4,8.2,13.7,11.7c3.2,3.5,6.6,6.4,7.3,6.4,2.5,0,3.8-2.3,3.8-6.6,0-6.6,1.8-14.5,4.5-19.7,4.3-8.3,2.9-12.7-3.9-12.7-1.8,0-4.7-2-9.8-7-4-3.9-11.3-9.9-16.3-13.3-4.9-3.4-13.2-10.3-18.5-15.3-21.2-20.3-45.2-34.3-47.7-27.8h0ZM2671.938,773.201c-3.3,3.8-7.2,13.2-7.2,17.4,0,1.6.6,3.7,1.4,4.7,1.2,1.6,1.9,1.8,4.2,1,4.4-1.6,8.7-10.9,9.2-19.6.4-6.8.4-6.9-2.1-6.9-1.6,0-3.6,1.2-5.5,3.4h0ZM2628.339,779.401c-10.7,2-14,2.3-19.5,1.5-5.6-.8-6.8-.7-7.8.7-2,2.5-1.5,5,1.2,6.8,2.4,1.6,3.7,1.6,20.1-.2,17.1-1.7,17.6-1.9,20-4.7,2.8-3.4,3.2-6.7.7-6.6-1,0-7.6,1.2-14.7,2.5ZM2701.238,791.001c-3.1,1.7-8.5,7-8.5,8.4,0,1.2,3.9,2.2,14.5,4,4.8.8,7.5,2.1,7.5,3.5,0,.6-1.4,2.8-3,4.9-3.8,4.8-6.1,10.2-5.1,11.9.7,1,3,1.1,10.5.6l9.6-.7.9,2.5c.8,2.1,2,2.7,6.8,3.7,12.7,2.4,15.6,3.3,20.1,6.4,4.3,2.9,14.2,13.9,14.2,15.8,0,.5-.8,1.1-1.7,1.4-5.6,1.8-7.6,3-9,5.1-.9,1.3-1.3,2.6-1,3,.3.3,4.9.5,10.1.4l9.5-.2,2.1,4.1c1.1,2.2,3.9,5.9,6,8,6.9,6.9,11.6,5.2,19.1-7,5-8.1,8.1-10,16.1-10,5.5,0,8.8,1.8,8.8,4.9,0,2.5,4,8.9,7.7,12.1,4.8,4.3,17.5,10.1,23.2,10.8l4.4.5-.7-4.4c-1.1-7.1-5.4-13.8-11.6-18.1-8.1-5.6-13.6-12.7-15.4-20-.5-2.1-2.1-3.5-6.5-5.7-4-2.1-7.4-4.9-10.7-8.9-6.2-7.5-9.7-10-17.1-11.9-3.2-.8-10.4-4-16.1-7-12.3-6.6-17.6-8.1-30.2-8.9-9.2-.6-18,.6-18,2.5,0,.4-2.2-.3-4.8-1.6-2.9-1.4-7.9-2.7-12.2-3.2-5.4-.6-7.6-1.2-8.7-2.7-4.1-5.7-6.4-6.6-10.8-4.2h0ZM2595.538,796.501c-.9,1-2,4.6-2.6,8-.6,3.3-2,7.9-3.1,10.2-2.5,4.9-2.6,6.4-.5,8.6,2.3,2.2,5.4,1.3,12.2-3.6,3-2.1,6.1-3.9,6.8-3.9,1.8,0,3,2.6,3.7,7.7.3,2.3,1.4,5.5,2.6,7.1,3.3,4.7,15.1,8.4,15.1,4.7,0-3.5-2.4-12.3-4.3-15.8-1.2-2.2-3.4-4.5-4.8-5.3-4.2-2.1-9-6.5-8.3-7.6.4-.5,2.6-.7,5.3-.4,5.7.8,10-.3,11.8-3.1,1.3-1.9,1.2-2.4-.8-4.4-2.1-2.1-2.7-2.2-13-1.5-8.6.5-11.6.3-14.5-.9-4.4-1.8-3.8-1.8-5.6.2h0ZM2475.238,842.301c-1.7,1.6-2.5,3.5-2.5,5.8,0,8.6,13.7,13,29.4,9.3l5.9-1.4,4.3,3.3c5.9,4.6,8.8,5.2,25.2,6l14.2.6v-2.4c0-3.5-6.8-9.4-11.7-10.2-2.1-.3-7.9-1.5-13-2.5-9.2-2-13.3-1.7-17,1.2-.7.6-2,.4-3.6-.7-1.3-.8-6.2-2-10.7-2.5-7.9-.9-8.4-1.1-12-5-2-2.2-4.2-4-4.9-4s-2.3,1.1-3.6,2.5h0ZM2644.538,859.801c-.9.6-4.4,4.2-7.7,8.1-6.3,7.2-7.9,12-4.5,13.3,1.9.7,7.4-1.5,11.7-4.8,1.9-1.5,4-2.6,4.8-2.6s3.3-.9,5.7-2c3.2-1.5,4.2-2.5,4.2-4.3,0-2.7-3.2-6.1-7.3-7.6-3.4-1.3-4.7-1.3-6.9-.1h0ZM2592.339,871.401c-3.5,3.4-.5,8.4,5,8.4,3.7,0,5.4-1.6,5.4-5,0-1.4-.5-3.1-1.2-3.8-1.7-1.7-7.4-1.5-9.2.4h0ZM2792.738,884.701c-3.7,6.9-5.1,22.5-2.5,27.1s1.8,11.4-2.5,21.8c-5.6,13.3-6.4,13.6-16.7,6.5-3.7-2.6-11.7-7.2-17.8-10.3-7.5-3.8-11.4-6.3-12.5-8.2-1.3-2.5-1.2-3.1,1.9-10,6.9-15,5.9-16.4-12-15.4l-11.7.6-4.2-3.5c-2.3-1.9-4.8-3.5-5.6-3.5-1.8,0-3.1,3.1-3.9,9.4l-.7,4.9-6-6.7c-3.3-3.6-6.4-6.6-6.9-6.6s-.9,2.3-.9,5c0,4.4-.5,5.6-3.8,9.3-2.1,2.3-4.4,5.8-5.2,7.7-3.3,8.7-7.5,9.3-15.4,2.1-7.3-6.6-8.7-6.9-14.4-3.4-4,2.4-5.4,4.2-9.2,11.6l-4.5,8.7-7.5,3.1c-10.6,4.4-16.7,10.967-18.3,19.7l-1.2,6.7-8.8,1.2c-4.8.7-10.2,2.1-12,3-2.4,1.3-5.2,1.7-11.7,1.6-9.8-.3-10.7.1-27.6,11.9-11.4,8-12.8,10.1-12.8,18.3,0,4.1.8,6.2,4.2,11.9,2.3,3.9,4.2,7.5,4.2,8.1,0,.7-.9,2-1.9,2.9-4.5,4.1-3.3,12.8,2.9,19.9,5.9,6.8,7,8.9,7,13.4,0,3.7.7,5,6,11,3.3,3.7,6,7.7,6,8.8,0,2.2-3.7,6.1-10.2,11-5.5,4-5.2,7.1,1.3,14,3.7,3.9,6.2,5.6,8.8,6.1,5.4,1.1,16.7-1.3,23.5-4.8,3.4-1.7,7.7-4,9.6-5,2.6-1.3,7-1.9,16.5-2.4l13-.7,4.2-6.1c2.3-3.4,5.8-7.8,7.7-10l3.6-3.9,8.3.7c4.5.4,8.9.7,9.7.7.8.1,6.1-1.6,11.8-3.6,6.2-2.2,13-3.9,17.3-4.2l7.1-.6,3.2,3.6c2.5,2.9,4.5,3.9,11.1,5.7,9.2,2.5,14.3,5.3,15,8.3.3,1.2-.1,4.4-1,7.2-.8,2.7-1.5,5.5-1.5,6.2,0,1.9,3.6,2.5,7.9,1.3,3-.8,4.5-2,6.1-4.8,2.3-4,9.9-10.3,12.7-10.6,1.5-.1,1.8.9,2.1,5.4.5,10.6,1.8,12.3,5.9,7.2,2-2.4,2.2-2.5,2.3-.7,0,3.4,3.8,8.3,7.9,10.5,4.3,2.2,4.6,2.7,5.6,12.4.9,8.1,1,8.3,6.3,9.1,6.5.9,12.3,3.9,14.7,7.5,2.7,4.1,5,5.4,7.5,4,1.1-.6,2-1.4,2-1.8s1.2-2,2.6-3.5c3.2-3.4,6.4-3.1,13.8,1.4l4.9,3,8.6-4.4c4.7-2.5,11.3-5.3,14.6-6.2,3.3-1,7-2.6,8.2-3.7s3.8-6.2,5.8-11.3c1.9-5.1,6.6-13.9,10.2-19.6,10.5-16.3,12.6-22.1,13.1-35.6.4-11.2-1-27.6-3-36.3-2-8.6-6.6-16.4-16.3-27.5-9.5-11-12.5-15.6-12.5-19.3,0-2.7-1.5-3.7-9.4-6.7-12.4-4.6-13-5.4-17.6-22.5-4-14.6-5.5-17.4-15.5-27.9-8.2-8.7-11.6-14.1-16.4-26.4-2.5-6.1-3.4-6.8-5.1-3.8h0ZM1971.038,900.001c-1.2,1.3-3.7,5-5.6,8.4-4.2,7.1-17.4,20.1-21.4,21-8.5,1.9-10.5,2.8-13.8,5.8-4.2,4-4.4,6.6-1.4,15.1,2.8,8.1,2.4,17.6-1.1,22.5-3,4.2-3,7.9-.1,17.6,1.2,4.1,2.1,9.9,2.1,13.7,0,6.1.2,6.7,3.1,9.1,2.6,2.2,4,2.6,9.7,2.6,12.8,0,17.1-5.3,24.2-30,1.2-4.1,3.1-9.3,4.3-11.5,1.8-3.6,8.2-21.8,13.8-39.5,5.2-16.6.3-37-8.9-37-1.7,0-3.7.9-4.9,2.2h0ZM3118.638,935.201c-4,3-10.9,10.7-10.9,12s5.7.4,9.6-1.5c5-2.4,11.4-9.1,11.4-11.9,0-3.2-5-2.6-10.1,1.4ZM2990.738,972.801c0,.7,2.7,4.3,6,8,7.1,8,11.2,9.7,14.2,6,2.4-3,2.3-4.3-.7-7.9-3.5-4.1-19.5-9.1-19.5-6.1ZM3072.438,1098.501c-1.4,1.4-.6,5.9,1.8,9.8,3.7,6.1,4.6,8.6,5.2,14.2l.6,5.2-4.7,3.2c-2.5,1.8-4.6,4.1-4.6,5,0,2.2,4.9,3.9,11.2,3.9s6.7,1.3,3.8,6.9c-2.5,4.7-2.1,6.8,1.5,7.7,3.8.9,6.6-1.5,11.8-10.4,2.6-4.5,6.4-9.5,8.7-11.3,4.4-3.5,4.8-5.3,2.4-8.7-1.4-2.1-2.1-2.3-6.9-1.7-4.5.6-6,.3-9.5-1.6-4.4-2.5-6.3-5.1-11.6-15.9-3-6.2-3.7-7-6.2-7-1.6,0-3.2.3-3.5.7h0ZM3065.638,1147.401c-.7.8-3.4,2.7-6.1,4-3,1.5-5.7,3.9-7.3,6.4-2.9,4.7-6.3,7.1-21.6,16-27.7,16.1-27.8,25-.5,27.4l6,.5,9-8.9c5-4.9,12.8-11.8,17.4-15.3,9-7.1,11.5-9.8,13.7-15.1,2.4-5.8,1.9-8-3-12.5-5-4.6-5.7-4.8-7.6-2.5h0ZM2838.438,1152.001l-8.8,4.2-6.5-2.1-6.5-2.2-1.1,2.5c-1.1,2.3-.8,2.9,3.6,6.9,4.2,3.8,4.7,4.7,4.2,7.3-1,4.3,1.1,5.6,8.5,4.9,7.4-.6,8.9-1.9,13.5-11.3,3.6-7.1,4.8-13.4,2.9-14-.6-.2-5,1.5-9.8,3.8h0Z" vector-effect="non-scaling-stroke"/>
  <path class="cls-1" d="M1520.919,630.805l-7.808,11.009c-18.502,2.784-32.643,19.066-31.139,38.103,1.383,17.499,24.989,36.02,37.876,46.475,13.298,10.789,27.927,19.966,38.529,33.734.726.155,3.957-4.374,4.712-5.18,13.232-14.136,30.156-24.677,44.783-37.405,17.2-14.967,36.624-33.121,22.712-57.762-15.016-26.596-55.308-22.659-64.691,6.266-1.481,4.566-.953,11.923-7.863,11.387-5.936-.46-5.364-6.784-6.707-11.063-3.102-9.886-11.726-19.203-21.688-22.099-1.089,2.01-2.363,3.895-3.318,5.99-12.686,27.84,14.363,48.105,32.08,64.864,7.983-7.16,16.402-14.201,23.305-22.456,11.327-13.545,16.84-28.129,7.996-44.987,2.056-.609,10.135-2.479,11.469-1.307,1.173,1.031,3.337,9.981,3.619,11.951,3.691,25.839-16.506,44.99-33.682,60.946-4.164,3.868-8.509,7.592-12.708,11.426l-19.969-18.558c-13.235-13.309-27.767-29.27-26.587-49.536,2.315-39.776,50.291-58.308,79.097-31.157,23.735-4.654,47.996,10.563,53.917,33.96,6.141,24.264-7.394,40.361-24.006,55.595-20.959,19.221-46.421,34.222-62.084,58.61l-12.101-15.149c-19.735-21.759-66.484-48.162-74.322-75.779-6.89-24.28,8.886-50.148,32.912-56.457,1.318-.346,5.32-1.421,6.366-1.421h9.3ZM1578.449,635.99c-11.264-8.163-28.024-8.472-39.354-.211,7.992,4.624,14.637,10.764,19.246,18.815.628.158.711-.397,1.01-.714,1.575-1.67,3.078-4.827,4.836-6.843,3.778-4.329,9.217-8.352,14.262-11.048h0Z"/>
</svg>