<?xml version="1.0" standalone="no"?>
<svg xmlns="http://www.w3.org/2000/svg" height="1280pt" preserveAspectRatio="xMidYMid meet" viewBox="0 0 3129 1280" width="3129pt">
  <path d="m11890 12789c-14-6-109-15-212-19-211-11-255-19-351-67-37-18-102-42-145-51l-77-18-42-65c-66-101-73-109-93-109-12 0-35 22-60 55-23 32-48 55-59 55-35 0-53-35-58-112-3-40-12-84-20-96-37-60-177-81-263-40-63 30-277 37-406 13-149-28-227-71-205-113 6-12 8-27 5-35-9-23-60-40-96-33-51 11-85 8-120-10-53-26-68-45-68-80 0-81-32-114-108-114-69 0-118-26-128-67-4-15-11-33-16-40-21-26-125-55-227-64-126-10-153-26-100-58 23-14 51-21 87-21 68 0 95-14 163-89 60-66 85-74 138-46 21 10 36 32 54 77l25 63 11-41c19-69 44-78 181-63 83 10 109 9 212-10 128-23 326-86 394-126 51-30 59-49 84-214 11-68 24-129 30-135 7-7 28 8 69 52 53 55 64 62 98 62 53 0 95-29 149-102 41-56 45-67 41-102-8-55-20-63-62-43-38 18-40 24-24 81 6 21 8 49 5 62-6 23-11 24-79 24-83 0-111-14-133-66-17-41-18-95-1-116 7-9 35-18 66-22 30-3 58-9 63-14 4-4-8-27-28-51-20-23-36-53-36-66s17-60 38-105c40-86 54-98 133-120 42-11 43-12 22-26l-21-15 26-49c31-57 77-106 107-116 33-10 159-98 185-128 25-29 47-28 114 5 21 11 40 19 43 19s14-19 24-43c26-59 42-71 96-65 60 7 132 65 139 111 3 18 8 59 13 92l8 60 57 3c75 4 85 17 70 88-6 30-9 61-6 69 4 8 25 19 48 25 22 6 75 27 117 47l77 36 121-7 122-7 27 33c15 18 47 53 72 79 45 46 45 46 130 53 170 14 281 36 388 76 80 30 120 40 166 40 91 0 96 9 39 64-30 30-64 52-93 60-39 12-45 17-43 39 1 14 9 37 18 51 14 21 22 25 44 20 59-15 78-31 84-74 3-22 11-48 18-56 46-56 169-26 169 40 0 13-16 58-36 101-30 64-34 82-25 101 15 33 73 46 183 39 51-4 99-2 106 3 9 6 14 39 17 98 4 104 14 134 61 186 40 44 37 58-11 58-63 0-100 70-71 132 16 33 137 151 251 243 33 26 96 65 140 85 95 44 138 87 133 134-3 28-8 33-54 47-147 48-218 35-330-57-95-80-121-94-174-94-74 0-123 41-181 149-16 31-43 77-60 102-21 32-35 72-46 134-18 97-39 131-75 119-12-3-85-7-162-8-134-2-144-3-211-33-61-27-78-31-130-26-48 4-77-1-140-21-103-34-242-44-345-25l-75 13 115 7c63 4 203 24 310 44 221 41 230 43 230 56 0 16-39 27-220 61-184 34-364 46-410 27zm-5696-893c-41-18-49-49-20-83 22-25 27-27 102-24 180 8 179 8 182-16 4-26 16-32 116-48 92-15 106-12 106 22 0 67-54 117-155 143-94 24-281 27-331 6zm-569-52c-33-14-84-35-113-47-61-23-82-51-59-74 13-14 26-14 96-2 63 10 84 10 93 1 16-16 81-15 96 0 7 7 12 37 12 68 0 88-23 98-125 54zm1225-51c0-16 6-36 13-45 21-28 233-117 327-139 73-17 99-28 137-60 26-21 80-50 120-65 67-25 85-27 191-24 192 4 269 3 432-8 169-11 261-3 291 24 25 23 24 30-8 43-64 25-137 30-482 35l-363 5-47 27c-25 15-71 44-101 64-93 62-129 77-305 118-94 22-178 43-187 47-15 6-18 2-18-22zm-1795-40c-16-2-84-18-150-35s-130-33-143-36c-20-4-22-9-17-33 6-28 5-29-32-29-47 0-77-19-71-46 3-17 14-19 122-22 94-2 133 1 192 18 94 25 153 27 160 3 16-52 36-84 62-97 27-14 32-13 89 16 33 17 67 29 76 25 9-3 28-25 43-49s28-45 30-47c14-16 101-18 194-4 89 14 120 14 203 4 88-11 163-29 130-30-19-1-16-60 7-126 11-32 20-69 20-83 0-25 0-25-21-6-12 10-31 39-42 64-26 60-54 88-93 96-18 3-102-2-188-12l-154-17-74 35c-40 20-89 39-108 43-48 10-100 38-129 69-21 22-33 26-83 26-36 0-72-7-91-17-27-14-65-16-252-15-121 0-227-1-236-4-9-2-26-31-38-63-27-74-49-102-92-116-68-23-41-49 64-60 46-5 64-13 89-37l32-31 110 6c149 9 176 18 221 73 20 25 41 44 45 42s38-40 74-85c54-67 108-117 185-170 2-2-4-12-14-23-19-21-74-27-91-10-6 6-44 17-85 25-41 9-101 28-134 42-56 25-71 27-215 29-85 1-177 7-203 13-50 12-74 5-139-40-14-11-29-19-32-19s-17 18-31 40c-34 53-47 57-88 26l-34-26-58 20c-81 28-129 26-200-10-69-34-109-37-235-16-93 15-150 11-150-10 0-15-48-53-98-78-31-16-35-16-55-1-12 8-36 26-53 39-18 12-57 31-88 40-47 15-66 16-123 7-54-8-84-8-143 4-41 8-156 22-255 30s-209 19-244 26c-44 8-125 10-267 5l-203-8-62 37c-59 34-64 36-128 29-64-6-68-5-120 30-64 43-76 44-95 8-8-15-22-35-32-44-28-24-125-49-207-53-96-4-213-45-291-102l-60-45-77 7c-42 4-79 3-81-2-3-4-1-23 4-40 11-42 51-63 121-63 37 0 68-8 103-25 27-14 54-25 59-25 81-1 186-105 129-127-22-8-139 14-178 34-17 9-44 26-59 39-28 24-28 24-65 5-20-10-59-22-86-26-56-8-177-43-189-54-13-13 80-108 123-125 51-20 220-39 274-31 22 4 63 18 89 31 52 27 127 30 135 6 2-7-12-28-31-47-34-34-37-35-114-35-48-1-98-7-129-18-62-22-181-100-190-125-8-24 33-85 88-130 25-20 50-48 58-62 8-16 22-25 37-25 33 0 93 32 121 65 15 17 31 25 45 23 20-3 22-9 23-62 1-49 5-62 23-78 33-26 54-23 79 12 13 17 26 30 31 30s31-20 57-44l49-43 35 18c42 23 73 24 90 4 31-37-21-79-177-141-48-20-133-57-188-84-55-26-118-53-140-60-62-19-70-25-73-53-7-58 59-51 280 29 54 20 105 33 116 30 27-9 90 16 213 84 142 78 152 80 192 42 38-35 68-52 95-52 31 0 139 76 157 110 27 53 18 64-47 61-32-1-62 0-68 4-5 3 9 21 32 38 33 25 44 42 54 82 14 53 59 105 92 105 30 0 31-9 11-67-10-30-16-59-13-64 11-18 72-9 108 16 21 14 58 30 83 35 58 13 88 29 148 79 27 23 55 41 63 41 7 0 40-14 73-31 53-26 67-29 113-24 39 5 73 1 127-13 41-11 97-23 124-26 28-3 115-26 193-51 79-25 152-45 163-45 32 0 104-38 137-73 22-22 35-48 41-82 11-61 38-85 95-85 22 0 65-11 94-25l52-24v-84c0-124 7-138 105-197 45-27 92-50 104-50 18 0 21 6 21 41 0 45-11 72-45 109-23 24-38 101-23 115 14 15 50-19 77-73 31-61 72-106 108-116 12-4 39-26 59-49 33-39 35-45 30-92-7-62 18-111 61-121 67-14 92-27 148-74 33-27 65-50 71-50 30 0 55-50 76-151 21-102 22-110 7-260-22-240-20-263 29-361 23-45 64-110 93-143 28-32 74-93 102-135 28-41 81-105 118-142 61-62 71-68 109-68 78 0 114-43 230-275 63-125 80-152 107-165 42-20 83-56 83-74 0-8-16-38-35-66-20-29-34-58-32-64 2-7 31-11 70-11h66l70-75c39-41 73-86 76-100 10-43 21-55 65-71 24-9 55-30 69-46 37-43 76-66 101-58s43 40 35 64c-6 19-62 73-128 123-28 22-38 38-46 79-14 65-41 109-87 144-20 15-56 58-79 94-24 37-66 87-93 112-90 82-98 115-37 155 37 24 59 5 85-73 22-65 31-75 170-213 81-80 173-181 205-225 68-94 114-145 131-145 23 0 132-110 155-156 16-34 20-55 15-84-7-44 4-78 40-131 20-29 55-50 184-113 113-55 169-89 193-115 62-68 82-79 165-86 103-9 106-10 163-61 27-24 58-44 68-44 11 0 32 15 49 34 37 43 62 56 104 56 40 0 61-15 156-107 75-74 139-113 184-113 14 0 45-9 69-19 32-14 56-18 86-14 35 5 55 0 107-26 35-17 80-49 100-71 31-34 36-47 36-89 0-60 20-88 93-129 29-16 83-55 119-86 39-33 86-63 114-73 27-8 63-29 81-46 24-22 38-28 56-23 40 10 76 45 83 81 6 33 9 35 46 35 57 0 74-13 109-83 18-34 40-72 50-85s23-48 30-78c11-49 10-66-10-152-32-136-31-132-46-132-8 0-28-20-45-45s-54-62-83-84c-68-50-137-126-137-150 0-10 11-44 25-75s28-73 31-94c5-33 1-44-31-87-92-120-85-155 55-248 57-38 65-47 80-97 9-30 39-100 67-155s56-117 63-138c6-21 33-66 59-100 61-80 69-96 81-159 15-78 66-124 190-173 33-13 82-39 108-58s65-44 88-55c44-23 103-82 131-134 25-46 23-215-7-428-17-127-21-189-16-268l6-104-41-36c-57-52-63-66-42-102 17-30 17-30-16-64l-34-35 17-59c17-64 21-132 7-148-5-5-21-40-36-79-15-38-41-92-58-119-21-34-32-65-35-103-4-43-11-60-33-83-37-36-37-59 2-99 35-37 34-55-7-153-29-69-29-75-4-171 15-57 17-82 10-102-9-24-66-113-80-125-3-3-22-25-43-49-44-53-47-87-12-139 14-20 25-41 25-47 0-5-13-30-30-55-54-82-50-117 17-145 39-17 42-33 8-65-33-31-32-56 6-75 55-29 69-50 69-107 0-61 2-65 55-103 22-16 60-47 83-68 45-40 64-43 117-22 20 8 20 8 1-13-11-12-17-24-15-26 16-16 171-66 206-66 36 0 226 39 351 71 73 20 57 29-77 44-72 8-113 26-174 77-80 68-107 111-107 176 0 64 7 72 169 196 78 59 108 89 122 120 36 78 24 96-68 96-110 0-101 25 75 199 145 143 172 175 172 204 0 11-10 13-44 10-39-5-46-2-61 21-9 14-21 42-25 61-11 48 3 52 83 30 150-43 166-40 150 31-8 36-8 57 1 84l11 35 90-3c113-5 254 14 279 36 33 30 146 199 146 219 0 11-13 32-30 46-16 15-46 51-66 81-30 46-36 64-41 130-7 95 9 101 26 9 20-110 45-143 123-162 109-26 157-8 281 109 96 90 112 114 128 190 6 28 22 64 36 80 21 26 31 30 65 28 39-3 42-1 70 47 16 28 49 70 73 95 71 75 78 102 48 196-25 82-14 99 119 174 150 85 237 118 365 136 63 8 114 21 124 30 9 8 33 50 54 92 20 42 54 100 76 128 52 68 71 115 63 161-4 27 4 66 25 135 28 92 29 98 15 144-17 57-18 108-2 137 6 12 68 78 138 147 69 69 131 136 137 150 51 107 97 233 101 271 9 90-74 196-175 224-115 32-128 39-178 86-28 27-78 61-110 75-57 26-62 27-129 15-86-14-102-10-226 60-168 93-202 108-275 117l-70 9-38-40c-20-22-42-58-49-79-6-21-17-43-24-49-13-10-114-2-114 10 0 3 23 20 51 36 66 39 99 81 99 128 0 42-19 57-75 57-28 0-45-8-77-39-29-28-55-43-89-50-53-12-99-1-99 23 0 20 18 31 80 51 72 23 141 58 163 83 14 15 17 29 12 53-9 47-29 70-67 78-28 6-38 17-68 71-42 78-132 171-198 204-79 40-115 46-202 34-95-14-127-4-165 55-15 23-55 68-89 99-58 55-63 58-113 58-28 0-55 5-58 10-3 6-19 10-35 10s-31 4-35 10c-3 5 8 33 24 62 34 60 57 146 43 160-5 5-22-11-41-41-43-66-56-70-100-27-20 19-49 40-64 45-74 28-162 0-181-58-15-48-31-49-61-2-43 64-113 76-188 32-28-15-29-15-48 9-11 14-30 41-42 60-29 45-47 48-103 15-57-34-90-84-106-164-15-76-32-88-47-34-19 68-14 144 14 188 13 22 25 50 25 63 0 34-54 29-121-11-30-18-80-45-111-60-39-19-75-48-110-89-93-107-124-137-151-143-40-10-77 2-77 25 0 12-15 30-37 44-66 43-81 42-185-8-52-25-108-46-126-46-39 0-98 55-130 121-29 60-30 185-2 294l20 78-25 43c-26 44-105 104-138 104-11 0-46-12-78-26-43-19-67-25-91-20-18 4-57 9-85 13-58 6-61 11-37 49 12 18 17 45 16 94-2 84 8 114 54 161 41 42 56 92 43 146-11 53-33 66-99 59-30-3-91-9-135-12-106-9-127-26-124-104 4-98-22-132-84-109-34 12-58 5-137-41-19-11-44-20-56-20-27 0-86 40-174 118-100 90-120 129-133 260-10 99-9 113 11 179 28 92 29 156 1 184-37 37-7 70 116 127 28 13 73 46 101 73l51 51 124-4c111-3 130-6 181-30 31-16 63-28 71-28 20 0 47 33 47 58 0 43 39 58 172 65 68 4 133 10 146 13 18 5 31-3 69-45 25-28 53-51 61-51s28 12 44 26c17 14 34 21 38 17s15-42 24-83c24-109 57-174 104-203 27-18 44-38 56-71 10-25 26-48 36-51 48-15 90 49 90 136 0 56-66 242-105 300-33 47-33 98 1 138 14 17 30 31 35 31 18 0 112 65 214 147 55 44 129 98 164 119 90 55 93 61 53 133-37 68-44 131-13 131 10 0 24-7 31-15 18-21 45-19 75 8 27 23 30 39 19 93-7 37 7 51 56 56 34 3 35 4 35 46 0 62 18 72 124 70 47 0 97 2 111 6 85 25 97 42 61 88-31 39-34 69-11 106 27 44 108 82 177 82 45 0 56 4 89 35 48 46 67 42 77-15 20-107 18-105 69-104 33 0 58 9 96 33 53 34 89 44 277 81 108 21 155 40 155 61 0 23-61 137-76 143-9 4-28-8-52-33-66-69-110-61-119 22-3 26-11 47-17 47s-28-11-48-25c-48-32-61-32-92 6l-26 30 22 29c19 26 20 32 8 61-16 38-64 69-105 69-16 0-57-12-90-26-67-29-255-84-254-75 0 7 122 94 239 172 81 53 107 57 172 23 25-13 31-13 50 1 39 27 50 20 43-27-14-93 22-118 110-77 51 24 63 38 45 49-6 4 9 10 37 14 26 3 69 17 94 30s63 28 84 32c26 5 55 22 86 50 52 49 91 57 109 24 16-30 5-52-42-90-28-23-51-55-74-105-18-40-40-78-49-85-20-17-19-37 3-48 10-6 66-6 132-2 117 7 129 5 182-32 13-10 21-9 36 5 25 23 118 23 143 1 22-20 39-10 39 23 0 26-62 133-104 182-19 21-27 22-76 17-46-4-62-1-90 16-19 11-45 24-57 27-22 6-21 8 20 76 23 39 55 89 71 112 35 52 29 78-22 93-20 5-41 10-45 10-23 0-77 34-83 52-9 30-65 89-113 120-32 20-58 28-90 28-70 0-90 9-110 49-31 60-310 361-335 361-26-1-50-21-106-89-27-32-61-61-86-73-40-17-44-17-94-1-54 17-120 73-120 101 0 8 12 25 26 38s22 29 19 34c-14 22-70 41-160 55-75 11-108 21-153 49-91 54-119 60-274 52-185-9-183-8-198-98-9-51-10-84-3-110 12-43 5-52-44-63-50-10-48-22 6-56 28-17 71-54 97-82 39-45 45-56 40-86-6-37-34-72-81-100-53-32-69-33-99-6-28 26-79 34-91 14-4-5 6-28 22-50 39-55 39-55 62-139 28-99 27-126-4-146-19-13-37-15-87-9-35 4-69 12-75 17-16 13-17 50-2 65 13 13 4 99-10 108-5 2-21-11-35-30-32-41-46-44-46-10 0 14-9 43-20 65s-20 48-20 60c0 11-9 29-21 41-19 19-28 20-84 14-47-5-84-1-149 14-47 11-131 30-187 41-60 12-138 38-192 62-93 42-94 42-222 35-38-2-40-1-56 42-20 54-41 71-91 71-48 0-73 24-82 80-11 71 12 104 140 190 61 41 133 93 160 116 90 75 95 77 222 83l117 6 8 50c12 79 15 83 37 48 10-17 27-34 38-37 11-4 27-15 37-26 18-20 18-21-8-48-39-40-35-52 18-52 29 0 76 13 131 36 61 25 97 34 127 32 37-3 43-8 67-48 22-38 32-46 61-48 40-4 96 22 105 50 11 36-24 60-157 108-30 11-75 37-98 57-43 36-43 36-91 24-42-11-53-10-80 4-18 9-41 15-51 12s-27 2-39 10c-54 38 52 57 184 32 51-9 65-8 139 16 101 32 127 45 141 68 16 26-11 68-59 92-69 35-68 35-49 56 32 36 97 52 178 45 92-8 106-3 106 40 0 19 4 34 9 34 16 0 41-30 41-49 0-30 20-40 71-34 39 5 53 2 78-16 17-12 31-29 31-38 0-35-34-85-71-104-68-34-47-49 70-49h77l30 41c16 22 36 50 45 62l16 21 69-31c38-17 69-36 69-43s-28-22-62-35c-73-26-87-37-120-88-32-51-54-58-143-40-86 16-142 6-161-29-13-24-7-114 9-130 7-7 34-4 87 7 63 14 102 16 214 10 125-6 140-9 187-36 28-16 62-29 75-29s42-14 63-30c39-29 76-39 76-21 0 5 9 13 20 16 22 7 59-12 94-50 17-18 36-23 101-27l81-6 16 29c23 40 72 39 144-1 29-17 55-27 58-22 7 12-8 114-21 137-6 11-53 43-105 70-91 49-129 88-112 116 15 25 112 4 204-44 49-26 99-47 111-47 41 0 156 70 194 118l36 46-88 17c-109 21-130 29-185 71-75 57-120 73-182 62-74-14-92-3-112 65-9 31-22 74-29 96l-12 40-179 31c-203 35-393 98-569 188-100 51-100 51-195 51-220-1-554-27-565-44-2-4 1-24 7-45 10-32 9-39-8-56-11-11-41-22-73-26-54-7-54-7-48 17 4 13 10 47 13 76 6 47 4 54-20 78s-33 26-79 23c-60-5-251-77-279-105-17-18-18-22-3-56 8-20 15-45 15-55 0-30 33-65 92-97 49-27 61-29 168-31 182-2 195-8 169-82-9-26-20-34-66-49-40-13-58-25-69-45-15-29-71-65-82-53-4 4-5 33-4 65l4 59-41 26c-35 24-44 26-71 16-17-5-44-19-59-31-16-11-34-20-40-20-5 0-24 20-40 44-17 24-50 59-73 77-24 19-70 62-103 96-63 65-100 82-143 67-48-17-49-34-4-147 42-106 55-184 34-209-6-8-45-22-88-33l-77-19-17 22c-12 15-20 49-25 114l-6 93-102-3c-106-4-136-14-116-38 6-8 17-14 24-14s24-11 39-25c32-29 35-74 6-100-22-20-67-22-421-17-209 2-238 9-225 49 10 32 53 45 169 54 119 8 185 32 220 80 36 50-16 89-121 89-54 0-103 21-158 65-59 48-63 67-25 120 41 57 28 70-64 60-70-7-145 1-145 16 0 5 6 9 13 9 6 1 28 15 48 33 29 26 40 45 53 101 13 51 14 71 5 82-20 24-47 25-88 4-60-30-87-26-138 21-39 35-48 40-76 34-37-8-97-42-97-56 0-16-63-49-94-49-16 0-61 18-101 40-57 31-83 40-121 40-99 0-167 17-194 48-14 16-34 34-45 39-26 14-92 22-130 16zm-595-2421c55-29 127-82 158-115 30-31 38-85 18-112-23-31-48-9-71 63l-19 62-67 25c-54 21-72 34-98 70-37 52-33 75 7 49 15-10 47-29 72-42zm3351-18c22-26 100-76 148-94 25-10 47-22 48-27 2-5-7-25-20-44l-23-34-105 3c-86 2-109 6-133 24l-29 21-99-34c-112-37-151-34-156 12-4 32 8 41 83 66 33 11 100 43 150 72 96 55 115 60 136 35zm229-279c36-8 114-14 173-15 60 0 117-5 128-11 29-15 79-88 79-116 0-50-83-15-99 42l-8 30-13-30c-7-19-10-55-7-96 5-60 3-69-16-87-25-22-61-42-76-42-20 0-35 46-41 122-7 88-22 112-79 128-54 15-106-4-165-60l-51-49-5-131c-4-115-7-133-24-146-27-19-50-18-71 6-16 18-19 41-20 181-2 176 5 204 57 242 28 21 107 45 148 46 14 0 54-6 90-14zm708-201 26-17-22-18c-12-9-64-31-116-49-52-17-102-40-112-52-11-11-46-33-80-48-33-15-82-44-108-64-54-41-108-49-125-18-12 23 6 40 91 83 39 19 95 62 148 113l85 81 94 3c74 2 99-1 119-14zm15706 2904c-62-38-110-59-222-98l-123-43-81 17c-44 10-102 25-129 33-46 15-54 15-112-1-34-10-98-34-142-53-68-31-88-36-135-33-140 10-214 4-312-28-53-16-134-51-180-75-126-69-168-78-345-75-115 2-155 0-165-10-21-21 34-62 149-111 118-50 143-72 150-135 7-56-7-76-53-76-38 0-64 29-64 70 0 47-26 68-116 96-59 19-102 40-141 70-31 24-71 46-89 50-67 13-120-25-130-93-9-63-31-86-84-87-51-1-56 5-67 99-10 87-24 90-82 18-45-58-48-73-26-127 12-28 14-55 9-116-8-95 0-100 72-46 73 56 245 86 264 46 4-8 17-35 28-60 12-25 22-49 22-53 0-15-69-37-115-37-40 0-51 5-85 40-22 22-44 40-50 40-33 0-85-37-162-118-80-82-95-93-167-121-89-34-111-38-111-18 0 18 57 77 116 118 25 19 57 53 71 77 25 42 25 45 9 78-9 20-22 67-28 105-12 68-12 70 17 123 24 45 27 57 16 69-22 28-206 127-234 127-19 0-47-17-91-57-124-112-151-133-172-133-32 0-74-38-74-66 0-41 18-62 73-90 81-41 119-73 115-97-5-36-68-34-191 8-58 19-119 35-134 35s-58 9-95 19c-97 28-165 34-232 22-48-9-67-19-107-56-71-66-91-71-152-39-42 22-58 25-91 18-23-4-80-8-128-8-80-1-89-3-116-29l-28-27-74 25c-96 33-128 32-197-7-54-30-62-32-195-37-124-5-141-8-154-26-31-43-77-86-88-82-20 6-18 54 4 105 27 62 23 83-15 94-33 10-132 2-171-12-20-8-24-16-24-55 0-25 6-60 13-78 48-114 17-186-39-91-25 42-30 46-59 41-17-3-49-13-71-23-21-10-66-25-99-33-67-18-85-39-85-104 0-31-4-39-26-47-44-17-87-11-147 21l-59 31-41-28c-22-15-60-29-83-32-37-4-42-2-47 19-4 13-7 40-7 60 0 30-7 43-35 68-34 29-45 51-26 51 5 0 40-10 77-22 104-34 268-31 384 6 119 39 180 66 180 81s-98 60-176 80c-32 8-120 22-194 30-167 19-250 40-412 104-176 69-433 111-684 111-151 0-214-11-544-95-331-85-314-78-383-162-81-99-346-313-452-365-16-9-64-25-105-38-91-27-136-49-217-107-72-50-75-62-43-143 11-28 20-66 20-85 0-45 16-84 48-118 47-50 79-61 176-62 83 0 89 2 105 24 28 42 101 111 116 111 9 0 18-8 21-17 3-10 21-58 40-107 27-67 34-98 29-123-8-46 9-73 46-73 43 0 330 60 360 75 38 20 52 41 54 83 1 20 3 41 4 45 0 5 36 45 80 91 43 45 81 92 85 103 12 37-10 61-72 79-31 9-66 24-76 34-19 19-19 19 7 53 32 43 94 73 167 82 67 9 118 34 166 82 46 46 67 94 59 137-9 43 1 46 171 46 161 0 178-9 112-62-51-41-136-92-235-142-101-50-123-96-83-166 11-19 32-58 47-87 38-74 56-79 156-42 76 27 95 30 246 35 160 4 165 4 189-18 13-13 30-35 38-49 23-46 6-51-234-60-236-9-302-16-302-29 0-5 27-25 60-45 66-40 74-60 33-76-21-8-45-7-98 5-94 22-108 21-146-11-46-39-79-116-79-184 0-78-13-87-90-66-124 35-155 33-284-12-134-47-150-49-191-21-26 18-44 20-132 19-112-3-121 1-147 56-13 26-15 50-10 103 6 68 6 69-19 76-30 7-117-8-155-28-21-11-33-29-45-67-27-83-22-105 41-171 20-21 33-40 30-43s-25-1-49 4c-58 14-161 14-195 0-16-5-67-43-114-83-80-69-89-74-163-89-44-9-85-21-92-27s-16-30-19-54c-4-24-15-51-24-59-10-8-81-27-162-42-80-14-170-37-200-50s-83-28-118-34c-70-11-82-16-82-36 0-13 29-24 110-40 61-13 154-61 183-94 20-24 27-43 27-75 0-57-26-140-54-172l-23-27-269 13c-290 14-314 12-347-32-24-32-27-126-8-206 16-64 10-92-29-132-46-47-41-79 26-162l57-69 66 2c36 1 76-1 87-5 12-3 38-31 58-61s42-55 49-55c6 0 26 22 42 48 28 43 34 47 65 44 49-4 189 18 225 36 17 8 51 33 77 56 26 22 59 50 74 62l27 21-23 31-24 32 21 28c11 15 47 50 80 78 54 46 67 53 121 59 34 4 65 12 70 18 5 7 19 45 31 85 29 97 38 101 163 68 114-29 124-28 239 40 67 39 86 46 116 41 48-8 82-32 98-71 17-40 86-109 140-141 22-13 87-40 145-60 58-21 116-44 130-52 32-19 66-67 89-129 22-56 47-80 69-62 10 9 13 31 10 88l-3 75 63 8c34 5 62 12 62 17 0 12-142 100-225 140-51 24-90 54-145 110-41 42-92 89-112 104-65 46-60 106 7 106 24 0 50-13 95-47 34-27 109-82 165-123 181-132 198-144 231-173 18-16 44-52 57-80 13-29 43-75 65-104 23-28 67-104 99-167 32-64 65-119 75-122 23-7 71 15 148 68 102 70 105 118 11 180-28 18-49 38-48 43 2 6 24 20 50 32 26 13 65 36 88 53 51 36 93 39 110 8 7-12 14-65 16-118 6-140 1-131 100-179 49-24 97-51 109-62 31-29 125-46 169-30 29 10 48 9 120-6 81-16 90-16 163 0 42 9 97 22 120 29 40 11 45 11 57-6 35-47-26-291-90-360-13-14-38-46-54-70-29-42-31-43-96-48-60-5-68-4-90 18-29 29-63 30-165 9-95-20-141-45-210-116-55-58-87-72-97-43-2 6 39 46 92 88 52 42 95 83 95 92 0 26-48 34-203 34-138 0-159 3-222 26-168 62-156 60-216 32-30-14-89-57-132-97-86-79-91-80-217-61-49 8-85 23-145 59-84 51-147 76-229 92-28 5-77 26-110 48-34 22-78 46-98 54-46 19-76 61-58 82 6 8 30 18 53 23 41 8 42 9 40 46-3 48-37 123-71 159-40 42-90 51-165 31-46-13-123-19-297-23-257-7-269-9-495-102-206-83-230-89-341-82-117 7-130 3-251-85-38-27-78-52-90-56-29-9-77-65-109-127-17-35-28-80-35-142-6-50-14-98-19-107-4-8-43-33-86-55-101-51-212-124-245-161-15-16-58-91-97-166-38-75-85-158-102-184-45-64-49-113-17-195 29-71 57-172 57-204 0-39-21-94-53-142-19-26-46-71-61-100-16-28-35-54-42-57-11-4-7-15 16-48 29-40 31-46 28-129-4-105 1-112 114-171 101-52 166-111 206-186 18-33 52-82 77-109 53-60 331-300 379-328 33-19 35-19 54-2 11 10 23 29 26 43 4 13 21 32 39 41 28 16 57 18 246 15 133-1 229 2 255 9 22 6 102 40 176 75s154 66 176 70c85 13 155-35 203-140 37-80 59-99 115-99 45 1 89 19 143 59 17 13 35 24 40 23 4 0 40-21 78-47 59-40 70-52 73-79 2-23-5-40-26-65-43-49-50-66-57-148-4-41-18-108-32-149-29-86-25-107 34-144 52-33 98-85 167-192 32-50 77-117 100-150l40-60 2-117 2-117 46-84c51-94 54-109 27-134-147-138-172-178-179-294-9-156 24-256 161-484 100-167 118-223 126-385l6-136 49-74c27-41 71-99 97-128 40-44 54-70 79-149 17-53 36-133 41-177 13-104 31-134 98-168 64-33 118-36 153-9 34 27 123 41 267 41 104 0 138 4 192 23 138 47 201 99 465 382 164 177 160 170 144 255-16 86-15 87 99 145 48 23 98 54 113 68 32 30 32 34-13 200-16 59-29 116-29 126 0 26 73 133 118 172 20 18 87 56 148 85 122 58 138 74 201 209 27 57 28 66 28 212 0 83 3 155 8 159 4 4 7 22 7 40 0 25-12 46-50 90-54 61-65 91-80 206-5 41-14 87-20 103-20 53 11 178 48 189 10 4 70 70 133 149 121 151 297 335 339 353 14 6 49 22 78 34 70 31 153 119 176 185 9 28 62 114 117 192 93 134 102 151 140 268 27 85 39 140 37 168l-3 42-60-2c-61-1-239-56-385-119-53-23-80-28-148-28-102-1-112 8-112 100 0 58-3 67-51 138-28 42-69 91-92 109-95 74-137 129-203 267-36 74-83 158-103 185-43 57-71 109-101 187-12 29-55 123-97 208-41 85-98 201-126 258-27 56-48 104-46 106 9 7 100 26 128 26 29 0 34-6 78-92 27-51 57-120 69-153 17-48 29-66 62-88 26-17 44-39 48-55 35-154 79-246 150-312 163-152 190-201 238-432 42-203 58-228 140-228 80 0 190 32 317 93 152 72 232 103 302 116 33 6 84 26 115 44 32 19 80 40 107 46 72 18 149 62 240 139 76 65 117 116 285 367 27 40 26 49-14 92-41 46-130 101-200 124-37 12-57 26-73 50-53 81-46 79-95 29-44-45-161-121-218-143-41-16-63 0-71 48-5 29-16 46-45 69-74 58-104 93-104 121 0 20-22 50-90 120-79 82-90 98-90 129 0 27 9 44 39 76 56 59 85 54 127-20 75-129 87-144 157-182 38-21 101-58 140-83s81-45 94-45c12 0 57 17 98 37l75 38 88-91c78-81 92-92 132-98 90-14 347-24 418-16 63 7 77 12 112 44 59 53 76 49 154-38 62-69 71-76 123-86 77-16 103-44 103-110 0-88 48-170 100-170 28 0 103 44 134 78 11 12 23 22 28 22 4 0 7-73 6-162l-3-163 38-119c45-139 157-368 232-476 74-106 101-165 107-235 11-118 49-164 95-112 25 28 120 187 140 236 39 91 65 219 72 349l8 133 33 34c19 19 64 50 100 67 49 25 96 63 193 158 70 69 144 146 163 172 58 78 86 90 234 97l128 7 46 42c25 23 53 42 61 42 10 0 27-25 44-62s61-100 106-153c104-120 116-150 124-306 6-124 16-159 45-159 14 0 63 50 95 98 40 58 150 95 165 56 3-9 6-48 6-87 0-40 5-124 10-187 12-129 41-207 101-268l33-34 28 89c15 48 31 110 36 138 9 64 25 67 99 17 65-44 127-108 169-173 16-24 54-72 86-107 32-34 58-67 58-72 0-17 62-11 95 10 17 11 45 40 60 65 30 46 38 50 163 84 50 14 63 32 98 132 20 56 25 88 22 130-4 51-10 65-74 150-38 52-105 132-149 179s-93 111-110 143l-30 57 95 90c115 108 140 121 178 93 39-29 38-61-2-135-42-75-55-143-36-188 15-35 62-64 90-55 22 7 120 135 120 157 0 8-11 25-24 37-45 43-38 109 19 161 24 22 34 25 96 22 85-3 221 26 326 69 78 33 140 84 245 205 19 22 66 66 104 96 112 89 183 158 209 202 23 40 24 44 15 165-10 150-32 202-139 331-59 71-83 110-68 110 1 0 40 16 87 35 118 49 160 93 137 143-14 31-48 37-122 23-107-19-117-17-189 45-36 31-66 64-66 73 0 26 45 63 82 67 32 4 80 34 183 115 77 60 87 54 58-32-50-149-14-155 195-33l33 19 19-23c24-29 36-103 21-130-14-26-14-99-1-107 6-4 31 7 57 24l47 31 24-22c32-30 55-84 46-111-3-12-22-48-41-79-20-32-33-64-30-73 10-26 70-55 113-55 31 0 54 9 95 38 70 48 104 112 104 197 0 57-2 63-54 130-62 81-89 132-75 143 5 5 32 17 59 27 60 21 85 41 85 68 0 35 38 83 89 111 28 15 53 32 57 37 3 6 23 23 45 38l39 29 46-24c30-15 65-24 93-24 42 0 52 5 106 56 33 30 130 112 215 181 156 126 206 176 241 246 19 36 96 253 116 327l10 35 13-40c8-25 15-121 19-253l6-214 32-29c38-33 79-47 96-30 10 10 5 62-19 173-6 27 10 50 74 100 17 14 20 24 15 55-9 60-41 127-79 164-37 35-42 54-20 62 8 3 22 17 31 30 15 23 14 28-1 61-16 32-22 36-53 36-55-1-125-17-129-29-2-6-20 7-41 30-32 36-42 42-77 42-22 0-66-10-98-22-96-36-126-26-126 41 0 45-11 47-55 14-30-23-47-30-71-27-20 2-25 33-10 55 15 24 103 73 181 102 68 24 107 50 212 136 48 41 106 87 127 103l40 30h265c253 0 270 1 345 24l78 25 57-32c74-41 171-66 221-57 21 4 62 24 92 47 29 22 94 64 143 94 50 30 118 77 150 104 63 54 111 74 160 68 28-3 30-6 36-59 3-31 9-61 13-68 15-23 79-11 174 34 104 49 102 49 102 36 0-4-62-50-139-100-94-63-167-103-227-125-49-18-112-45-140-59-53-27-152-126-182-182-28-53-20-120 27-222 51-113 53-145 14-220-25-46-63-150-63-170 0-2 35 32 78 75 42 43 104 97 138 120 33 22 106 88 162 147 81 86 110 110 153 126 90 34 109 47 109 74 0 13 14 58 30 100 32 81 36 105 20 136-16 29 41 132 89 162 35 21 45 22 301 23 299 1 303 2 462 76 189 87 427 136 558 114 37-7 49-5 59 8 12 15 4 25-64 90-43 40-75 78-72 83 4 6 24 14 45 18 54 9 100 39 108 72 5 18 0 49-14 90-26 72-28 116-7 133 23 19 18 68-10 96-53 52-83 58-305 59-199 1-207 1-265 27-33 14-77 29-98 33-46 9-72-11-118-92-37-65-62-69-112-18-56 58-92 68-272 73-112 3-200-1-292-12-182-22-192-21-244 16-69 50-189 105-248 113-32 4-143 0-275-10l-221-18-160 82c-88 45-173 82-190 83-16 0-87-3-157-7l-126-8-69 35c-37 20-84 39-103 43-63 13-83 50-32 60 70 14 236 56 241 61 11 11-72 74-103 78-17 2-78 11-136 20-121 19-160 20-160 6s-46-12-110 5c-74 20-103 19-151-5-122-62-95-95 90-111 130-10 146-21 136-94-7-57-32-103-78-141-27-22-37-25-74-20-28 4-58 0-86-10-26-10-99-19-187-24-131-7-147-6-165 10-37 32-51 30-126-21-84-58-109-66-148-49-56 23-84 64-92 135-10 76-30 121-61 131-42 13-271 7-369-9-61-11-116-27-155-47-85-44-144-49-219-17-103 43-143 49-371 56-173 5-225 9-239 21-16 14-15 16 14 41 76 63 103 136 60 160-39 21-83 29-223 44-193 21-283 19-358-6-69-23-104-22-102 3 1 11-22 25-80 49-92 36-206 49-242 27zm-6187-1432c28-14 59-37 69-51 18-27 17-28-5-46-38-31-117-18-171 27-35 30-37 47-10 74 26 26 54 25 117-4zm1830-1234c40-21 134-131 137-160 3-39-164-53-204-17-9 8-34 15-54 15-56 0-106-52-106-110 0-37 2-41 23-39 43 5 68-13 112-81 37-58 50-71 83-79 21-6 47-20 56-30 17-19 17-21-18-57-20-20-36-41-36-47 0-5 13-25 30-43 31-36 65-131 76-213 6-44 4-51-17-64-31-20-151-41-192-33-18 3-87 23-155 43-137 40-146 49-158 136-9 62 5 83 60 89 34 4 58 16 96 48 81 67 65 99-65 131-27 6-62 18-77 25-27 14-127 140-174 220-24 41-26 49-15 83 7 24 29 55 57 81 44 40 48 42 93 36 157-21 138-24 226 38 76 54 82 56 131 52 28-2 69-13 91-24zm-1840-82c16-16 44-55 63-86 53-86 64-95 98-83 59 20 125 73 148 118 26 52 52 68 127 77 88 10 89-24 0-66-43-20-44-22-28-40 10-11 39-26 66-35 62-21 327-196 351-232 21-32 24-86 6-101-19-15-156-32-256-32-71 0-98 5-147 26-150 64-157 66-250 66-99 1-136-10-178-50-27-26-35-27-155-32-105-5-134-10-167-28-47-26-58-19-45 28 15 52 12 84-9 109-28 32-17 56 62 135 38 38 89 99 112 135 44 67 78 104 105 114 37 13 69 6 97-23zm161-4062c33-33-10-150-79-212-45-42-59-44-85-15-15 16-19 36-19 88 0 87 10 117 43 135s123 21 140 4zm2910 6752c-63-42-145-55-260-40-92 12-80 13-544-56-18-2-53-25-88-55-45-40-97-70-239-135-194-89-237-120-237-173 0-28 3-30 58-41 71-14 151-39 177-56 41-26 136-46 182-39 101 15 128 116 43 160-38 20-39 53-2 87 39 37 226 134 297 154 50 15 105 18 331 19 306 1 294-2 397 94 68 64 61 95-24 107-38 5-50 1-91-26zm-15038-47c-14-3-31-10-37-15-16-13-18-174-2-183 22-14 59 6 78 43 29 57 40 62 136 65l87 2 27-32c24-29 33-33 77-33 60 0 112 26 137 67 21 37 14 59-24 78-22 12-72 15-241 14-117-1-224-4-238-6zm730-86c-14-7-25-21-25-32 0-28 42-46 105-43 46 3 55 6 55 22 0 42-89 77-135 53zm85-155c-44-21-87-47-95-56-13-16-12-20 9-37 13-11 37-19 55-19 59 0 258 28 268 38 5 5 8 22 6 37-2 22-12 30-58 47-89 32-99 31-185-10zm-455-22c-14-4-60-6-102-3-112 8-155-25-112-86 16-23 20-23 109-17l92 7 12-42c14-47 60-99 88-99 44 0 153 93 153 130 0 32-31 100-51 110-21 12-153 12-189 0zm6617-646c-15-16-27-35-27-42 0-19 36-85 65-121 26-30 30-31 100-31 86 0 114-10 137-50 24-42 67-47 167-20 44 12 101 36 126 52 33 22 61 31 104 35 44 4 66 12 85 30 38 35 57 68 50 86-7 20-75 51-145 67-49 11-63 10-105-4-27-9-104-21-172-27l-124-11-52 26c-32 16-77 29-117 32-63 6-67 5-92-22zm-5196-308c-15-18 6-35 51-42 44-8 67 15 43 40-20 20-78 21-94 2zm264-60c-24-17-14-43 21-52 31-8 57 5 62 31 7 33-48 47-83 21zm-7612-169c-47-18-49-24-12-46 45-28 75-26 95 4 32 49-8 69-83 42zm14252-147c-45-39-47-39-103-34-71 8-87-6-79-66 6-44 77-144 129-182 18-12 77-38 132-58 55-19 101-39 103-45 1-5-20-23-47-39s-70-49-95-74c-64-61-60-86 17-125 53-28 56-31 46-53-9-18-8-28 0-36 12-12 27-7 87 32 27 17 38 18 85 10 227-40 236-39 303 27 70 68 34 154-99 236-23 14-66 54-95 88-30 35-67 76-83 93-29 30-31 55-11 121 10 33-31 74-113 111-97 44-120 44-177-6zm-295-295c-34-30-60-45-78-45-44 0-66-21-59-56 20-96 20-95-2-118-21-22-21-26-7-59 30-72 101-75 238-9 112 55 138 85 137 160-1 113-47 172-135 172-37 0-51-6-94-45zm-13960-82c-22-64-34-77-90-93-123-37-127-60-12-59 138 1 159 17 161 127 1 49 0 52-24 52-19 0-28-7-35-27zm-677-144c-68-20-48-50 44-69 45-10 68-9 128 5 41 9 77 20 80 24 2 5-20 18-51 30-59 22-144 27-201 10zm27864-670c-15-11-32-38-39-61-11-36-19-44-68-65-101-45-118-81-50-112l39-18-25-19c-22-17-27-31-38-119-11-82-21-115-54-180-22-44-48-89-58-101-11-11-51-30-90-42-38-12-101-41-139-63l-68-42-116 17c-131 18-106 26-219-71-42-35-73-53-100-58-78-13-87-55-35-158 33-66 56-87 97-87 49 0 85 34 94 90 9 54 24 59 102 36 34-10 59-12 74-6 24 9 68 60 79 92 6 16 9 15 31-7 46-46 156-25 156 29 0 14 69 48 125 62 17 4 73 29 126 55 107 53 109 56 109 164 0 71 16 112 45 119 50 13 50 38-1 149-25 56-53 110-62 120-8 9-13 19-11 21s40 9 84 16c44 6 126 20 182 31 56 10 113 19 126 19 40 0 86 20 92 41 16 51-68 99-172 99-45 0-62 6-104 35-59 40-77 43-112 14zm-11756-355c-21-27-28-88-13-110 10-16 48-34 70-34 34 0 72 45 72 85 0 75-86 114-129 59zm-491-64c-29-29-26-50 9-50 38 0 56 22 41 49-13 26-25 26-50 1zm878-147c-10-2-18-8-18-13 0-10 68-70 79-70 4 0 28-16 52-35 34-27 53-35 86-35 43 0 73 19 73 46 0 31-32 76-63 89-34 13-180 26-209 18zm9556-1187c-68-30-132-184-92-224 23-23 56-13 92 29 54 64 83 168 54 197-15 15-15 15-54-2zm-17568-12c-20-20-20-27 2-47 21-19 54-22 83-7 25 14 24 35-3 54-29 20-62 20-82 0zm-386-160c-30-9-72-20-92-25-39-10-52-39-25-56 6-4 98-8 202-8h190l45-34c25-18 83-56 130-83 66-39 97-51 140-54 64-6 85 4 75 35-9 30-82 81-115 81-53 0-127 31-204 84-110 77-214 95-346 60zm945-273c-41-10-60-21-128-74-66-51-69-49 58-62 34-4 79-17 104-31 51-28 86-30 151-7 46 16 48 16 77-5 37-26 43-21 43 32 0 93-87 157-210 155-36-1-78-4-95-8zm467-103c-7-7-12-28-12-48 0-44 15-60 55-60 17 0 36 5 43 12 18 18 14 73-6 91-22 20-63 22-80 5zm16554-14c-3-9-6-28-6-43 0-35-21-64-67-92-126-75-124-139 8-244 52-42 79-72 79-87 0-3-27-26-60-54-66-54-114-114-108-138 6-27 62 10 168 111 97 93 132 113 192 113 24 0 68 32 68 50 0 12-155 45-210 45h-55l3 35c4 44 32 86 88 128 49 37 55 61 27 119-27 58-112 96-127 57zm-17540-76c-41-58 7-125 69-96 35 16 43 53 18 86-26 36-66 40-87 10zm17836-487c-40-70-22-106 52-104 50 2 91 41 81 76-10 33-53 67-84 67-21 0-32-8-49-39zm-208-76c-27-18-46-65-42-101l3-29 103-8c56-4 110-4 118 1 32 18-103 152-153 152-5 0-18-7-29-15zm-2108-137c-25-35-21-105 7-128 96-83 103-93 136-193 18-54 56-144 85-200 51-101 53-103 155-179 105-79 136-91 165-62 24 24 20 39-34 116-27 39-53 87-56 107-9 49-44 127-87 194-62 96-315 367-344 367-6 0-19-10-27-22zm-1610-46c-38-74-39-220-1-262 42-46 112-10 136 69 12 39 10 45-28 128-33 75-43 88-66 91-20 3-29-3-41-26zm3945-24c-47-53-58-56-128-27-24 10-40 10-70 1-44-13-103-66-103-92 0-24 19-30 93-30 79-1 112-16 146-65 31-46 44-50 100-35 52 14 106 68 122 120 11 37 10 42-14 77-15 21-44 52-65 69l-37 31zm-731-190c-50-34-62-63-44-107 8-19 11-38 6-43-4-4-37-11-72-14-86-9-114-25-155-88-34-54-66-74-142-91-32-6-83-55-83-79 0-7-6-20-12-29-12-15-18-14-71 13-33 16-65 26-72 24-47-18-2-249 67-346 73-101 141-139 267-150 226-20 260-21 286-4 23 15 24 20 18 78-9 104 7 141 98 229 98 94 101 109 34 241-53 104-52 111 31 164 68 44 72 66 10 58-40-6-46-4-61 20-10 14-22 52-29 83-13 67-26 74-76 41zm-1877-124c-10-27 18-62 126-153 172-145 271-261 271-320 0-54 103-234 166-292 16-14 64-49 106-78s104-82 137-117c32-35 66-64 73-64 25 0 38 23 38 66 0 66 18 145 45 197 43 83 29 127-39 127-18 0-47 20-98 70-40 39-113 99-163 133-49 34-132 103-185 153-212 203-452 343-477 278zm2909-308c-33-38-72-132-72-174 0-16 6-37 14-47 12-16 19-18 42-10 44 16 87 109 92 196 4 68 4 69-21 69-16 0-36-12-55-34zm-436-62c-107-20-140-23-195-15-56 8-68 7-78-7-20-25-15-50 12-68 24-16 37-16 201 2 171 17 176 19 200 47 28 34 32 67 7 66-10 0-76-12-147-25zm729-116c-31-17-85-70-85-84 0-12 39-22 145-40 48-8 75-21 75-35 0-6-14-28-30-49-38-48-61-102-51-119 7-10 30-11 105-6l96 7 9-25c8-21 20-27 68-37 127-24 156-33 201-64 43-29 142-139 142-158 0-5-8-11-17-14-56-18-76-30-90-51-9-13-13-26-10-30 3-3 49-5 101-4l95 2 21-41c11-22 39-59 60-80 69-69 116-52 191 70 50 81 81 100 161 100 55 0 88-18 88-49 0-25 40-89 77-121 48-43 175-101 232-108l44-5-7 44c-11 71-54 138-116 181-81 56-136 127-154 200-5 21-21 35-65 57-40 21-74 49-107 89-62 75-97 100-171 119-32 8-104 40-161 70-123 66-176 81-302 89-92 6-180-6-180-25 0-4-22 3-48 16-29 14-79 27-122 32-54 6-76 12-87 27-41 57-64 66-108 42zm-1057-55c-9-10-20-46-26-80-6-33-20-79-31-102-25-49-26-64-5-86 23-22 54-13 122 36 30 21 61 39 68 39 18 0 30-26 37-77 3-23 14-55 26-71 33-47 151-84 151-47 0 35-24 123-43 158-12 22-34 45-48 53-42 21-90 65-83 76 4 5 26 7 53 4 57-8 100 3 118 31 13 19 12 24-8 44-21 21-27 22-130 15-86-5-116-3-145 9-44 18-38 18-56-2zm-1203-458c-17-16-25-35-25-58 0-86 137-130 294-93l59 14 43-33c59-46 88-52 252-60l142-6v24c0 35-68 94-117 102-21 3-79 15-130 25-92 20-133 17-170-12-7-6-20-4-36 7-13 8-62 20-107 25-79 9-84 11-120 50-20 22-42 40-49 40s-23-11-36-25zm1693-175c-9-6-44-42-77-81-63-72-79-120-45-133 19-7 74 15 117 48 19 15 40 26 48 26s33 9 57 20c32 15 42 25 42 43 0 27-32 61-73 76-34 13-47 13-69 1zm-522-116c-35-34-5-84 50-84 37 0 54 16 54 50 0 14-5 31-12 38-17 17-74 15-92-4zm2004-133c-37-69-51-225-25-271s18-114-25-218c-56-133-64-136-167-65-37 26-117 72-178 103-75 38-114 63-125 82-13 25-12 31 19 100 69 150 59 164-120 154l-117-6-42 35c-23 19-48 35-56 35-18 0-31-31-39-94l-7-49-60 67c-33 36-64 66-69 66s-9-23-9-50c0-44-5-56-38-93-21-23-44-58-52-77-33-87-75-93-154-21-73 66-87 69-144 34-40-24-54-42-92-116l-45-87-75-31c-159-66-159-66-183-197l-12-67-88-12c-48-7-102-21-120-30-24-13-52-17-117-16-98 3-107-1-276-119-114-80-128-101-128-183 0-41 8-62 42-119 23-39 42-75 42-81 0-7-9-20-19-29-45-41-33-128 29-199 59-68 70-89 70-134 0-37 7-50 60-110 33-37 60-77 60-88 0-22-37-61-102-110-55-40-52-71 13-140 37-39 62-56 88-61 54-11 167 13 235 48 34 17 77 40 96 50 26 13 70 19 165 24l130 7 42 61c23 34 58 78 77 100l36 39 83-7c45-4 89-7 97-7 8-1 61 16 118 36 62 22 130 39 173 42l71 6 32-36c25-29 45-39 111-57 92-25 143-53 150-83 3-12-1-44-10-72-8-27-15-55-15-62 0-19 36-25 79-13 30 8 45 20 61 48 23 40 99 103 127 106 15 1 18-9 21-54 5-106 18-123 59-72 20 24 22 25 23 7 0-34 38-83 79-105 43-22 46-27 56-124 9-81 10-83 63-91 65-9 123-39 147-75 27-41 50-54 75-40 11 6 20 14 20 18s12 20 26 35c32 34 64 31 138-14l49-30 86 44c47 25 113 53 146 62 33 10 70 26 82 37s38 62 58 113c19 51 66 139 102 196 105 163 126 221 131 356 4 112-10 276-30 363-20 86-66 164-163 275-95 110-125 156-125 193 0 27-15 37-94 67-124 46-130 54-176 225-40 146-55 174-155 279-82 87-116 141-164 264-25 61-34 68-51 38zm-8217-153c-12-13-37-50-56-84-42-71-174-201-214-210-85-19-105-28-138-58-42-40-44-66-14-151 28-81 24-176-11-225-30-42-30-79-1-176 12-41 21-99 21-137 0-61 2-67 31-91 26-22 40-26 97-26 128 0 171 53 242 300 12 41 31 93 43 115 18 36 82 218 138 395 52 166 3 370-89 370-17 0-37-9-49-22zm11476-352c-40-30-109-107-109-120s57-4 96 15c50 24 114 91 114 119 0 32-50 26-101-14zm-1279-376c0-7 27-43 60-80 71-80 112-97 142-60 24 30 23 43-7 79-35 41-195 91-195 61zm817-1257c-14-14-6-59 18-98 37-61 46-86 52-142l6-52-47-32c-25-18-46-41-46-50 0-22 49-39 112-39 60 0 67-13 38-69-25-47-21-68 15-77 38-9 66 15 118 104 26 45 64 95 87 113 44 35 48 53 24 87-14 21-21 23-69 17-45-6-60-3-95 16-44 25-63 51-116 159-30 62-37 70-62 70-16 0-32-3-35-7zm-68-489c-7-8-34-27-61-40-30-15-57-39-73-64-29-47-63-71-216-160-277-161-278-250-5-274l60-5 90 89c50 49 128 118 174 153 90 71 115 98 137 151 24 58 19 80-30 125-50 46-57 48-76 25zm-2272-46-88-42-65 21-65 22-11-25c-11-23-8-29 36-69 42-38 47-47 42-73-10-43 11-56 85-49 74 6 89 19 135 113 36 71 48 134 29 140-6 2-50-15-98-38z" transform="matrix(.1 0 0 -.1 0 1280)" vector-effect="non-scaling-stroke" fill="#FDE68A" stroke="none" stroke-width="2"/>
</svg>
